<?xml version="1.0" encoding="UTF-8" standalone="no"?>
<svg
   xmlns:dc="http://purl.org/dc/elements/1.1/"
   xmlns:cc="http://creativecommons.org/ns#"
   xmlns:rdf="http://www.w3.org/1999/02/22-rdf-syntax-ns#"
   xmlns:svg="http://www.w3.org/2000/svg"
   xmlns="http://www.w3.org/2000/svg"
   xmlns:sodipodi="http://sodipodi.sourceforge.net/DTD/sodipodi-0.dtd"
   xmlns:inkscape="http://www.inkscape.org/namespaces/inkscape"
   width="22.83025mm"
   height="22.83025mm"
   viewBox="0 0 22.830249 22.83025"
   version="1.1"
   id="svg8"
   inkscape:version="1.0beta2 (2b71d25, 2019-12-03)"
   sodipodi:docname="asyncapi-python-logo.svg">
  <defs
     id="defs2" />
  <sodipodi:namedview
     id="base"
     pagecolor="#ffffff"
     bordercolor="#666666"
     borderopacity="1.0"
     inkscape:pageopacity="0.0"
     inkscape:pageshadow="2"
     inkscape:zoom="3.959798"
     inkscape:cx="1.9600922"
     inkscape:cy="23.447941"
     inkscape:document-units="mm"
     inkscape:current-layer="layer1"
     inkscape:document-rotation="0"
     showgrid="false"
     fit-margin-top="1"
     fit-margin-left="1"
     fit-margin-right="1"
     fit-margin-bottom="1"
     inkscape:window-width="1280"
     inkscape:window-height="1035"
     inkscape:window-x="1748"
     inkscape:window-y="23"
     inkscape:window-maximized="0" />
  <metadata
     id="metadata5">
    <rdf:RDF>
      <cc:Work
         rdf:about="">
        <dc:format>image/svg+xml</dc:format>
        <dc:type
           rdf:resource="http://purl.org/dc/dcmitype/StillImage" />
        <dc:title></dc:title>
      </cc:Work>
    </rdf:RDF>
  </metadata>
  <g
     inkscape:label="Layer 1"
     inkscape:groupmode="layer"
     id="layer1"
     transform="translate(-55.533484,-50.862145)">
    <path
       d="m 66.981825,51.862143 c -1.505459,0 -2.651032,0.09629 -2.545356,0.21394 0.0024,0.0024 -7.68e-4,0.0057 7.69e-4,0.0083 -0.296426,-0.254408 -3.141334,0.467728 -4.810567,1.225767 -1.611884,0.731993 -3.023082,2.178013 -3.172493,3.236494 -0.110561,-0.163385 -0.192311,-0.09921 -0.209547,0.188619 -0.01669,0.278916 0.07425,0.435187 0.202037,0.347266 0.0082,-0.0056 0.01165,-0.01611 0.01877,-0.02273 0.06199,0.193275 0.218322,0.25364 0.499458,0.21549 0.32764,-0.04446 0.722957,-0.09015 0.878743,-0.101285 0.155786,-0.01114 0.531369,-0.429358 0.835185,-0.929659 1.012264,-1.666914 4.942908,-3.059245 8.636482,-3.059245 2.960011,0 8.126511,1.941955 8.126511,3.054594 0,0.533537 1.108198,1.17444 1.741719,1.007173 1.197111,-0.316068 0.365137,-2.028827 -1.611779,-3.319176 -1.565458,-1.021784 -5.459704,-2.208504 -6.008513,-1.830896 -0.05006,0.03444 -0.08532,0.06431 -0.113413,0.09199 0.0035,-0.01998 0.01235,-0.0406 0.03154,-0.06201 0.149942,-0.166923 -0.772658,-0.264583 -2.49954,-0.264583 z m 5.697572,1.148768 c 0.626077,0.207513 1.245117,0.442662 1.743218,0.675926 -0.495812,-0.231404 -1.117378,-0.467288 -1.743218,-0.675926 z M 57.292351,67.206426 c -0.33142,-0.0045 -0.623619,0.120121 -0.753319,0.385506 -0.01165,-0.05667 -0.03049,-0.114239 -0.06234,-0.168981 -0.122755,-0.211066 -0.213618,-0.14803 -0.232076,0.160197 -0.01669,0.278916 0.07425,0.435186 0.202035,0.347265 0.0083,-0.0057 0.01221,-0.0164 0.01953,-0.02326 -0.02107,1.323951 2.893379,3.499262 5.69457,4.156852 0.835884,0.196226 1.671881,0.295879 1.890425,0.227375 -0.05666,0.115073 1.329398,0.208257 3.122923,0.208257 1.822714,0 3.219703,-0.104225 3.104898,-0.232027 -3.85e-4,-5.29e-4 -3.16e-4,-0.0011 -7.69e-4,-0.0016 0.262237,0.282913 2.596067,-0.369549 4.422265,-1.237134 1.49567,-0.710559 3.048565,-2.371558 3.048565,-3.261299 0,-0.407154 -0.240381,-0.559657 -0.883998,-0.559657 -0.663955,0 -1.007714,0.234132 -1.378955,0.940512 -1.00516,1.912567 -5.091952,3.204546 -9.388297,2.967259 -3.674549,-0.202943 -6.575778,-1.426442 -7.541434,-3.180167 -0.255823,-0.464598 -0.79637,-0.722852 -1.264042,-0.729155 z m 18.763829,0.917258 c -0.136285,0.373607 -0.57712,0.820491 -1.18067,1.255736 0.58281,-0.453602 1.075437,-0.967256 1.18067,-1.255736 z m -17.67103,0.409794 c 0.06877,0.09486 0.144294,0.187413 0.224567,0.278019 -0.07937,-0.09117 -0.156545,-0.183142 -0.224567,-0.278019 z m -1.173165,0.02532 c 0.199229,0.388329 0.637648,0.832847 1.208463,1.266589 -0.572827,-0.43307 -1.009678,-0.876286 -1.208463,-1.266589 z m 1.418762,0.278019 c 1.196711,1.327906 3.603058,2.189974 6.275889,2.502691 -2.82184,-0.286848 -5.12087,-1.197705 -6.275889,-2.502691 z m 14.077191,1.728576 c -0.470078,0.193553 -0.948014,0.354618 -1.40599,0.461988 -0.216908,0.05085 -0.492203,0.09918 -0.796128,0.144177 0.777213,-0.14637 1.519182,-0.347718 2.202118,-0.606165 z m -10.611031,1.088309 c 0.168188,0.04486 0.334276,0.08463 0.494951,0.114204 0.513828,0.09455 0.940381,0.209786 1.200953,0.313674 -0.255188,-0.08898 -0.650673,-0.192119 -1.130354,-0.288353 -0.184547,-0.03703 -0.374262,-0.08566 -0.56555,-0.139525 z m 4.884918,0.876432 c -0.313641,0 -0.627289,0.01601 -0.865225,0.04754 -0.475874,0.06306 -0.08651,0.114723 0.865225,0.114723 0.951749,0 1.341099,-0.05166 0.865226,-0.114723 -0.237937,-0.03153 -0.551581,-0.04754 -0.865226,-0.04754 z"
       style="fill:#ffffff;fill-opacity:1;stroke-width:0.318973"
       id="path2315"
       inkscape:connector-curvature="0" />
    <g
       style="fill:#ffffff"
       id="g1097">
      <path
         style="fill:#ffffff;fill-opacity:1;stroke-width:0.285387"
         d="m 62.019929,61.28709 c -1.101776,-2.509772 -1.922684,-4.699247 -1.82424,-4.865497 0.255008,-0.430649 1.222668,-0.533699 1.517335,-0.161585 0.366452,0.462766 3.808549,8.451048 3.816234,8.856564 0.0037,0.190437 -0.333783,0.433431 -0.749765,0.53999 -0.747793,0.191561 -0.778947,0.142232 -2.759564,-4.369472 z"
         id="path962"
         inkscape:connector-curvature="0" />
      <path
         style="fill:#ffffff;fill-opacity:1;stroke-width:0.285387"
         d="m 59.345213,64.665833 c -1.07765,-2.472166 -1.930748,-4.630017 -1.895772,-4.79522 0.10205,-0.482084 1.105491,-0.715105 1.474474,-0.342411 0.388859,0.392768 3.880338,8.380233 3.890183,8.899574 0.0036,0.189498 -0.334583,0.43192 -0.751495,0.53872 -0.750053,0.192139 -0.778636,0.146901 -2.71739,-4.300663 z"
         id="path3415"
         inkscape:connector-curvature="0" />
    </g>
    <path
       transform="matrix(0.26458333,0,0,0.26458333,55.533484,50.862145)"
       d="M 72.294922 33.990234 L 70.355469 34.005859 L 70.320312 36.402344 C 70.28539 38.777773 70.283764 38.804551 70.115234 39.353516 C 69.494303 41.376126 68.042444 42.811365 66.037109 43.386719 C 65.573376 43.519758 65.445253 43.522688 60.296875 43.558594 C 55.443383 43.592421 55.005219 43.60564 54.685547 43.710938 C 53.11366 44.228619 51.923704 45.501942 51.525391 47.091797 C 51.395738 47.608935 51.397593 57.067217 51.527344 57.527344 C 51.967031 59.086652 53.336852 60.253964 55.599609 60.998047 C 56.729167 61.36951 57.680514 61.563682 59.289062 61.748047 C 59.724834 61.797937 61.665929 61.719476 62.302734 61.626953 C 65.644045 61.141734 67.982376 59.955534 68.804688 58.326172 C 69.186802 57.569072 69.206092 57.43984 69.236328 55.365234 C 69.251824 54.314692 69.246153 53.384132 69.224609 53.298828 L 69.185547 53.144531 L 64.773438 53.144531 L 60.361328 53.144531 L 60.359375 52.8125 C 60.358619 52.630417 60.343558 52.424899 60.326172 52.355469 C 60.244447 52.027557 59.872841 52.045909 67.402344 52.042969 C 73.855263 52.041041 74.418662 52.03297 74.753906 51.931641 C 75.608291 51.673544 76.264112 51.199329 76.791016 50.460938 C 77.342158 49.688583 78.022349 48.059057 78.396484 46.611328 C 79.005276 44.255575 78.922384 41.713468 78.136719 38.566406 C 77.47399 35.911802 76.353647 34.463958 74.65625 34.070312 C 74.316659 33.991169 73.865947 33.977006 72.294922 33.990234 z M 78.236328 39.619141 C 78.357336 40.158675 78.444422 40.67442 78.517578 41.179688 C 78.441479 40.651185 78.347613 40.115355 78.236328 39.619141 z M 78.537109 41.324219 C 78.590233 41.713781 78.628332 42.096393 78.652344 42.470703 C 78.625148 42.103305 78.591865 41.724318 78.537109 41.324219 z M 78.681641 42.986328 C 78.694017 43.420344 78.69066 43.847606 78.662109 44.269531 C 78.689526 43.816521 78.692349 43.362867 78.681641 42.986328 z M 78.558594 44.216797 C 78.558594 44.216797 78.558594 44.21875 78.558594 44.21875 C 78.569033 44.226853 78.576884 44.248023 78.580078 44.283203 C 78.576776 44.246635 78.569251 44.227004 78.558594 44.21875 C 78.547937 44.210496 78.5344 44.213025 78.515625 44.224609 C 78.534371 44.213034 78.547925 44.209347 78.558594 44.216797 z M 78.646484 44.414062 C 78.619658 44.75341 78.581059 45.091698 78.527344 45.427734 C 78.574968 45.214723 78.616587 44.837261 78.646484 44.414062 z M 78.558594 44.751953 C 78.536054 45.030374 78.505746 45.353037 78.490234 45.482422 L 78.458984 45.734375 L 78.492188 45.605469 C 78.476771 45.693986 78.458704 45.782604 78.441406 45.871094 C 78.439365 45.772004 78.433191 45.771893 78.394531 45.923828 C 78.367886 46.027879 78.346353 46.169003 78.345703 46.238281 C 78.345213 46.291778 78.350363 46.308883 78.359375 46.298828 C 78.344309 46.364455 78.326651 46.430393 78.310547 46.496094 C 78.309742 46.477642 78.319812 46.465638 78.3125 46.447266 C 78.292544 46.39696 78.276525 46.41293 78.273438 46.486328 C 78.271551 46.53379 78.285081 46.537746 78.296875 46.544922 C 78.282179 46.603958 78.263583 46.663534 78.248047 46.722656 C 78.246052 46.713504 78.251555 46.70801 78.248047 46.699219 C 78.228091 46.648913 78.214025 46.664883 78.210938 46.738281 C 78.209419 46.776472 78.222575 46.771751 78.230469 46.785156 C 78.198275 46.90545 78.166534 47.025685 78.130859 47.146484 C 78.127246 47.105705 78.110651 47.114177 78.080078 47.185547 C 78.050447 47.254901 78.025391 47.354168 78.025391 47.40625 C 78.025391 47.448986 78.03836 47.440997 78.056641 47.412109 C 78.000446 47.590315 77.930943 47.773132 77.867188 47.953125 C 77.856302 47.952423 77.849684 47.939276 77.828125 47.972656 C 77.794601 48.0247 77.765625 48.096088 77.765625 48.130859 C 77.765625 48.156096 77.789785 48.129436 77.810547 48.107422 C 77.768681 48.222114 77.73243 48.335528 77.6875 48.451172 C 77.679602 48.43792 77.665842 48.434495 77.638672 48.476562 C 77.605147 48.528607 77.576172 48.599994 77.576172 48.634766 C 77.576172 48.663048 77.602108 48.639806 77.626953 48.609375 C 77.599743 48.677868 77.581801 48.707518 77.556641 48.769531 C 77.547206 48.76176 77.536733 48.754239 77.511719 48.792969 C 77.478194 48.845013 77.451172 48.9164 77.451172 48.951172 C 77.451172 48.972308 77.472792 48.944122 77.488281 48.931641 C 77.444457 49.036616 77.397469 49.141412 77.357422 49.230469 C 77.334211 49.245856 77.224533 49.430987 77.085938 49.697266 C 76.974698 49.910824 76.963351 49.958184 76.958984 49.990234 C 76.885839 50.109071 76.829636 50.223959 76.736328 50.359375 C 76.713075 50.393122 76.685729 50.416663 76.662109 50.449219 C 76.637071 50.464604 76.495369 50.619455 76.316406 50.826172 C 76.192458 50.969339 76.215517 50.959376 76.207031 50.982422 C 76.114199 51.072826 76.015356 51.151686 75.916016 51.228516 C 75.942102 51.181886 75.933271 51.180046 75.861328 51.238281 C 75.825381 51.267386 75.688576 51.34548 75.572266 51.414062 C 76.052803 51.120901 76.613123 50.536949 76.935547 49.970703 C 77.74363 48.551614 78.433144 46.333024 78.558594 44.751953 z M 76.619141 50.501953 C 76.498398 50.663334 76.375981 50.819173 76.244141 50.951172 C 76.409773 50.777598 76.585317 50.570641 76.619141 50.501953 z M 75.867188 51.269531 C 75.81215 51.310388 75.756438 51.351727 75.699219 51.388672 C 75.765139 51.343894 75.84007 51.297354 75.867188 51.269531 z M 75.419922 51.507812 C 75.268134 51.591947 75.202673 51.641109 75.191406 51.662109 C 75.071623 51.711511 74.937992 51.742202 74.808594 51.779297 C 74.782599 51.773004 74.756167 51.76281 74.724609 51.775391 C 74.689792 51.789464 74.697195 51.799959 74.722656 51.806641 C 74.662907 51.822251 74.610729 51.84618 74.548828 51.859375 C 74.53905 51.861459 74.516096 51.863238 74.505859 51.865234 C 74.548426 51.86024 74.596383 51.852649 74.564453 51.839844 C 74.521102 51.822458 74.449601 51.822458 74.40625 51.839844 C 74.369545 51.854232 74.413214 51.863596 74.472656 51.867188 C 74.030864 51.947071 73.083802 51.955062 67.191406 51.929688 C 62.36202 51.908711 60.28545 51.919591 60.238281 51.966797 C 60.285026 51.91925 62.412347 51.903416 67.253906 51.912109 C 71.075334 51.91929 72.757034 51.91406 70.992188 51.902344 L 68.074219 51.882812 L 71.023438 51.882812 C 74.53173 51.881804 74.728165 51.866716 75.419922 51.507812 z M 60.173828 52.564453 C 60.174879 52.686394 60.179108 52.809058 60.189453 52.912109 C 60.200451 53.021669 60.216857 53.107587 60.238281 53.150391 C 60.238281 53.150391 60.236328 53.148438 60.236328 53.148438 C 60.215236 53.109047 60.200045 53.020911 60.189453 52.912109 C 60.179491 52.809777 60.174566 52.686873 60.173828 52.564453 z M 68.943359 53.238281 L 69.09375 53.238281 L 69.09375 53.285156 C 69.091564 53.280385 69.067238 53.279609 69.0625 53.275391 L 69.076172 55.210938 L 69.083984 56.166016 C 69.078941 56.677656 69.070307 57.161051 69.039062 57.355469 C 69.040321 57.333064 69.052339 57.316511 69.042969 57.292969 C 69.023013 57.242663 69.006994 57.258633 69.003906 57.332031 C 69.001521 57.39204 69.015572 57.414979 69.033203 57.40625 C 69.019056 57.483396 68.998193 57.56101 68.976562 57.634766 C 68.984625 57.608471 68.991894 57.580377 68.978516 57.546875 C 68.971135 57.528269 68.964667 57.528431 68.958984 57.527344 C 68.959875 57.523936 68.96201 57.52099 68.962891 57.517578 C 69.043584 57.205075 69.0625 56.757759 69.0625 55.201172 L 69.0625 53.275391 C 69.061066 53.274114 69.054413 53.274664 69.052734 53.273438 L 69.0625 53.273438 L 69.0625 53.269531 L 69.041016 53.269531 C 69.0204 53.257472 68.994172 53.24533 68.943359 53.238281 z M 67.958984 53.244141 L 68.322266 53.253906 L 68.951172 53.269531 L 68.132812 53.277344 C 67.621257 53.280745 66.861495 53.301542 66.445312 53.324219 L 65.689453 53.365234 L 66.351562 53.328125 C 66.71572 53.308358 65.503784 53.287297 63.658203 53.28125 C 62.668004 53.277838 62.381173 53.269238 61.886719 53.263672 C 62.536621 53.266613 63.099261 53.270155 64.701172 53.261719 L 67.958984 53.244141 z M 62.970703 53.279297 C 63.652198 53.27126 64.338576 53.473235 64.941406 53.898438 C 64.941855 53.898754 64.942911 53.898121 64.943359 53.898438 C 65.101188 54.009874 65.256289 54.132025 65.400391 54.275391 C 67.123413 55.989626 66.682008 58.844653 64.525391 59.9375 C 62.469062 60.979503 60.19872 59.665103 59.662109 57.675781 C 59.504907 57.093001 59.48873 56.455701 59.679688 55.798828 C 60.13993 54.21565 61.536597 53.29621 62.970703 53.279297 z M 59.662109 57.675781 C 60.117503 57.349536 60.0693 57.378388 60.566406 57.023438 L 64.941406 53.898438 L 60.566406 57.021484 C 60.06879 57.376799 60.117917 57.349241 59.662109 57.675781 z M 68.943359 57.572266 C 68.942888 57.577955 68.941686 57.57733 68.941406 57.583984 C 68.939129 57.64127 68.954373 57.658794 68.970703 57.654297 C 68.962864 57.680501 68.958125 57.704088 68.949219 57.732422 C 68.920123 57.824993 68.870998 57.910238 68.833984 58 C 68.808999 58.019101 68.761796 58.08786 68.697266 58.220703 C 68.62796 58.36302 68.592427 58.461631 68.597656 58.480469 C 68.53515 58.58336 68.464604 58.682687 68.390625 58.78125 L 68.212891 58.976562 C 68.086439 59.115301 67.864224 59.337891 67.71875 59.470703 L 67.556641 59.621094 C 67.479088 59.681941 67.397677 59.740339 67.314453 59.798828 C 67.28915 59.803611 67.282997 59.793155 67.185547 59.857422 C 67.044832 59.950258 66.939948 60.030204 66.929688 60.050781 C 66.841145 60.10395 66.746103 60.154175 66.652344 60.205078 C 66.438687 60.296097 66.089281 60.453842 66.041016 60.498047 C 66.036888 60.501962 66.047588 60.500724 66.046875 60.503906 C 65.968542 60.5386 65.887856 60.57209 65.806641 60.605469 C 65.792959 60.60497 65.768929 60.608285 65.720703 60.621094 C 65.634001 60.644338 65.520756 60.688577 65.46875 60.720703 C 65.425332 60.747403 65.432628 60.753837 65.464844 60.75 C 65.232781 60.83568 64.9796 60.910619 64.726562 60.986328 C 64.700295 60.978252 64.670473 60.968965 64.636719 60.982422 C 64.599432 60.997494 64.608962 61.00725 64.640625 61.013672 C 64.577238 61.032168 64.521696 61.054393 64.457031 61.072266 C 64.496442 61.050429 64.505815 61.035156 64.458984 61.035156 C 64.406978 61.035156 64.307636 61.059985 64.238281 61.089844 C 64.175686 61.116862 64.167964 61.130254 64.191406 61.136719 C 64.138967 61.150203 64.082528 61.160737 64.029297 61.173828 C 64.003176 61.166963 63.975644 61.159004 63.943359 61.171875 C 63.914383 61.183587 63.912749 61.192381 63.925781 61.199219 C 63.873886 61.211617 63.822162 61.224299 63.769531 61.236328 C 63.725887 61.222615 63.663187 61.22023 63.623047 61.236328 C 63.593415 61.247954 63.642518 61.252289 63.677734 61.257812 C 63.588831 61.277603 63.506973 61.301566 63.416016 61.320312 C 63.445111 61.314618 63.49437 61.309886 63.466797 61.298828 C 63.425586 61.282301 63.360079 61.283933 63.316406 61.298828 C 63.733299 61.215531 64.147963 61.117537 64.558594 61.001953 C 67.0159 60.310279 68.511633 59.137112 68.943359 57.572266 z M 53.242188 59.699219 C 53.415706 59.829969 53.599689 59.949228 53.787109 60.064453 C 53.594264 59.949186 53.412981 59.830268 53.25 59.707031 C 53.246931 59.70471 53.245246 59.70154 53.242188 59.699219 z M 54.167969 60.277344 C 54.206464 60.297915 54.245877 60.317776 54.285156 60.337891 C 54.24528 60.31785 54.20696 60.297711 54.167969 60.277344 z M 66.457031 60.316406 C 66.400506 60.344999 66.347325 60.374525 66.289062 60.402344 C 66.359321 60.369169 66.376822 60.357846 66.457031 60.316406 z M 55.542969 60.763672 C 55.606972 60.801006 55.713856 60.851255 55.921875 60.919922 C 55.702189 60.847072 55.603881 60.8008 55.542969 60.763672 z M 56.257812 61.019531 C 57.265296 61.321702 58.327754 61.520626 59.351562 61.585938 C 60.618735 61.666761 61.972755 61.567562 63.310547 61.300781 C 63.277029 61.315401 63.313099 61.325614 63.378906 61.328125 C 63.359792 61.332021 63.343423 61.337947 63.324219 61.341797 C 63.257342 61.355207 63.193226 61.361393 63.121094 61.375 C 63.125543 61.369929 63.166647 61.369801 63.150391 61.363281 C 63.107039 61.345895 63.035539 61.345895 62.992188 61.363281 C 62.960335 61.375767 63.008559 61.381612 63.050781 61.386719 C 62.964023 61.402777 62.899602 61.410269 62.810547 61.425781 C 62.767912 61.415871 62.714128 61.411186 62.677734 61.425781 C 62.656059 61.434285 62.702515 61.435595 62.716797 61.441406 C 62.606999 61.460091 62.523648 61.473941 62.419922 61.490234 C 62.37438 61.481538 62.318227 61.47568 62.269531 61.488281 C 62.228617 61.498869 62.242613 61.507906 62.279297 61.513672 C 62.119935 61.537573 61.903224 61.58022 61.796875 61.591797 C 61.647162 61.607979 61.391429 61.602004 61.197266 61.611328 C 61.050915 61.597627 60.796629 61.5981 60.630859 61.611328 C 60.529709 61.619629 60.702714 61.620788 60.792969 61.625 C 60.39996 61.633899 60.096021 61.637922 59.693359 61.625 C 59.758488 61.620503 59.912953 61.618617 59.841797 61.611328 C 59.745682 61.601135 59.59853 61.606543 59.466797 61.611328 C 59.221835 61.600437 58.979417 61.59126 58.78125 61.572266 C 58.865398 61.568781 58.942409 61.563389 58.894531 61.550781 C 58.834248 61.534851 58.721003 61.53371 58.642578 61.548828 C 58.614361 61.554401 58.619991 61.560063 58.623047 61.564453 C 58.581855 61.559766 58.506237 61.559771 58.46875 61.554688 C 58.39773 61.545054 58.33231 61.526143 58.261719 61.515625 C 58.340703 61.513718 58.39681 61.505473 58.359375 61.490234 C 58.316704 61.472172 58.231264 61.472407 58.169922 61.488281 C 58.156612 61.491726 58.164679 61.494868 58.160156 61.498047 C 58.071238 61.484216 57.986553 61.464422 57.898438 61.449219 C 57.95218 61.445111 58.011929 61.440541 57.980469 61.427734 C 57.937798 61.409676 57.852357 61.407954 57.791016 61.423828 L 57.791016 61.425781 C 57.786575 61.426931 57.790552 61.426606 57.787109 61.427734 C 57.707311 61.413386 57.627859 61.400211 57.548828 61.384766 C 57.583141 61.379284 57.630899 61.375047 57.601562 61.363281 C 57.558211 61.345895 57.486711 61.345895 57.443359 61.363281 C 57.364692 61.347356 57.282877 61.3373 57.205078 61.320312 C 57.231697 61.310081 57.100875 61.260798 56.830078 61.189453 C 56.617931 61.13358 56.44621 61.076703 56.257812 61.019531 z M 56.726562 61.210938 C 56.885595 61.249891 57.066859 61.297184 57.132812 61.306641 C 56.995119 61.275904 56.861148 61.244894 56.726562 61.210938 z M 61.732422 61.548828 C 61.653959 61.564324 61.703088 61.577403 61.841797 61.578125 C 61.980619 61.578503 62.044658 61.566655 61.984375 61.550781 C 61.924092 61.534851 61.810847 61.53371 61.732422 61.548828 z "
       style="fill:#ffffff;stroke-width:0.122492"
       id="path1087" />
    <path
       id="path1081"
       d="m 73.800826,61.111018 c 0.0053,-0.04588 0.01243,-0.08655 0.01584,-0.09037 0.01172,-0.01315 0.0029,0.0904 -0.0113,0.132082 -0.0096,0.02813 -0.01104,0.01455 -0.0045,-0.04171 z"
       style="fill:#ffffff;stroke-width:0.016684" />
    <path
       id="path1079"
       d="m 73.742076,61.327908 c -5e-5,-0.0092 0.01003,-0.04296 0.0224,-0.07508 0.01237,-0.03211 0.02272,-0.04713 0.023,-0.03335 2.83e-4,0.01378 -0.0098,0.04755 -0.0224,0.07508 -0.0126,0.02751 -0.02296,0.04255 -0.023,0.03335 z"
       style="fill:#ffffff;stroke-width:0.016684" />
    <path
       id="path1077"
       d="m 73.034359,62.004896 c 0.264842,-0.09846 0.508075,-0.3032 0.63577,-0.535173 0.03788,-0.06882 0.06898,-0.118345 0.0691,-0.110048 7.79e-4,0.05332 -0.139211,0.252746 -0.265805,0.378664 -0.114934,0.114321 -0.17293,0.157474 -0.285309,0.21229 -0.07758,0.03783 -0.163574,0.07284 -0.191102,0.07778 -0.02753,0.0049 -0.01073,-0.0056 0.03734,-0.0235 z"
       style="fill:#ffffff;stroke-width:0.016684" />
    <path
       id="path1075"
       d="m 72.884398,62.042606 c 0.01147,-0.0046 0.03024,-0.0046 0.04171,0 0.01147,0.0046 0.0021,0.0084 -0.02085,0.0084 -0.02294,0 -0.03233,-0.0039 -0.02085,-0.0084 z"
       style="fill:#ffffff;stroke-width:0.016684" />
    <path
       id="path1073"
       d="m 72.767804,62.058526 c 0.02075,-0.004 0.05079,-0.0039 0.06674,3.15e-4 0.01595,0.0042 -10e-4,0.0074 -0.03773,0.0073 -0.0367,-1.91e-4 -0.04976,-0.0035 -0.029,-0.0076 z"
       style="fill:#ffffff;stroke-width:0.016684" />
    <path
       id="path1071"
       d="m 71.716519,62.074516 c 0.176641,-0.0027 0.465692,-0.0027 0.642333,0 0.176642,0.0027 0.03212,0.0049 -0.321167,0.0049 -0.353283,0 -0.497808,-0.0023 -0.321166,-0.0049 z"
       style="fill:#ffffff;stroke-width:0.016684" />
    <path
       transform="matrix(0.26458333,0,0,0.26458333,55.533484,50.862145)"
       d="M 61.275391 24.529297 C 59.833341 24.509972 57.860167 24.567109 57.082031 24.669922 C 53.47078 25.147272 52.055731 25.968642 51.615234 27.845703 C 51.516664 28.26593 51.5 28.630953 51.5 30.539062 L 51.5 32.746094 L 55.914062 32.777344 L 60.328125 32.808594 L 60.328125 33.375 L 60.328125 33.943359 L 53.802734 33.980469 C 46.801541 34.020721 47.066021 34.00814 46.105469 34.341797 C 45.367002 34.598317 44.697086 35.021656 44.128906 35.589844 C 43.126817 36.591933 42.589588 37.895558 42.205078 40.25 C 42.131453 40.70086 42.037366 41.211361 41.996094 41.384766 C 41.897732 41.797928 41.897675 44.175796 41.996094 44.599609 C 42.036346 44.773018 42.14344 45.351112 42.234375 45.882812 C 42.443254 47.104273 42.708667 48.153422 42.964844 48.779297 C 43.725716 50.638254 44.984969 51.726767 46.623047 51.941406 C 46.842887 51.970395 47.746473 51.990864 48.630859 51.986328 L 50.238281 51.978516 L 50.275391 49.517578 C 50.315782 46.746988 50.325933 46.676226 50.808594 45.667969 C 51.146332 44.962452 51.52466 44.452866 52.125 43.894531 C 52.852045 43.21837 53.738281 42.74639 54.724609 42.511719 C 54.998943 42.446371 55.641821 42.390745 56.482422 42.359375 L 56.615234 42.353516 C 57.403388 42.34404 58.219153 42.338328 60.234375 42.335938 C 66.075763 42.329331 65.679655 42.35916 66.728516 41.845703 C 67.478185 41.478703 68.228864 40.727662 68.607422 39.964844 C 69.113357 38.94535 69.087895 39.238577 69.111328 34.039062 C 69.120407 32.037738 69.110703 31.149783 69.091797 30.320312 C 69.105104 31.077485 69.114014 32.054595 69.125 33.533203 L 69.160156 38.294922 L 69.171875 33.753906 C 69.184536 28.922786 69.172474 28.692843 68.876953 27.912109 C 68.417544 26.698499 67.193676 25.607856 65.736328 25.111328 C 65.063958 24.882236 63.917991 24.692631 62.476562 24.574219 C 62.178174 24.549699 61.756074 24.535739 61.275391 24.529297 z M 65.273438 25.0625 C 65.472851 25.111666 65.667149 25.172932 65.857422 25.242188 C 65.667364 25.17276 65.472596 25.111603 65.273438 25.0625 z M 65.998047 25.300781 C 66.138464 25.356211 66.278032 25.414722 66.412109 25.480469 C 66.277719 25.414216 66.138798 25.356585 65.998047 25.300781 z M 56.847656 25.439453 C 57.263794 25.407358 57.68983 25.448911 58.107422 25.570312 C 59.126719 25.866612 60.144482 26.855701 60.484375 27.878906 C 61.079125 29.669552 60.213813 31.649609 58.513672 32.386719 C 56.678454 33.182366 54.614071 32.35553 53.818359 30.505859 C 53.464762 29.68371 53.48645 28.247832 53.865234 27.46875 C 54.439868 26.286703 55.599242 25.535737 56.847656 25.439453 z M 66.554688 25.556641 C 66.685139 25.625392 66.812412 25.697323 66.935547 25.775391 C 66.812814 25.697261 66.684677 25.625505 66.554688 25.556641 z M 67.060547 25.859375 C 67.185184 25.943376 67.306234 26.029944 67.421875 26.123047 C 67.306688 26.030149 67.18463 25.943311 67.060547 25.859375 z M 67.515625 26.203125 C 67.636648 26.305435 67.75195 26.411691 67.861328 26.523438 C 67.752116 26.411971 67.636391 26.305351 67.515625 26.203125 z M 67.9375 26.603516 C 68.035733 26.708566 68.127624 26.817442 68.214844 26.929688 C 68.127426 26.81757 68.035919 26.708617 67.9375 26.603516 z M 68.314453 27.0625 C 68.386024 27.16193 68.453145 27.263006 68.515625 27.367188 C 68.453033 27.263502 68.386106 27.161633 68.314453 27.0625 z M 68.626953 27.5625 C 68.643836 27.594395 68.665629 27.623979 68.681641 27.65625 C 68.743879 27.781712 68.779549 27.876196 68.824219 27.976562 C 68.768254 27.83499 68.699201 27.697963 68.626953 27.5625 z M 68.828125 27.986328 C 68.877872 28.099204 68.925111 28.26622 68.957031 28.40625 C 68.920403 28.261479 68.882509 28.124894 68.828125 27.986328 z M 60.009766 28.710938 L 56.679688 32.619141 L 56.681641 32.619141 L 60.009766 28.710938 z M 69.027344 28.84375 C 69.033395 28.907773 69.04376 28.972061 69.048828 29.046875 C 69.042431 28.977518 69.034986 28.903609 69.027344 28.84375 z M 58.478516 32.65625 C 59.467482 32.676697 60.309357 32.713336 60.349609 32.738281 C 60.349609 32.738281 60.349609 32.740234 60.349609 32.740234 C 60.309373 32.715365 59.467482 32.676659 58.478516 32.65625 z M 55.203125 42.384766 C 55.043198 42.399258 54.87895 42.411425 54.744141 42.435547 C 54.845623 42.414643 55.018973 42.39701 55.203125 42.384766 z M 54.697266 42.445312 C 54.606741 42.462615 54.523064 42.492627 54.4375 42.515625 C 54.472973 42.505222 54.505349 42.486298 54.541016 42.476562 C 54.591093 42.462905 54.649114 42.456332 54.697266 42.445312 z M 53.591797 42.828125 C 53.569141 42.838549 53.552601 42.844591 53.529297 42.855469 C 53.549917 42.845613 53.571062 42.837753 53.591797 42.828125 z M 51.859375 44.029297 C 51.839616 44.049255 51.820247 44.069586 51.800781 44.089844 C 51.820474 44.069651 51.839365 44.049224 51.859375 44.029297 z M 51.208984 44.8125 C 51.163184 44.879052 51.121419 44.948789 51.078125 45.017578 C 51.113604 44.962104 51.134664 44.911515 51.173828 44.853516 C 51.183824 44.838712 51.19883 44.827213 51.208984 44.8125 z M 50.857422 45.390625 C 50.795956 45.505794 50.736557 45.623636 50.681641 45.744141 C 50.733353 45.62877 50.798114 45.500373 50.857422 45.390625 z M 43.095703 48.652344 C 43.080872 48.742939 43.208333 49.04648 43.386719 49.386719 C 43.208355 49.04648 43.080963 48.742939 43.095703 48.652344 z M 43.982422 50.341797 C 44.152667 50.558505 44.334548 50.741447 44.523438 50.910156 C 44.333333 50.742955 44.152427 50.558198 43.982422 50.341797 z M 44.628906 51.007812 C 44.792628 51.143579 44.969568 51.252405 45.150391 51.355469 C 44.967039 51.25205 44.791869 51.140567 44.628906 51.007812 z M 45.384766 51.484375 C 45.603457 51.588031 45.830881 51.679452 46.078125 51.742188 C 46.310809 51.801229 46.566419 51.830765 46.828125 51.855469 C 46.528792 51.833587 46.279585 51.796586 46.078125 51.742188 C 45.864066 51.684387 45.65928 51.613425 45.416016 51.5 C 45.405303 51.495005 45.395403 51.489447 45.384766 51.484375 z "
       style="fill:#ffffff;stroke-width:0.132123"
       id="path1069" />
  </g>
</svg>
