<?xml version="1.0" encoding="UTF-8" standalone="no"?>
<svg
   xmlns:dc="http://purl.org/dc/elements/1.1/"
   xmlns:cc="http://creativecommons.org/ns#"
   xmlns:rdf="http://www.w3.org/1999/02/22-rdf-syntax-ns#"
   xmlns:svg="http://www.w3.org/2000/svg"
   xmlns="http://www.w3.org/2000/svg"
   xmlns:sodipodi="http://sodipodi.sourceforge.net/DTD/sodipodi-0.dtd"
   xmlns:inkscape="http://www.inkscape.org/namespaces/inkscape"
   width="22.83025mm"
   height="22.83025mm"
   viewBox="0 0 22.830249 22.83025"
   version="1.1"
   id="svg8"
   inkscape:version="1.0beta2 (2b71d25, 2019-12-03)"
   sodipodi:docname="asyncapi-python-favicon.svg">
  <defs
     id="defs2" />
  <sodipodi:namedview
     id="base"
     pagecolor="#ffffff"
     bordercolor="#666666"
     borderopacity="1.0"
     inkscape:pageopacity="0.0"
     inkscape:pageshadow="2"
     inkscape:zoom="0.98994949"
     inkscape:cx="141.47322"
     inkscape:cy="207.85134"
     inkscape:document-units="mm"
     inkscape:current-layer="layer1"
     inkscape:document-rotation="0"
     showgrid="false"
     fit-margin-top="1"
     fit-margin-left="1"
     fit-margin-right="1"
     fit-margin-bottom="1"
     inkscape:window-width="1280"
     inkscape:window-height="1035"
     inkscape:window-x="1747"
     inkscape:window-y="23"
     inkscape:window-maximized="0" />
  <metadata
     id="metadata5">
    <rdf:RDF>
      <cc:Work
         rdf:about="">
        <dc:format>image/svg+xml</dc:format>
        <dc:type
           rdf:resource="http://purl.org/dc/dcmitype/StillImage" />
        <dc:title />
      </cc:Work>
    </rdf:RDF>
  </metadata>
  <g
     inkscape:label="Layer 1"
     inkscape:groupmode="layer"
     id="layer1"
     transform="translate(-55.533484,-50.862145)">
    <g
       style="fill:#ffffff"
       id="g4049"
       transform="translate(10.884773,-10.362998)">
      <path
         id="path3415"
         style="fill:#ffffff;fill-opacity:1;stroke-width:0.264583"
         d="m 53.491685,73.011856 c -2.027475,-1.463084 -3.72734,-2.7815 -3.777477,-2.929812 -0.146307,-0.432787 0.544095,-1.092674 1.014499,-0.969661 0.49574,0.129639 7.054115,4.852254 7.307291,5.261901 0.09238,0.149473 -0.06288,0.502609 -0.345017,0.784747 -0.507583,0.507583 -0.551755,0.484997 -4.199296,-2.147175 z m 4.432917,-0.03612 c -2.064485,-1.481688 -3.75361,-2.840537 -3.75361,-3.019665 0,-0.464005 0.723262,-1.00331 1.134107,-0.845654 0.510932,0.196063 7.030297,4.942656 7.227985,5.262522 0.09284,0.150211 -0.06153,0.503435 -0.34304,0.784943 -0.506053,0.506054 -0.554208,0.481418 -4.265442,-2.182146 z"
         inkscape:connector-curvature="0" />
      <path
         inkscape:connector-curvature="0"
         id="path2315"
         style="fill:#ffffff;fill-opacity:1;stroke-width:0.264583"
         d="m 56.054182,62.225141 c -1.03582,0 -1.824024,0.09629 -1.751314,0.21394 0.0016,0.0024 -5.29e-4,0.0057 5.29e-4,0.0083 -0.203954,-0.254408 -2.161373,0.467728 -3.309877,1.225767 -1.109046,0.731993 -2.080011,2.178013 -2.182812,3.236494 -0.07607,-0.163385 -0.132318,-0.09921 -0.144177,0.188619 -0.01148,0.278916 0.05109,0.435187 0.13901,0.347266 0.0056,-0.0056 0.008,-0.01611 0.01291,-0.02273 0.04266,0.193275 0.150215,0.25364 0.343649,0.21549 0.22543,-0.04446 0.497425,-0.09015 0.604613,-0.101285 0.107188,-0.01114 0.365604,-0.429358 0.574643,-0.929659 0.696481,-1.666914 3.400933,-3.059245 5.942272,-3.059245 2.036614,0 5.591389,1.941955 5.591389,3.054594 0,0.533537 0.762487,1.17444 1.198377,1.007173 0.823664,-0.316068 0.25123,-2.028827 -1.108974,-3.319176 -1.077101,-1.021784 -3.75651,-2.208504 -4.134115,-1.830896 -0.03444,0.03444 -0.05871,0.06431 -0.07803,0.09199 0.0024,-0.01998 0.0085,-0.0406 0.0217,-0.06201 0.103167,-0.166923 -0.531622,-0.264583 -1.719791,-0.264583 z m 3.920175,1.148768 c 0.430768,0.207513 0.856694,0.442662 1.199409,0.675926 -0.34114,-0.231404 -0.768805,-0.467288 -1.199409,-0.675926 z m -10.58695,14.195515 c -0.228031,-0.0045 -0.429077,0.120121 -0.518316,0.385506 -0.008,-0.05667 -0.02098,-0.114239 -0.04289,-0.168981 -0.08446,-0.211066 -0.146978,-0.14803 -0.159678,0.160197 -0.01148,0.278916 0.05109,0.435186 0.139009,0.347265 0.0057,-0.0057 0.0084,-0.0164 0.01344,-0.02326 -0.0145,1.323951 1.99077,3.499262 3.918109,4.156852 0.575124,0.196226 1.150326,0.295879 1.300694,0.227375 -0.03899,0.115073 0.914683,0.208257 2.148705,0.208257 1.254106,0 2.215295,-0.104225 2.136304,-0.232027 -2.65e-4,-5.29e-4 -2.17e-4,-0.0011 -5.29e-4,-0.0016 0.18043,0.282913 1.786205,-0.369549 3.042708,-1.237134 1.029086,-0.710559 2.097545,-2.371558 2.097545,-3.261299 0,-0.407154 -0.165393,-0.559657 -0.608229,-0.559657 -0.45683,0 -0.693351,0.234132 -0.94878,0.940512 -0.691594,1.912567 -3.503483,3.204546 -6.459553,2.967259 C 52.917698,81.275746 50.921528,80.052247 50.257115,78.298522 50.081098,77.833924 49.709178,77.57567 49.3874,77.569367 Z m 12.910322,0.917258 c -0.09377,0.373607 -0.397084,0.820491 -0.812352,1.255736 0.400999,-0.453602 0.739947,-0.967256 0.812352,-1.255736 z M 50.1393,78.896476 c 0.04731,0.09486 0.09928,0.187413 0.154511,0.278019 -0.05461,-0.09117 -0.107709,-0.183142 -0.154511,-0.278019 z m -0.807188,0.02532 c 0.137078,0.388329 0.438729,0.832847 0.831474,1.266589 -0.394129,-0.43307 -0.694701,-0.876286 -0.831474,-1.266589 z m 0.976169,0.278019 c 0.823389,1.327906 2.479059,2.189974 4.318082,2.502691 -1.941547,-0.286848 -3.523379,-1.197705 -4.318082,-2.502691 z m 9.685713,1.728576 c -0.323434,0.193553 -0.652274,0.354618 -0.967382,0.461988 -0.149241,0.05085 -0.338656,0.09918 -0.54777,0.144177 0.534757,-0.14637 1.045263,-0.347718 1.515152,-0.606165 z M 52.693148,82.0167 c 0.115721,0.04486 0.229997,0.08463 0.340548,0.114204 0.353536,0.09455 0.647023,0.209786 0.826307,0.313674 -0.17558,-0.08898 -0.447691,-0.192119 -0.777732,-0.288353 -0.126976,-0.03703 -0.257508,-0.08566 -0.389123,-0.139525 z m 3.361034,0.876432 c -0.215799,0 -0.431602,0.01601 -0.595312,0.04754 -0.327422,0.06306 -0.05953,0.114723 0.595312,0.114723 0.654844,0 0.922734,-0.05166 0.595313,-0.114723 -0.163711,-0.03153 -0.379511,-0.04754 -0.595313,-0.04754 z" />
    </g>
  </g>
</svg>
