<?xml version="1.0" encoding="UTF-8" standalone="no"?>
<svg
   xmlns:dc="http://purl.org/dc/elements/1.1/"
   xmlns:cc="http://creativecommons.org/ns#"
   xmlns:rdf="http://www.w3.org/1999/02/22-rdf-syntax-ns#"
   xmlns:svg="http://www.w3.org/2000/svg"
   xmlns="http://www.w3.org/2000/svg"
   xmlns:sodipodi="http://sodipodi.sourceforge.net/DTD/sodipodi-0.dtd"
   xmlns:inkscape="http://www.inkscape.org/namespaces/inkscape"
   sodipodi:docname="asyncapi-python.svg"
   inkscape:version="1.0beta2 (2b71d25, 2019-12-03)"
   id="svg8"
   version="1.1"
   viewBox="0 0 110 60"
   height="60mm"
   width="110mm">
  <defs
     id="defs2" />
  <sodipodi:namedview
     inkscape:window-maximized="0"
     inkscape:window-y="36"
     inkscape:window-x="1437"
     inkscape:window-height="1007"
     inkscape:window-width="1746"
     showgrid="false"
     inkscape:document-rotation="0"
     inkscape:current-layer="layer1"
     inkscape:document-units="mm"
     inkscape:cy="386.0185"
     inkscape:cx="618.53768"
     inkscape:zoom="0.7"
     inkscape:pageshadow="2"
     inkscape:pageopacity="0.0"
     borderopacity="1.0"
     bordercolor="#666666"
     pagecolor="#ffffff"
     id="base" />
  <metadata
     id="metadata5">
    <rdf:RDF>
      <cc:Work
         rdf:about="">
        <dc:format>image/svg+xml</dc:format>
        <dc:type
           rdf:resource="http://purl.org/dc/dcmitype/StillImage" />
        <dc:title></dc:title>
      </cc:Work>
    </rdf:RDF>
  </metadata>
  <g
     id="layer1"
     inkscape:groupmode="layer"
     inkscape:label="Layer 1">
    <g
       transform="translate(-39.941204,-59.54575)"
       id="g4070">
      <g
         id="g4055">
        <g
           id="g4049">
          <path
             id="path3415"
             style="fill:#64b19a;fill-opacity:1;stroke-width:0.264583"
             d="m 53.491685,73.011856 c -2.027475,-1.463084 -3.72734,-2.7815 -3.777477,-2.929812 -0.146307,-0.432787 0.544095,-1.092674 1.014499,-0.969661 0.49574,0.129639 7.054115,4.852254 7.307291,5.261901 0.09238,0.149473 -0.06288,0.502609 -0.345017,0.784747 -0.507583,0.507583 -0.551755,0.484997 -4.199296,-2.147175 z m 4.432917,-0.03612 c -2.064485,-1.481688 -3.75361,-2.840537 -3.75361,-3.019665 0,-0.464005 0.723262,-1.00331 1.134107,-0.845654 0.510932,0.196063 7.030297,4.942656 7.227985,5.262522 0.09284,0.150211 -0.06153,0.503435 -0.34304,0.784943 -0.506053,0.506054 -0.554208,0.481418 -4.265442,-2.182146 z"
             inkscape:connector-curvature="0" />
          <path
             inkscape:connector-curvature="0"
             id="path2315"
             style="fill:#4b77b9;fill-opacity:1;stroke-width:0.264583"
             d="m 56.054182,62.225141 c -1.03582,0 -1.824024,0.09629 -1.751314,0.21394 0.0016,0.0024 -5.29e-4,0.0057 5.29e-4,0.0083 -0.203954,-0.254408 -2.161373,0.467728 -3.309877,1.225767 -1.109046,0.731993 -2.080011,2.178013 -2.182812,3.236494 -0.07607,-0.163385 -0.132318,-0.09921 -0.144177,0.188619 -0.01148,0.278916 0.05109,0.435187 0.13901,0.347266 0.0056,-0.0056 0.008,-0.01611 0.01291,-0.02273 0.04266,0.193275 0.150215,0.25364 0.343649,0.21549 0.22543,-0.04446 0.497425,-0.09015 0.604613,-0.101285 0.107188,-0.01114 0.365604,-0.429358 0.574643,-0.929659 0.696481,-1.666914 3.400933,-3.059245 5.942272,-3.059245 2.036614,0 5.591389,1.941955 5.591389,3.054594 0,0.533537 0.762487,1.17444 1.198377,1.007173 0.823664,-0.316068 0.25123,-2.028827 -1.108974,-3.319176 -1.077101,-1.021784 -3.75651,-2.208504 -4.134115,-1.830896 -0.03444,0.03444 -0.05871,0.06431 -0.07803,0.09199 0.0024,-0.01998 0.0085,-0.0406 0.0217,-0.06201 0.103167,-0.166923 -0.531622,-0.264583 -1.719791,-0.264583 z m 3.920175,1.148768 c 0.430768,0.207513 0.856694,0.442662 1.199409,0.675926 -0.34114,-0.231404 -0.768805,-0.467288 -1.199409,-0.675926 z m -10.58695,14.195515 c -0.228031,-0.0045 -0.429077,0.120121 -0.518316,0.385506 -0.008,-0.05667 -0.02098,-0.114239 -0.04289,-0.168981 -0.08446,-0.211066 -0.146978,-0.14803 -0.159678,0.160197 -0.01148,0.278916 0.05109,0.435186 0.139009,0.347265 0.0057,-0.0057 0.0084,-0.0164 0.01344,-0.02326 -0.0145,1.323951 1.99077,3.499262 3.918109,4.156852 0.575124,0.196226 1.150326,0.295879 1.300694,0.227375 -0.03899,0.115073 0.914683,0.208257 2.148705,0.208257 1.254106,0 2.215295,-0.104225 2.136304,-0.232027 -2.65e-4,-5.29e-4 -2.17e-4,-0.0011 -5.29e-4,-0.0016 0.18043,0.282913 1.786205,-0.369549 3.042708,-1.237134 1.029086,-0.710559 2.097545,-2.371558 2.097545,-3.261299 0,-0.407154 -0.165393,-0.559657 -0.608229,-0.559657 -0.45683,0 -0.693351,0.234132 -0.94878,0.940512 -0.691594,1.912567 -3.503483,3.204546 -6.459553,2.967259 C 52.917698,81.275746 50.921528,80.052247 50.257115,78.298522 50.081098,77.833924 49.709178,77.57567 49.3874,77.569367 Z m 12.910322,0.917258 c -0.09377,0.373607 -0.397084,0.820491 -0.812352,1.255736 0.400999,-0.453602 0.739947,-0.967256 0.812352,-1.255736 z M 50.1393,78.896476 c 0.04731,0.09486 0.09928,0.187413 0.154511,0.278019 -0.05461,-0.09117 -0.107709,-0.183142 -0.154511,-0.278019 z m -0.807188,0.02532 c 0.137078,0.388329 0.438729,0.832847 0.831474,1.266589 -0.394129,-0.43307 -0.694701,-0.876286 -0.831474,-1.266589 z m 0.976169,0.278019 c 0.823389,1.327906 2.479059,2.189974 4.318082,2.502691 -1.941547,-0.286848 -3.523379,-1.197705 -4.318082,-2.502691 z m 9.685713,1.728576 c -0.323434,0.193553 -0.652274,0.354618 -0.967382,0.461988 -0.149241,0.05085 -0.338656,0.09918 -0.54777,0.144177 0.534757,-0.14637 1.045263,-0.347718 1.515152,-0.606165 z M 52.693148,82.0167 c 0.115721,0.04486 0.229997,0.08463 0.340548,0.114204 0.353536,0.09455 0.647023,0.209786 0.826307,0.313674 -0.17558,-0.08898 -0.447691,-0.192119 -0.777732,-0.288353 -0.126976,-0.03703 -0.257508,-0.08566 -0.389123,-0.139525 z m 3.361034,0.876432 c -0.215799,0 -0.431602,0.01601 -0.595312,0.04754 -0.327422,0.06306 -0.05953,0.114723 0.595312,0.114723 0.654844,0 0.922734,-0.05166 0.595313,-0.114723 -0.163711,-0.03153 -0.379511,-0.04754 -0.595313,-0.04754 z" />
        </g>
        <path
           d="m 130.81758,65.389807 c -1.0366,-0.0122 -1.88786,0.06966 -2.13269,0.272851 -0.33379,0.277014 -0.39946,1.275194 -0.39946,6.06733 0,4.218353 0.0868,5.822352 0.32866,6.064229 0.18088,0.180874 0.62736,0.293777 0.99219,0.251148 0.63785,-0.07454 0.66861,-0.163833 0.79582,-2.326474 l 0.13229,-2.248958 2.12184,-0.138494 c 3.29904,-0.215317 4.91921,-1.446061 4.95421,-3.763076 0.0233,-1.544224 -0.69336,-2.771428 -2.02003,-3.459736 -0.80351,-0.416883 -3.04516,-0.698508 -4.77283,-0.71882 z m -9.02891,0.02066 c -0.57328,-0.01984 -1.20721,0.10482 -1.40456,0.342614 -0.44587,0.537252 -4.29177,11.832944 -4.12223,12.107272 0.22025,0.356378 1.59956,0.290365 1.90221,-0.09095 0.14438,-0.181901 0.40311,-0.76631 0.57464,-1.299147 0.38095,-1.183436 0.61265,-1.280541 3.0701,-1.280541 2.10944,0 2.12812,0.01164 2.77812,1.719792 0.34159,0.89766 0.53307,1.071102 1.25884,1.141532 0.52787,0.05123 0.90657,-0.05016 0.98857,-0.264584 0.17162,-0.448773 -3.76925,-11.911885 -4.18631,-12.177032 -0.19324,-0.122854 -0.51541,-0.18705 -0.85938,-0.198956 z m 18.75854,0.05168 c -0.24298,0.0049 -0.53395,0.03491 -0.81855,0.0925 l -0.59531,0.120406 v 6.036326 c 0,3.319952 0.0792,6.115529 0.17622,6.212538 0.25379,0.253799 1.67586,0.217842 1.67586,-0.04237 0,-0.120322 -0.35958,-0.165767 -0.79892,-0.101285 l -0.79891,0.116787 5.3e-4,-0.02532 0.73225,-0.08423 0.73277,-0.08423 v -5.953125 -5.953125 h -0.66146 -0.66146 l 0.71727,-0.01188 c 0.39471,-0.0067 0.7817,-0.07628 0.8599,-0.154514 0.1158,-0.115805 -0.1552,-0.176628 -0.56017,-0.168463 z m -9.46453,0.209288 c 0.58331,-0.0035 1.21331,0.02286 1.81332,0.07545 l -1.449,-0.03204 c -1.10152,-0.02434 -1.88569,0.02252 -2.29599,0.13436 -0.0336,0.0092 -0.0567,0.01995 -0.0853,0.02997 0.0282,-0.01005 0.0525,-0.02064 0.0853,-0.02997 0.39579,-0.112707 1.11449,-0.172825 1.93167,-0.177768 z m 2.22002,0.118856 c 0.37491,0.04247 0.73564,0.09284 1.04489,0.159163 0.17916,0.03842 0.35813,0.09181 0.53434,0.158131 -0.0836,-0.02066 -0.16885,-0.03899 -0.25632,-0.05323 l -0.91622,-0.149347 1.00976,0.383958 c 0.21763,0.08273 0.41033,0.17008 0.59273,0.259932 -0.83882,-0.328358 -2.00634,-0.474382 -3.58687,-0.479041 l -2.77812,-0.0083 2.38125,-0.148312 z m -58.261045,0.0067 -1.947169,5.688541 c -1.07089,3.128698 -1.950069,5.905384 -1.953368,6.170166 -0.0043,0.343656 0.15658,0.457226 0.562239,0.396875 0.611037,-0.09091 0.792745,-0.334375 1.396296,-1.870687 l 0.389642,-0.992187 h 2.626196 2.626196 l 0.498678,1.389062 c 0.376037,1.048158 0.643837,1.410013 1.091407,1.473812 0.440145,0.06274 0.593243,-0.04805 0.593243,-0.429948 0,-0.283054 -0.878763,-3.05974 -1.952852,-6.170166 l -1.95285,-5.655468 h -0.98909 z m 45.438565,0 -1.12551,3.284553 c -0.6189,1.806448 -1.07768,3.331885 -1.01958,3.389974 0.0311,0.03105 0.2073,-0.388601 0.45321,-1.049031 -0.057,0.165206 -0.0911,0.268182 -0.14935,0.436666 -1.93171,5.591585 -1.96003,5.711796 -1.35702,5.711796 h -0.60978 l 0.51573,-1.498616 c 0.28358,-0.824243 0.46886,-1.544939 0.41186,-1.60197 -0.0242,-0.02421 -0.0959,0.101957 -0.18604,0.298691 0.3039,-0.936665 0.6507,-1.982076 1.05472,-3.15123 z m 0.18552,0.10387 0.94516,0.0801 0.94517,0.08062 0.97306,2.92282 -1.00252,-2.92282 -0.95705,-0.08217 c -0.45932,-0.03941 -0.84534,-0.02961 -0.93637,0.01913 z m 1.98386,0.08113 c 0,0 5.3e-4,0 5.3e-4,0 7.9e-4,0.0011 0.004,0.008 0.005,0.0093 -0.001,-0.0016 -0.004,-0.0078 -0.005,-0.0093 z m -47.413127,0.07958 h 0.79375 0.79375 l 1.895494,5.423958 c 0.421963,1.207408 0.794938,2.310279 1.113626,3.271637 -0.18913,-0.497544 -0.350078,-0.859153 -0.393258,-0.815973 -0.05703,0.05703 0.134397,0.796288 0.425815,1.643312 0.291417,0.847021 0.530198,1.660649 0.530198,1.807641 0,0.189296 -0.05242,0.221768 -0.137975,0.132807 0.01423,-0.01027 0.02839,-0.02114 0.04444,-0.03721 0.08071,-0.08071 -0.601745,-2.312043 -1.536341,-5.060156 0.0937,0.214553 0.167987,0.343609 0.196371,0.315224 0.06173,-0.06173 -0.394475,-1.590244 -1.013375,-3.396692 -1.104199,-3.222937 -1.139862,-3.284553 -1.918748,-3.284553 -0.65161,0 -0.78659,0.05691 -1.650544,2.506308 z m 0.967902,0.150379 c 0.46881,0.08534 0.755946,0.505674 0.747757,1.128096 -2.03e-4,0.01556 -0.004,0.02117 -0.0052,0.03411 C 76.66893,66.7391 76.430691,66.34314 76.204383,66.211976 Z m -0.358119,0.0041 c -0.414941,0.250505 -0.86796,1.377638 -1.546159,3.324863 0.885492,-2.617862 1.161256,-3.219384 1.546159,-3.324863 z m 56.549004,1.066086 c 0.56249,-0.0059 1.11385,0.02835 1.36942,0.0925 1.69136,0.424505 2.26609,2.54101 0.96739,3.562575 -0.54025,0.424957 -1.07798,0.548285 -2.38952,0.548285 -1.97416,0 -2.00029,-0.03287 -1.88826,-2.409155 l 0.0801,-1.691887 1.30535,-0.08268 c 0.17949,-0.01135 0.36802,-0.01765 0.55552,-0.01963 z m -56.732971,0.0062 c -0.286089,0.367445 -0.625745,1.157039 -1.135849,2.610694 -0.111839,0.318712 -0.207343,0.602107 -0.299206,0.877983 0.09157,-0.276344 0.188145,-0.562406 0.299206,-0.879017 0.547894,-1.561918 0.848217,-2.281513 1.135849,-2.60966 z m 0.489376,0.0217 c 0.02056,-5.29e-4 0.04048,0.0027 0.06046,0.0067 -0.0953,-0.0081 -0.203181,0.02961 -0.309022,0.09922 0.08876,-0.06066 0.172347,-0.103516 0.248563,-0.105936 z m 60.516195,0.02376 c 0.37635,0.424514 0.62404,0.888564 0.6532,1.316718 0.011,0.160721 0.0138,0.314926 0.0145,0.466638 -0.0672,-0.639795 -0.29528,-1.263563 -0.66766,-1.783356 z m -15.06212,0.01085 c 0.0534,0.0056 0.10662,0.02635 0.16071,0.06305 -0.0541,-0.03669 -0.10728,-0.05741 -0.16071,-0.06305 z m -45.778603,0.123508 c -0.252558,0.22375 -0.789339,1.640975 -1.240234,3.075263 0.449286,-1.44031 0.982318,-2.86357 1.223698,-3.063894 0.0059,-0.0049 0.01074,-0.0067 0.01654,-0.01138 z m 1.228865,0.153995 c 0.07967,0.05248 0.248587,0.45466 0.405144,0.977202 0.03322,0.110879 0.0602,0.215283 0.08733,0.31936 -0.178329,-0.493916 -0.343466,-0.936141 -0.492477,-1.296562 z m -0.512114,0.02273 c 0.120121,0.211675 0.247306,0.532834 0.395841,0.988568 -0.150032,-0.417647 -0.287375,-0.768506 -0.395841,-0.988568 z m -0.464055,0.203605 c 0.369115,-0.117774 2.050155,5.070747 1.829347,5.646166 -0.210155,0.547663 -3.557,0.525179 -3.768246,-0.02532 -0.195461,-0.50936 1.521839,-5.487776 1.938899,-5.620846 z m 65.063727,0.160713 c -0.026,0.06376 -0.0438,1.472054 -0.0439,3.873148 -2e-4,3.4925 0.0371,4.958173 0.0832,3.256648 0.046,-1.701525 0.0458,-4.559022 0,-6.35 -0.0143,-0.559679 -0.0274,-0.808778 -0.0393,-0.779796 z m -19.57245,0.301273 c 0.34791,0 1.68724,3.72867 1.68724,4.697389 0,0.55046 -0.11797,0.594278 -1.59577,0.594278 -1.14312,0 -1.63753,-0.10754 -1.74201,-0.379823 -0.20652,-0.538168 1.26318,-4.911844 1.65054,-4.911844 z m 15.40888,0.125058 c 0.001,0.0049 0.003,0.0091 0.005,0.01394 0.23535,0.852376 0.2019,1.593114 -0.10594,2.247407 0.12676,-0.344204 0.19663,-0.728101 0.20309,-1.154451 0.006,-0.412448 -0.029,-0.777404 -0.1018,-1.106908 z m -34.33795,0.387056 c -0.45662,0.0218 -0.90655,0.164103 -1.30897,0.445966 -0.49127,0.344096 -0.7417,0.369242 -1.26969,0.128675 -0.361637,-0.164769 -0.767651,-0.23151 -0.902269,-0.14831 -0.28235,0.174501 -0.338166,8.404969 -0.05891,8.684223 0.102045,0.102016 0.369935,0.150458 0.595313,0.107487 0.333226,-0.06353 0.435926,-0.67089 0.550356,-3.250446 0.0774,-1.744694 0.2401,-3.383967 0.36173,-3.642672 0.30693,-0.652835 1.01865,-0.984954 2.11099,-0.984954 1.49294,0 1.75234,0.630672 1.75234,4.260205 0,2.418318 0.0857,3.15441 0.39688,3.412712 0.31664,0.262782 0.47712,0.262782 0.79375,0 0.46177,-0.383233 0.55471,-4.685339 0.14004,-6.482292 -0.36427,-1.578533 -1.7917,-2.596022 -3.16156,-2.530594 z m 8.54624,0.0181 c -2.22313,0.0021 -3.78775,1.939666 -3.79925,4.704104 -0.009,2.156864 0.95742,3.915904 2.50786,4.565097 0.84486,0.353758 2.47567,0.288136 3.28869,-0.132292 1.05572,-0.545936 2.17756,-1.960287 2.08256,-2.62568 -0.12407,-0.86918 -0.94253,-0.668793 -1.49758,0.366903 -0.70592,1.317194 -2.02945,1.79727 -3.29696,1.195792 -1.15065,-0.546015 -1.7673,-1.76371 -1.7663,-3.484541 0.002,-2.355326 1.57324,-3.930475 3.23494,-3.24218 0.41667,0.17259 0.93361,0.654155 1.14877,1.070221 0.4275,0.826698 1.09605,0.996619 1.34721,0.342095 0.42688,-1.112432 -1.51488,-2.76122 -3.24994,-2.759519 z m -26.031482,0.02376 c -0.998538,-0.01458 -2.000446,0.347875 -2.542479,1.175124 -1.102003,1.681866 -0.201779,3.269178 2.252575,3.972882 0.815192,0.233731 1.74997,0.59694 2.077392,0.807186 1.302403,0.836313 0.302966,2.294435 -1.572514,2.294435 -0.965822,0 -1.237994,-0.1368 -1.979205,-0.994254 -0.554122,-0.641027 -1.004142,-0.938906 -1.26659,-0.838192 -0.844931,0.324228 -0.164785,1.696439 1.276924,2.575552 2.157315,1.315468 5.459614,-0.0044 5.459614,-2.182297 0,-1.13834 -0.995013,-2.020845 -3.014284,-2.673736 -2.214946,-0.716158 -2.812709,-1.387763 -2.061374,-2.315623 0.711118,-0.878191 2.07374,-0.832236 2.812748,0.09457 0.618154,0.775237 1.46916,0.944099 1.46916,0.291457 0,-1.358935 -1.452565,-2.185795 -2.911967,-2.207102 z m 26.059912,0.216009 c 0.44688,0.0064 0.89685,0.116411 1.32601,0.325562 0.16452,0.08017 0.32647,0.172032 0.48318,0.283186 -0.1582,-0.110342 -0.32417,-0.199917 -0.49299,-0.279053 l -0.26614,0.10387 c -0.14503,-0.06184 -0.27558,-0.09731 -0.38602,-0.104905 0.0495,-0.0062 0.0946,-0.0092 0.13281,-0.0088 l 0.51056,0.0057 c -0.69048,-0.321177 -1.45136,-0.386635 -2.15852,-0.211875 0.27791,-0.07614 0.56305,-0.117806 0.85111,-0.113685 z m 1.30741,0.325562 c 0.003,0.0013 0.006,0.0028 0.009,0.0041 l 0.01,-0.0041 z M 84.886531,69.121826 c -0.0079,7.94e-4 -0.01585,0.0013 -0.02376,0.0021 0.0079,-7.94e-4 0.01585,-0.0013 0.02376,-0.0021 z m 18.428329,0.02635 c 0.4959,0.0871 0.9622,0.319809 1.36943,0.700214 0.004,0.0038 0.008,0.008 0.0119,0.01188 -0.41723,-0.385585 -0.88567,-0.62285 -1.38131,-0.7121 z m -12.551168,0.01394 c -0.122452,-0.01384 -0.273585,0.06359 -0.457854,0.216525 -0.464608,0.385587 -0.543184,5.098163 -0.111104,6.653858 0.534443,1.92424 2.967382,3.006336 4.371827,1.944065 0.282475,-0.213651 0.66249,-0.392274 0.844391,-0.396875 0.452702,-0.01151 0.416309,1.175335 -0.06459,2.1053 -1.066808,2.062978 -3.26708,2.145229 -4.935098,0.185 -0.597538,-0.70222 -0.760669,-0.771356 -1.117246,-0.475422 -0.367665,0.305133 -0.372684,0.433604 -0.04134,1.074354 0.437478,0.845984 1.508985,1.609616 2.646868,1.886188 1.590675,0.386627 3.448082,-0.316505 4.475697,-1.693953 0.522991,-0.701029 0.557069,-1.070816 0.557069,-6.085416 0,-5.162645 -0.01749,-5.33921 -0.529166,-5.33921 -0.492419,0 -0.538351,0.220485 -0.661458,3.175 -0.145529,3.492775 -0.380514,4.16959 -1.592149,4.591968 -2.059612,0.717984 -2.905768,-0.689361 -2.905768,-4.832262 0,-2.105274 -0.112713,-2.967617 -0.480073,-3.00912 z m 19.394168,0.0925 c -0.006,0.0021 -0.0128,0.0041 -0.0191,0.0062 0.006,-0.0024 0.0128,-0.004 0.0191,-0.0062 z m -13.75472,0.114205 c -0.204759,0 -0.308602,0.198445 -0.358632,0.942062 0.04849,-0.742508 0.151926,-0.942062 0.358632,-0.942062 z m -10.467578,0.0186 c 0.202337,0.0091 0.247779,0.04528 0.138493,0.11834 -0.121885,-0.05075 -0.237376,-0.08848 -0.338481,-0.104386 0.07201,-0.01029 0.140599,-0.01662 0.199988,-0.01394 z m 24.666708,0.0062 c 0.16901,0.02779 0.0666,0.123074 -0.29404,0.267169 0.25048,-0.127858 0.37004,-0.231709 0.29404,-0.267169 z m -7.34683,0.01601 c 0.40659,0.02188 0.74905,0.107907 0.82062,0.223758 0.0276,0.0447 0.0471,0.08033 0.0615,0.111104 -0.27979,-0.206079 -0.54773,-0.305883 -0.88211,-0.334862 z m -0.54209,0.0021 c -0.35797,0.02527 -0.47355,0.07814 -0.22479,0.130741 0.29104,0.06155 0.79454,0.168511 1.11931,0.237713 0.009,0.0019 0.0166,0.0052 0.0253,0.0072 -0.18639,-0.03579 -0.42345,-0.08573 -0.74776,-0.153996 l -0.92604,-0.19482 z m -17.338477,0.07493 c 0.06201,0.0367 0.211606,0.08823 0.430982,0.15348 -0.20797,0.08996 -0.315492,0.146915 -0.321945,0.182417 -0.381891,-0.05018 -0.802658,0.009 -1.236617,0.18552 0.364307,-0.216085 0.77217,-0.410109 1.12758,-0.521417 z m 26.123467,0.0083 0.30541,0.05943 c 0.0553,0.01072 0.12094,0.03596 0.19017,0.06718 -0.23965,0.09393 -0.36548,0.14692 -0.35812,0.195852 -0.41731,-0.101616 -0.84187,-0.06796 -1.23558,0.11834 0.0553,-0.03099 0.10989,-0.06268 0.16743,-0.09095 0.29629,-0.145566 0.63594,-0.268809 0.93069,-0.349852 z m -20.982695,0.11679 0.01603,0.296106 -0.0093,0.568441 -0.01138,-0.853696 c 1.43e-4,-5.3e-4 2.65e-4,-5.3e-4 5.29e-4,-0.0011 0.0013,-0.0037 0.0028,-0.0062 0.0041,-0.0098 z m -6.680213,0.0217 c 0.01365,0.01365 -0.06644,0.120906 -0.230992,0.330729 -0.08521,0.108649 -0.168146,0.199845 -0.243914,0.279053 0.04105,-0.06693 0.08492,-0.131714 0.13436,-0.191719 0.405231,-0.491792 0.386218,-0.488673 -0.176733,0.03049 -0.101502,0.0936 -0.190304,0.19871 -0.267685,0.31161 -0.04569,-0.07246 0.113038,-0.261583 0.454235,-0.529167 0.209825,-0.164552 0.317074,-0.244652 0.330729,-0.230994 z m 2.624648,0 c 0.111956,0 0.419997,0.238784 0.684194,0.530717 0.04952,0.05472 0.09105,0.108193 0.13281,0.161232 -0.212632,-0.219872 -0.530201,-0.456422 -0.849561,-0.639239 -0.0053,-0.03358 0.0041,-0.05271 0.03256,-0.05271 z m 26.1953,0.01035 c 0.1166,0.0074 0.39653,0.208042 0.7953,0.632521 0.0625,0.06656 0.11701,0.134173 0.17105,0.201538 -0.27238,-0.283273 -0.65805,-0.578403 -1.02526,-0.790133 0.005,-0.03072 0.0245,-0.0461 0.0589,-0.04393 z m -26.866061,0.245465 c 0.06629,0.01228 0.141213,0.04097 0.222726,0.08371 -0.07182,-0.03317 -0.146465,-0.06028 -0.222726,-0.08371 z m -8.398455,0.09663 c 0.147982,0.357582 0.258824,0.47942 0.329698,0.364837 0.335269,1.086863 0.56207,1.882143 0.679545,2.440678 l -0.08785,0.413927 c -0.167966,0.788983 -0.179295,0.794131 -2.212266,0.870749 1.900256,-0.07169 2.052825,-0.120359 2.132168,-0.679545 0.04703,-0.33142 -0.37878,-1.937895 -0.841293,-3.410646 z m 9.257835,0.07235 c 0.169658,0.128429 0.307284,0.268168 0.376719,0.39791 0.01402,0.02622 0.02975,0.04516 0.04444,0.06924 -0.07721,-0.07352 -0.158338,-0.156488 -0.240811,-0.249079 -0.06878,-0.07722 -0.127135,-0.149342 -0.18035,-0.218075 z m 17.837671,0.39274 c 0.0177,0.03214 0.035,0.06606 0.0517,0.100769 z m 19.80086,5.29e-4 c 0.85074,2.430383 1.75203,5.073065 2.16265,6.387205 -0.014,-0.02114 -0.023,-0.0397 -0.0382,-0.06149 -0.21535,-0.307594 -0.23846,-0.258019 -0.10335,0.220141 0.0457,0.161589 0.0686,0.276672 0.0682,0.362252 -0.0617,-0.211119 -0.60876,-1.828231 -1.32601,-3.929475 0.27009,0.738391 0.45289,1.189913 0.48007,1.162719 0.0705,-0.07052 -0.5546,-2.080326 -1.24333,-4.141348 z m -19.40244,0.01447 c 0.0313,0.03713 0.0587,0.0762 0.0884,0.115756 -0.0293,-0.03822 -0.055,-0.07692 -0.0884,-0.115756 z m -22.239465,0.0098 c -0.03537,0.07102 -0.06793,0.143134 -0.09405,0.218074 -0.152355,0.437044 -0.183126,0.844373 -0.115755,1.20613 -0.127236,-0.494612 -0.03933,-0.989793 0.209806,-1.424204 z m 0.226859,0.01291 c 0.02262,-0.0059 0.04667,0.02 0.07545,0.07235 -0.227656,0.415033 -0.307205,0.905372 -0.23358,1.331701 -0.07746,-0.310735 -0.08912,-0.648454 -0.0078,-0.959631 0.07502,-0.28688 0.118115,-0.431906 0.165881,-0.444418 z m 25.929686,0.02997 c -0.19888,0.229449 -0.37406,0.472631 -0.49816,0.712618 -0.34475,0.666727 -0.44767,2.049338 -0.31936,3.233396 -0.0327,-0.210632 -0.061,-0.430289 -0.0822,-0.660426 l -0.13023,-1.416968 c 0.0443,-0.242022 0.10021,-0.477192 0.17002,-0.69918 0.0522,0.0063 0.21206,-0.212664 0.39843,-0.556556 0.20618,-0.380461 0.36814,-0.574096 0.46147,-0.612884 z m 4.40386,0.09043 c 0.36463,0.40296 0.69042,0.632089 0.75655,0.520382 -0.001,0.0067 2.4e-4,0.01551 -0.002,0.02119 -0.0479,0.117666 -0.37886,-0.12718 -0.75448,-0.54157 z m -26.418022,0.05374 c 0.276556,0.323543 0.544737,0.515421 0.735354,0.544152 -0.215117,-0.0029 -0.509725,-0.184742 -0.721918,-0.524518 -0.0043,-0.0068 -0.0091,-0.01289 -0.01344,-0.01963 z m 18.305862,0.0863 c 0.0172,0.02698 0.0305,0.05297 0.0465,0.0801 -0.0144,-0.02758 -0.0306,-0.05371 -0.0465,-0.0801 z m -17.569474,0.0181 c -3.7e-5,0.01691 -0.0028,0.03119 -0.01138,0.03979 -0.0024,0.0024 -0.0073,0.0016 -0.01035,0.0031 0.0098,-0.01302 0.01791,-0.02706 0.0217,-0.04289 z m -4.194574,0.0052 c -0.02458,0.07015 -0.03913,0.150098 -0.05064,0.232542 0.0028,-0.03615 0.0068,-0.05983 0.0088,-0.108519 0.0016,-0.03756 0.01836,-0.07977 0.04186,-0.124023 z m 21.814168,0.06408 c 0.0994,0.170003 0.17714,0.340601 0.20412,0.478523 0.10407,0.532109 0.11348,0.528767 0.14728,-0.05374 1.4e-4,-0.0024 -5.3e-4,-0.0049 -5.3e-4,-0.0072 0.0801,0.280374 0.14292,0.597958 0.18811,0.960665 l -0.0796,2.511991 c -0.0218,0.690499 -0.0552,1.246817 -0.0951,1.681036 0.015,-0.521658 0.01,-1.219499 -0.016,-2.126486 -0.0628,-2.212858 -0.0907,-2.945765 -0.3483,-3.44475 z m 8.00882,0.05426 c 0.021,0.0272 0.0431,0.05441 0.0625,0.08165 0.31807,0.446672 0.57995,0.697071 0.76223,0.745172 0.0188,0.0049 0.0362,0.0061 0.0532,0.0067 -0.017,-5.29e-4 -0.0345,-0.0019 -0.0532,-0.0067 -0.18032,-0.04621 -0.43767,-0.289856 -0.74827,-0.726054 -0.0249,-0.0349 -0.0509,-0.06726 -0.0765,-0.100769 z m -30.04985,0.03101 c 0.08973,0.220503 0.137507,0.299246 0.160716,0.217559 -0.0099,0.174167 -2.65e-4,0.373025 0.02945,0.610814 0.05528,0.441867 0.404734,0.755669 1.344621,1.123963 -1.024321,-0.384458 -1.333601,-0.659532 -1.35237,-1.06712 -0.01381,-0.299961 -0.06756,-0.336262 -0.159166,-0.107487 -0.014,0.03498 -0.0182,0.07835 -0.01757,0.125058 -0.06238,-0.289846 -0.06376,-0.602959 -0.0057,-0.902787 z m 25.6775,0.111103 c -0.047,0.121836 -0.10485,0.255969 -0.18707,0.414962 -0.0265,0.05122 -0.0484,0.105958 -0.0723,0.159163 0.0741,-0.203364 0.16065,-0.395134 0.25941,-0.574125 z m -3.08921,1.255739 c 0.0972,0.834467 0.11091,1.899211 0.0558,3.297989 -0.0587,1.489565 -0.14733,2.003936 -0.38809,2.097548 0.24904,-0.106132 0.30841,-0.733287 0.31936,-2.891298 z m 29.62713,0.01394 c -0.007,0.0046 -0.0138,0.0094 -0.0212,0.01394 -0.47703,0.294658 -0.64466,0.457612 -0.55862,0.476972 -0.14851,0.04292 -0.30459,0.07971 -0.46612,0.112654 l -1.76682,-0.04547 c -0.85181,-0.02209 -1.50788,0.01558 -1.91151,0.103352 0.4113,-0.09623 1.07582,-0.155546 1.8588,-0.155546 1.17783,0 2.13262,-0.171575 2.86546,-0.505913 z m -52.252626,0.31161 c 0.03599,0.0356 0.07351,0.0696 0.114721,0.09974 0.120566,0.08816 0.217575,0.153162 0.303342,0.207222 -0.0061,-0.0024 -0.0077,-0.0028 -0.01394,-0.0052 -0.151202,-0.05802 -0.287499,-0.163914 -0.404109,-0.301789 z m 0.442349,0.0083 c 0.215289,0.239041 0.313876,0.358085 0.281639,0.381889 -0.01998,-0.0651 -0.114118,-0.193857 -0.281639,-0.381889 z m 40.275577,0.109554 c 0.12436,0.581072 0.11048,0.874487 -0.0181,1.029393 -0.0245,0.02955 -0.0744,0.05691 -0.13487,0.08372 0.22841,-0.198948 0.26354,-0.542552 0.15296,-1.11311 z m -16.0817,0.128675 -0.0145,0.609263 c -0.0309,1.276737 0.20703,2.25969 0.74363,3.026172 -0.11705,-0.162681 -0.22644,-0.332851 -0.31936,-0.517797 -0.40057,-0.797261 -0.53465,-1.997038 -0.4098,-3.117638 z m 0.76584,0.04857 c -0.20079,1.580333 0.35452,3.302254 1.67173,4.099492 -1.36355,-0.813766 -1.91136,-2.516447 -1.67173,-4.099492 z m 25.68474,0.02066 c -0.51047,0.09451 -1.08148,0.143145 -1.71824,0.143145 -0.3854,0 -0.74429,0.0274 -1.06144,0.06718 0.37757,-0.06052 0.82573,-0.110737 1.28933,-0.134361 z m -60.571499,0.281639 c -0.07031,0.612476 0.05325,0.908626 0.354502,1.024226 0.03178,0.0122 0.07363,0.02334 0.121955,0.03411 -0.08927,-0.01482 -0.165204,-0.0311 -0.209807,-0.04909 -0.250886,-0.101235 -0.34299,-0.411258 -0.26665,-1.00924 z m 9.953916,0.0062 c 0.306036,0.127624 0.667443,0.196159 1.072801,0.197919 0.173627,0.06314 0.394163,0.134308 0.638204,0.208772 -0.133929,0.107521 0.09026,0.251907 0.69505,0.482142 -0.219549,-0.08269 -0.449668,-0.165904 -0.712618,-0.252179 -0.777063,-0.254958 -1.310156,-0.447953 -1.693437,-0.636654 z m 3.033922,0.307991 c 0.08208,0.02995 0.15449,0.06141 0.230994,0.09198 -0.07444,-0.03144 -0.152109,-0.06197 -0.230994,-0.09198 z m -8.064106,0.01085 c 0.0088,0.421034 -0.123179,0.600898 -0.379307,0.699182 0.216363,-0.08302 0.346245,-0.329263 0.379307,-0.699182 z m 51.850067,0.04754 c -0.13387,0.371684 -0.21705,1.172051 -0.21705,2.18798 1e-5,-0.0088 0,-0.01183 0,-0.02066 0,-1.095637 0.0739,-1.818902 0.21705,-2.167311 z m -44.224178,0.06305 c 0.470644,0.06248 1.24097,0.402658 1.647447,0.781349 0.0021,0.0019 0.0036,0.0043 0.0057,0.0062 -0.234381,-0.214143 -0.931289,-0.524709 -1.65313,-0.787548 z m 0.748792,0.0036 c 0.880047,0.36384 1.388616,0.775698 1.597835,1.319819 -0.248973,-0.518496 -0.784355,-0.963181 -1.597835,-1.319819 z m -13.979508,0.0021 c -0.628719,1.864019 -1.127464,3.366156 -1.198375,3.633885 -0.03232,-0.03802 -0.07121,-0.07928 -0.09612,-0.112654 -0.02817,-0.03775 -0.05455,-0.06065 -0.07855,-0.06976 0.135371,-0.453966 0.412694,-1.309737 0.756025,-2.348177 -0.02627,0.08669 -0.06884,0.219893 -0.07028,0.235128 -0.05102,0.540414 0.157501,0.141967 0.687295,-1.338419 z m 13.005408,0.170532 c 0.122558,0.03816 0.240038,0.07812 0.352433,0.119372 -0.144799,-0.03933 -0.266795,-0.08015 -0.352433,-0.119372 z m 33.560746,0.131773 c 0.097,0.09702 1.03478,0.176218 2.08411,0.176218 0.064,0 0.10793,-0.0019 0.16898,-0.0021 -1.0202,0.0519 -2.07036,0.0086 -2.25309,-0.174151 z M 86.2172,74.213013 c 0.785183,0.279257 1.189831,0.527952 1.376143,0.857829 -0.236487,-0.304133 -0.683771,-0.576757 -1.376143,-0.857829 z m 10.271207,0.130225 c 0.0078,0.806278 0.0087,1.471218 0.0047,2.075841 0.0034,-0.599527 0.0034,-1.250069 -0.0047,-2.075841 z m -23.468851,0.300757 2.944006,0.07131 c -2.050886,-0.04532 -2.862766,0.02429 -3.016869,0.267169 -0.03012,0.04747 -0.05234,0.09058 -0.07596,0.134358 z m 14.665772,0.148312 c 0.250206,0.269534 0.377333,0.563097 0.376203,0.873332 -0.02949,-0.304766 -0.169584,-0.606759 -0.376203,-0.873332 z m -12.969753,0.165881 c 0.380235,-0.0021 0.853662,0.0069 1.447975,0.02326 l 2.770372,0.07596 h 0.0016 l 0.498679,1.389063 c 0.216603,0.603242 0.508478,1.067054 0.753443,1.290878 C 79.947369,77.5268 79.6571,77.068015 79.433673,76.446472 L 78.933959,75.057409 H 76.03026 73.526538 c 0.245329,-0.06637 0.607049,-0.0961 1.189074,-0.09922 z m 33.696135,0.116789 c 0.13216,0.433163 0.31469,0.841201 0.54622,1.198375 -0.24676,-0.339082 -0.42503,-0.732716 -0.54622,-1.198375 z m 6.48953,0.118857 c 0,0 5.3e-4,0 5.3e-4,0 0.025,0.02498 0.0456,0.05304 0.062,0.08371 -0.0165,-0.03067 -0.0375,-0.05873 -0.0625,-0.08371 z m -0.14366,0.113686 c 0.0158,0.01378 0.0248,0.04316 0.0258,0.08992 -10e-4,-0.04676 -0.0101,-0.07614 -0.0258,-0.08992 z m -18.931147,0.0615 c -0.04634,0.277222 -0.100351,0.491794 -0.162264,0.614431 -0.02588,0.05127 -0.06038,0.102484 -0.09405,0.15348 0.109233,-0.209161 0.193204,-0.458584 0.256315,-0.767911 z m -22.8415,0.08113 -0.358119,0.99632 c -0.178856,0.497546 -0.405474,0.932794 -0.597379,1.178224 -0.02741,-0.02323 -0.06087,-0.05871 -0.09199,-0.08837 0.142333,-0.143653 0.400547,-0.730652 0.620636,-1.428853 l 0.175183,-0.556038 c 0.0164,0.08903 0.106299,0.06951 0.251664,-0.101285 z m 9.310026,0.396875 c 0.0776,-0.02469 0.255505,0.11852 0.45992,0.384471 0.0061,0.0079 0.01439,0.01678 0.02066,0.02479 -0.228256,-0.222432 -0.404323,-0.371869 -0.481624,-0.408244 5.29e-4,-1.61e-4 5.29e-4,-7.93e-4 0.0011,-0.0011 z m -0.03773,0.06511 c 0.0084,0.07805 0.03147,0.162748 0.06873,0.252698 -0.04373,-0.08982 -0.07342,-0.172021 -0.07235,-0.235127 1.27e-4,-0.0074 0.0028,-0.01114 0.0036,-0.01757 z m 14.531414,0.187584 c -0.0062,0.427249 -0.01908,0.790774 -0.03256,1.147218 0.01357,-0.356632 0.02609,-0.719384 0.03256,-1.147218 z m -6.006869,0.05633 c 0.148386,0.410853 0.361024,0.712941 0.662492,1.01441 0.04584,0.04584 0.09401,0.08975 0.143661,0.131776 -0.0037,7.94e-4 -0.0055,0.0041 -0.0098,0.0041 -0.113871,0 -0.381256,-0.267891 -0.59428,-0.595313 -0.08053,-0.12378 -0.146421,-0.309002 -0.202055,-0.555006 z m -2.837553,0.03876 c -0.0158,0.03556 -0.03741,0.07167 -0.05633,0.107487 0.02045,-0.03639 0.03892,-0.0722 0.05633,-0.107487 z m 20.539839,0.01188 c 0.24778,0.38816 0.62447,0.790784 0.97513,1.030946 -0.38563,-0.143332 -0.71593,-0.497519 -0.97513,-1.030946 z m 5.97121,0.02791 c -0.0324,0.05582 -0.0633,0.112662 -0.0982,0.16588 -0.12709,0.193972 -0.31308,0.403191 -0.50539,0.582912 0.22369,-0.216072 0.43611,-0.483981 0.60358,-0.748792 z m -22.984648,0.04496 c 0.09367,0.133143 0.205718,0.256907 0.352433,0.403592 0.705291,0.705157 1.615588,0.880801 2.501656,0.511599 -0.390951,0.220395 -0.81081,0.396372 -1.192694,0.498676 -0.101865,-0.03676 -0.261519,-0.08514 -0.49816,-0.15348 -0.143116,-0.04133 -0.272254,-0.08843 -0.39429,-0.14056 0.07225,0.0081 0.145611,0.01664 0.238744,0.03514 0.591127,0.117454 0.637858,0.09834 0.220657,-0.09043 -0.60579,-0.274111 -0.984932,-0.545635 -1.228346,-1.064535 z m -3.594614,0.04496 c -0.07711,0.141369 -0.177715,0.284424 -0.303858,0.428916 0.116263,-0.137446 0.221335,-0.285568 0.303858,-0.428916 z m -4.63796,0.05478 c 0.356097,0.352375 0.853625,0.715645 1.257287,0.895554 -0.369764,-0.142351 -0.886738,-0.523989 -1.257287,-0.895554 z m 41.694102,0.0011 c 0.15121,0.443198 0.31529,0.743566 0.50798,0.927076 -0.19388,-0.180975 -0.35433,-0.476705 -0.50798,-0.927076 z m -36.813781,0.08424 c -0.09701,0.191585 -0.228123,0.372216 -0.397391,0.531233 -0.515127,0.483937 -0.811453,0.64693 -0.78238,0.518832 0.533299,-0.247917 0.94276,-0.623458 1.179771,-1.050065 z M 108.5192,76.6176 c 0.0249,0.03251 0.0504,0.06442 0.0765,0.09612 -0.0262,-0.0314 -0.0512,-0.06374 -0.0765,-0.09612 z m 21.6054,0.306443 c -0.0107,0.270627 -0.0318,0.456872 -0.0672,0.590661 0.0354,-0.134109 0.0564,-0.319177 0.0672,-0.590661 z m -5.26841,0.0041 c 0.15511,0.426225 0.27926,0.651153 0.4501,0.772565 -0.17178,-0.120997 -0.2949,-0.344713 -0.4501,-0.772565 z m -37.746545,0.0016 c -0.175339,0.12558 -0.38259,0.221848 -0.617016,0.28112 0.229068,-0.07775 0.44251,-0.171664 0.617016,-0.28112 z m 31.192935,0.01551 c -0.12611,0.310663 -0.25449,0.510939 -0.41548,0.640786 0.1592,-0.131167 0.28975,-0.333557 0.41548,-0.640786 z m -4.71858,0.265099 c -0.077,0.05715 -0.15184,0.106331 -0.2191,0.141076 0.071,-0.03666 0.14487,-0.08603 0.2191,-0.141076 z m 11.87938,0.120923 c 0.0115,0.01021 0.0235,0.01746 0.0351,0.02687 -0.0117,-0.0092 -0.0237,-0.01691 -0.0351,-0.02687 z m -39.65753,0.04341 c -0.119353,0.04896 -0.0071,0.09474 0.251664,0.171567 -0.189447,0.01691 -0.403225,0.02479 -0.657842,0.02479 -0.280095,0 -0.503486,-0.0064 -0.698664,-0.02429 0.187471,-0.06103 0.315172,-0.106113 0.360702,-0.135392 0.237291,0.0181 0.490852,0.0013 0.74414,-0.03669 z m -2.26808,0.06098 c 0.09197,0.04737 0.205132,0.09319 0.3359,0.135392 -0.086,0 -0.205891,-0.05637 -0.3359,-0.135392 z m -12.117088,0.06201 c 0.045,0.17608 0.184894,0.3072 0.361217,0.331761 -0.0057,7.94e-4 -0.01265,0.0062 -0.0181,0.0062 -0.200052,0 -0.355222,-0.148828 -0.344681,-0.330729 5.3e-5,-7.94e-4 0.0013,-0.0062 0.0016,-0.0072 z m 20.456115,0.01291 c 0.224001,0.139804 0.4597,0.237231 0.677479,0.278022 -0.307364,0.01347 -0.547389,-0.05252 -0.655776,-0.227894 -0.01135,-0.01839 -0.01707,-0.0346 -0.02169,-0.05013 z m 34.010843,0.01601 c 0.0616,0.0087 0.12071,0.01564 0.17571,0.02066 -0.0516,-0.004 -0.10948,-0.0109 -0.17571,-0.02066 z m -15.91065,0.0062 c 0.22118,0.110106 0.43437,0.200414 0.60151,0.251664 -0.1896,-0.03951 -0.40082,-0.117454 -0.54932,-0.213424 -0.0225,-0.01455 -0.0335,-0.02506 -0.0522,-0.03824 z m 0.63355,0.0062 c 0.0273,0.01122 0.0518,0.01987 0.0801,0.03204 0.29879,0.128397 0.36054,0.203919 0.21188,0.22996 0.009,-0.04726 -0.0981,-0.142701 -0.29198,-0.262 z m 16.04502,0.01913 c -8e-4,0.139361 -0.16593,0.228047 -0.45837,0.26045 -0.0778,0.0086 -0.15652,0.01707 -0.2527,0.01707 -0.005,0 -0.008,-5.29e-4 -0.0124,-5.29e-4 0.0976,-2.65e-4 0.18644,-0.0055 0.2651,-0.01654 0.24701,-0.03467 0.39964,-0.122213 0.45837,-0.260451 z m -29.909292,0.01188 c -0.01842,0.390946 -0.04321,0.741125 -0.07493,1.052135 0.03137,-0.311971 0.0564,-0.659109 0.07493,-1.052135 z m -13.357326,0.01447 c 0.07804,0.04758 0.161177,0.08917 0.244949,0.129709 -0.08517,-0.04036 -0.168098,-0.08285 -0.244949,-0.129709 z m 34.470768,0.02585 c -0.012,0.0088 -0.0254,0.01519 -0.0377,0.02326 0.0123,-0.0083 0.0258,-0.01423 0.0377,-0.02326 z m -30.447757,0.01344 c -0.04433,0.02551 -0.08495,0.05278 -0.131773,0.077 -0.505349,0.261323 -1.170075,0.386543 -1.838132,0.383437 0.710113,-0.0077 1.415669,-0.170651 1.969905,-0.460437 z m 29.163597,0.02429 c 5.3e-4,0.0029 10e-4,0.0046 0.002,0.0072 -5.3e-4,-7.94e-4 -0.002,-0.0016 -0.002,-0.0026 -2.6e-4,-5.29e-4 2.7e-4,-0.0038 0,-0.0047 z m -3.39049,0.031 c -0.0307,0.01643 -0.0615,0.03212 -0.0925,0.04754 0.0311,-0.01534 0.0619,-0.03125 0.0925,-0.04754 z m -26.743591,0.01603 c 0.01013,0.03116 -0.1031,0.05073 -0.280601,0.06511 0.09605,-0.01799 0.189257,-0.03979 0.280601,-0.06511 z m -2.07274,0.0041 c 0.148471,0.03089 0.303821,0.05396 0.458885,0.07441 -0.305475,-0.01132 -0.460872,-0.03404 -0.458885,-0.07441 z m 40.975801,0.03255 c 0.0192,0.01132 0.0424,0.01675 0.063,0.02585 -0.0206,-0.009 -0.0439,-0.01466 -0.063,-0.02585 z m 4.58163,0.02532 c -0.0474,0.03709 -0.10879,0.05412 -0.17983,0.06459 0.071,-0.01045 0.13241,-0.02743 0.17983,-0.06459 z m -46.146542,0.02223 c 0.02019,0.0085 0.04104,0.01614 0.06149,0.02429 -0.02064,-0.008 -0.0412,-0.01593 -0.06149,-0.02429 z m 33.600542,0.0041 c -0.003,2.65e-4 -0.006,0.0011 -0.009,0.0016 -0.0262,0.0031 -0.0506,0.0021 -0.0765,0.0041 0.0287,-0.0021 0.0565,-0.0024 0.0853,-0.0057 z m -0.32763,0.01188 c 0.022,5.29e-4 0.0419,0.0031 0.0646,0.0031 -0.0227,-9.3e-5 -0.0426,-0.0021 -0.0646,-0.0031 z m -4.19716,0.03772 c -0.0607,0.02469 -0.12192,0.04662 -0.18345,0.06769 0.0617,-0.02106 0.12296,-0.04323 0.18345,-0.06769 z m -0.37207,0.12764 c -0.0519,0.01453 -0.10378,0.0277 -0.15607,0.03979 0.0523,-0.01222 0.10434,-0.02524 0.15607,-0.03979 z m -0.38189,0.08475 c -0.0294,0.0048 -0.0584,0.01146 -0.0879,0.0155 0.0294,-0.0042 0.0585,-0.01056 0.0879,-0.0155 z m -26.900175,0.03204 c 0.07988,0.0031 0.159747,0.0076 0.239779,0.0067 -0.08004,-2.65e-4 -0.159904,-0.0026 -0.239779,-0.0067 z m 11.461834,0.63252 c -0.01236,0.113607 -0.02679,0.219652 -0.04134,0.323493 0.01437,-0.104486 0.02907,-0.209029 0.04134,-0.323493 z m -0.06511,0.492477 c -0.01074,0.06712 -0.02278,0.130747 -0.03462,0.193786 0.01175,-0.06378 0.02394,-0.12578 0.03462,-0.193786 z m -7.051764,0.325559 c 0.167219,-0.0035 0.375467,0.16173 0.65474,0.516766 -0.275399,-0.35011 -0.487627,-0.517557 -0.65474,-0.516766 z m -0.178801,0.07907 c -0.145581,0.151061 0.03426,0.558101 0.343131,0.982887 -0.411766,-0.508989 -0.516591,-0.810455 -0.347266,-0.979786 0.0013,-0.0013 0.0028,-0.0019 0.0041,-0.0031 z m 7.141165,0.05788 c -0.0047,0.01984 -0.0096,0.03899 -0.01447,0.0584 0.0048,-0.01961 0.0098,-0.03835 0.01447,-0.0584 z m -0.389122,0.317293 c -0.219041,0.533683 -0.556697,0.866159 -1.069703,1.269691 -0.04721,0.03714 -0.09625,0.06978 -0.144692,0.104902 0.466788,-0.370626 0.960932,-0.906907 1.214395,-1.374593 z m -5.787761,0.973585 c 0.702001,0.597246 0.958628,0.710033 0.689364,0.362767 0.108448,0.136144 0.157994,0.221176 0.121439,0.221176 -0.12078,0 -0.476359,-0.276754 -0.810803,-0.583943 z m 4.669999,0.649573 c -0.564747,0.314682 -1.153496,0.49798 -1.735812,0.555522 -0.09835,-0.07298 -0.305337,-0.07933 -0.484208,-0.0078 -0.02204,0.0088 -0.02885,0.01598 -0.04496,0.02429 -0.501579,-0.01656 -0.990635,-0.125809 -1.446941,-0.329178 0.318868,0.07286 0.755037,0.103158 1.224217,0.101285 0.0035,0.03712 0.162171,0.06414 0.449583,0.0677 0.420176,0.0052 0.627123,-0.04578 0.482658,-0.114205 0.605697,-0.05576 1.179137,-0.157019 1.555461,-0.297656 z"
           style="fill:#333333;stroke-width:0.264583"
           id="path2309"
           inkscape:connector-curvature="0" />
      </g>
      <g
         id="g4004"
         transform="matrix(0.1620386,0,0,0.1620386,66.59359,62.210965)">
        <path
           style="fill:#fee46a;stroke-width:0.264583"
           d="m -82.791253,337.23265 c -6.749309,-0.77362 -10.739296,-1.58356 -15.47882,-3.14211 -9.494297,-3.12212 -15.243877,-8.02269 -17.088767,-14.56534 -0.54441,-1.93068 -0.55208,-41.61868 -0.008,-43.78854 1.67128,-6.67091 6.66599,-12.01384 13.26147,-14.186 1.34139,-0.44177 3.183151,-0.4913 23.547913,-0.63325 21.602085,-0.15058 22.136901,-0.16668 24.082683,-0.72495 8.414173,-2.41414 14.503948,-8.43831 17.10931,-16.92498 0.707133,-2.30341 0.714592,-2.4106 0.861179,-12.37769 l 0.147868,-10.05417 8.144316,-0.07 c 6.591869,-0.0566 8.479891,0.008 9.904778,0.3383 7.122104,1.65172 11.8249719,7.7258 14.6057109,18.86427 3.29658651,13.20475 3.63947063,23.87148 1.0850933,33.756 -1.5697835,6.0745 -4.4195919,12.91233 -6.7321296,16.15306 -2.2108396,3.09822 -4.9663346,5.08608 -8.5512566,6.16904 -1.406702,0.42495 -3.765132,0.46082 -30.840943,0.46906 -31.593046,0.01 -30.034269,-0.0594 -29.691371,1.314 0.07267,0.29104 0.133746,1.15424 0.135733,1.91822 l 0.0036,1.38907 h 18.515792 18.515793 l 0.163306,0.65066 c 0.08982,0.35786 0.110728,4.25716 0.04647,8.6651 -0.126902,8.70481 -0.205737,9.24619 -1.808996,12.42293 -3.450338,6.83659 -13.262435,11.81985 -27.282255,13.8558 -2.671959,0.38803 -10.819559,0.71108 -12.648023,0.5015 z m 10.527615,-0.65568 c 1.413094,-0.15314 4.295666,-0.62456 6.405718,-1.0476 13.176067,-2.64162 21.318534,-7.86517 23.606333,-15.14391 0.57513,-1.8298 0.603041,-2.31045 0.603041,-10.38526 v -8.46667 l -18.428419,0.0978 c -18.368578,0.0975 -18.429363,0.0961 -18.71927,-0.44563 -0.373115,-0.69717 -0.379936,-4.61666 -0.0087,-4.98792 0.197929,-0.19793 8.906684,-0.24484 29.170311,-0.15711 25.778682,0.11159 29.101732,0.0795 30.872514,-0.29796 3.904363,-0.8323 6.769478,-2.79661 9.178435,-6.29268 1.6457427,-2.38843 2.3276374,-3.7349 3.8652264,-7.63226 4.88295136,-12.37693 5.59348194,-23.32432 2.4294702,-37.43164 -0.7159387,-3.19214 -1.6498675,-6.48493 -1.8393118,-6.48493 -0.1233117,0 -109.4331698,77.99414 -109.7974298,78.34203 -0.42822,0.40897 0.33182,3.93688 1.27705,5.92776 1.18984,2.50608 2.90282,4.52423 5.51958,6.50291 4.83617,3.65689 12.986238,6.54136 21.898232,7.75021 3.363629,0.45625 10.4517,0.5338 13.967198,0.15282 z m 12.483033,-11.76962 c -1.587563,-0.48939 -3.286699,-1.98193 -4.164549,-3.65818 -0.953948,-1.82156 -1.023401,-5.01465 -0.144669,-6.65106 1.344946,-2.5046 3.889647,-4.08942 6.566278,-4.08942 1.918798,0 3.54998,0.67213 4.983355,2.05338 1.700882,1.63903 2.153574,2.76033 2.15722,5.34334 0.0028,1.97878 -0.08401,2.39727 -0.722564,3.48351 -1.888617,3.21273 -5.247521,4.57504 -8.675071,3.51843 z m 5.035185,-0.67335 c 2.561304,-1.15941 4.065259,-3.50391 4.059679,-6.32859 -0.004,-2.02695 -0.467728,-3.24113 -1.801831,-4.71782 -1.369938,-1.51636 -2.973644,-2.22953 -4.989391,-2.21879 -3.957859,0.0211 -6.792597,2.91914 -6.785062,6.93661 0.0053,2.83742 1.299618,4.9741 3.75393,6.19713 1.743855,0.869 4.018698,0.92089 5.762675,0.13146 z"
           id="path4018"
           inkscape:connector-curvature="0" />
        <path
           style="fill:#feda4f;stroke-width:0.264583"
           d="m -82.585822,336.66133 c 0.62231,-0.0559 1.57481,-0.0551 2.116666,0.002 0.541857,0.0568 0.0327,0.10258 -1.131472,0.10162 -1.164166,-10e-4 -1.607505,-0.0475 -0.985194,-0.10337 z m 5.424948,-7.9e-4 c 0.695616,-0.0547 1.767178,-0.054 2.381249,0.002 0.614075,0.0555 0.04493,0.10023 -1.264753,0.0994 -1.309687,-7.9e-4 -1.81211,-0.0462 -1.116496,-0.10089 z m -8.339273,-0.25691 c 0.329118,-0.0633 0.805368,-0.0609 1.058334,0.005 0.252965,0.0662 -0.01633,0.118 -0.598398,0.11506 -0.582083,-0.003 -0.789053,-0.0571 -0.459936,-0.1204 z m 12.964583,0 c 0.329118,-0.0633 0.805368,-0.0609 1.058334,0.005 0.252965,0.0662 -0.01632,0.118 -0.598398,0.11506 -0.582083,-0.003 -0.789054,-0.0571 -0.459936,-0.1204 z m -14.947008,-0.26081 c 0.257432,-0.0671 0.61462,-0.0627 0.79375,0.01 0.179131,0.0725 -0.03149,0.12736 -0.468055,0.12197 -0.436563,-0.005 -0.583126,-0.0647 -0.325695,-0.13177 z m 17.197917,0 c 0.257431,-0.0671 0.614619,-0.0627 0.793749,0.01 0.179131,0.0725 -0.03149,0.12736 -0.468055,0.12197 -0.436563,-0.005 -0.583126,-0.0647 -0.325694,-0.13177 z m -18.785417,-0.26458 c 0.257432,-0.0671 0.61462,-0.0627 0.79375,0.01 0.179131,0.0725 -0.03149,0.12736 -0.468055,0.12197 -0.436563,-0.005 -0.583126,-0.0647 -0.325695,-0.13178 z m 20.500173,0.008 c 0.181901,-0.0734 0.479557,-0.0734 0.661458,0 0.181901,0.0734 0.03307,0.13346 -0.330729,0.13346 -0.363802,0 -0.51263,-0.0601 -0.330729,-0.13346 z m -21.960416,-0.26458 c 0.181901,-0.0734 0.479557,-0.0734 0.661459,0 0.181901,0.0734 0.03307,0.13345 -0.33073,0.13345 -0.363802,0 -0.51263,-0.06 -0.330729,-0.13345 z m 23.283333,0 c 0.181901,-0.0734 0.479557,-0.0734 0.661458,0 0.181901,0.0734 0.03307,0.13345 -0.330729,0.13345 -0.363802,0 -0.51263,-0.06 -0.330729,-0.13345 z m -27.847395,-1.00591 c -5.704373,-1.59134 -9.640553,-3.39013 -13.065053,-5.97057 -2.5847,-1.94762 -4.30134,-3.97233 -5.48922,-6.47427 -0.94523,-1.99088 -1.70527,-5.51879 -1.27705,-5.92776 0.36426,-0.34789 109.6741201,-78.34203 109.7974318,-78.34203 0.1894443,0 1.1233731,3.29279 1.8393118,6.48493 0.9655254,4.30497 1.6733175,9.30909 1.883828,13.31872 0.1745615,3.32491 -0.206584,9.54154 -0.6999949,11.41719 l -0.2436072,0.92604 0.1265635,-1.05834 c 0.069609,-0.58208 0.205613,-2.05937 0.3022282,-3.28286 0.1481773,-1.87647 0.1173083,-2.1885 -0.1973051,-1.99423 -0.2051341,0.12667 -10.4202971,7.40717 -22.7003631,16.17888 l -22.327393,15.94858 13.463852,0.0901 c 7.405118,0.0496 0.344816,0.0669 -15.689564,0.0384 -20.314713,-0.036 -29.238754,0.0337 -29.434894,0.22981 -0.361585,0.36159 -0.367589,4.28287 -0.0076,4.95554 0.265015,0.49518 0.730382,0.51335 14.353645,0.56023 7.743865,0.0267 12.829598,0.11595 11.301629,0.19844 l -2.778124,0.14998 -21.491726,15.34583 c -11.82045,8.44021 -21.494278,15.42542 -21.497395,15.5227 -0.007,0.21882 2.820281,1.17226 5.815163,1.96101 1.236928,0.32577 2.010834,0.59614 1.719792,0.60083 -0.291042,0.005 -1.957916,-0.39006 -3.704166,-0.8772 z m 29.170311,0.74139 c 0.181901,-0.0734 0.479558,-0.0734 0.661459,0 0.181901,0.0734 0.03307,0.13345 -0.33073,0.13345 -0.363802,0 -0.51263,-0.06 -0.330729,-0.13345 z m 1.322917,-0.26458 c 0.181901,-0.0734 0.479557,-0.0734 0.661458,0 0.181901,0.0734 0.03307,0.13345 -0.330729,0.13345 -0.363802,0 -0.51263,-0.0601 -0.330729,-0.13345 z m 1.339453,-0.2701 c 0.190995,-0.0764 0.419201,-0.067 0.507119,0.0209 0.08792,0.0879 -0.06835,0.15045 -0.347266,0.13896 -0.308226,-0.0127 -0.370919,-0.0754 -0.159853,-0.15985 z m 1.240234,-0.34842 c 0.291042,-0.12507 0.707761,-0.2274 0.926042,-0.2274 0.250158,0 0.201253,0.0841 -0.132292,0.2274 -0.291041,0.12506 -0.70776,0.22739 -0.926041,0.22739 -0.250159,0 -0.201253,-0.0841 0.132291,-0.22739 z m 1.670183,-0.44533 c 0.190994,-0.0764 0.4192,-0.067 0.507119,0.0209 0.08792,0.0879 -0.06835,0.15045 -0.347266,0.13896 -0.308226,-0.0127 -0.370919,-0.0754 -0.159853,-0.15985 z m 3.489192,-1.09754 c 0.218281,-0.13486 0.694531,-0.32483 1.058333,-0.42214 0.459709,-0.12296 0.540409,-0.10214 0.264584,0.0683 -0.218281,0.13487 -0.694531,0.32483 -1.058333,0.42215 -0.459709,0.12296 -0.540409,0.10213 -0.264584,-0.0683 z m 2.403298,-0.93932 c 0.269547,-0.24678 3.417535,-1.74498 3.417535,-1.62647 0,0.14836 -3.056651,1.72741 -3.343843,1.72741 -0.101164,0 -0.134324,-0.0454 -0.07369,-0.10094 z m 3.682119,-1.83332 c 0,-0.0617 0.506015,-0.44582 1.124479,-0.8537 0.618463,-0.40789 0.984805,-0.57254 0.814091,-0.36589 -0.328266,0.39736 -1.93857,1.41043 -1.93857,1.21959 z m 3.358927,-2.47596 c 0.610484,-0.55756 1.54404,-1.48999 2.074566,-2.07208 l 0.9646,-1.05833 -0.80922,1.08558 c -0.445072,0.59707 -1.378625,1.5295 -2.074567,2.07207 l -1.265348,0.9865 z m -10.565738,-2.3915 c 0.329118,-0.0633 0.805368,-0.0609 1.058333,0.005 0.252966,0.0662 -0.01632,0.118 -0.598397,0.11506 -0.582083,-0.003 -0.789054,-0.0571 -0.459936,-0.1204 z m -1.309465,-0.25819 c 0.190995,-0.0764 0.4192,-0.067 0.507119,0.0209 0.08792,0.0879 -0.06835,0.15045 -0.347266,0.13896 -0.308226,-0.0127 -0.370919,-0.0754 -0.159853,-0.15985 z m 3.621484,-0.0838 c 0.727364,-0.31256 1.145109,-0.31256 0.661458,0 -0.218281,0.14106 -0.575468,0.24993 -0.79375,0.24193 -0.261688,-0.01 -0.216624,-0.092 0.132292,-0.24193 z m -6.702634,-1.52136 -0.993603,-0.99219 0.937702,0.79302 c 0.515737,0.43616 1.050811,0.88264 1.189056,0.99219 0.138245,0.10954 0.163399,0.19917 0.0559,0.19917 -0.1075,0 -0.642575,-0.44649 -1.189055,-0.99219 z m 9.178274,0.31092 c 0.488477,-0.39832 1.232617,-1.19975 1.653646,-1.78096 0.421029,-0.58121 0.765506,-0.93659 0.765506,-0.78972 0,0.39731 -2.083499,2.68998 -2.739001,3.01399 -0.312561,0.15449 -0.168627,-0.045 0.319849,-0.44331 z m 9.880825,-1.2973 c 0.316597,-0.65165 0.621011,-1.13944 0.676478,-1.08398 0.119693,0.1197 -0.949396,2.2688 -1.128633,2.2688 -0.06791,0 0.13556,-0.53317 0.452155,-1.18482 z m -20.835847,-1.22102 c -0.232749,-0.45008 -0.376206,-0.86531 -0.318797,-0.92272 0.05741,-0.0574 0.302387,0.31084 0.544397,0.81834 0.544136,1.14107 0.355602,1.2283 -0.2256,0.10438 z m 13.659646,-1.45267 c 0.0127,-0.30822 0.07539,-0.37092 0.15985,-0.15985 0.07643,0.19099 0.06703,0.4192 -0.02088,0.50712 -0.08792,0.0879 -0.150453,-0.0684 -0.138965,-0.34727 z m 8.202083,0 c 0.0127,-0.30822 0.07539,-0.37092 0.159851,-0.15985 0.07643,0.19099 0.06703,0.4192 -0.02088,0.50712 -0.08792,0.0879 -0.150453,-0.0684 -0.138965,-0.34727 z m -22.489583,-0.26458 c 0.0127,-0.30823 0.07539,-0.37092 0.159851,-0.15985 0.07643,0.19099 0.06703,0.4192 -0.02088,0.50712 -0.08792,0.0879 -0.150452,-0.0684 -0.138964,-0.34727 z m 14.610479,-1.69774 c 0,-0.80037 0.0496,-1.12779 0.110223,-0.72761 0.06062,0.40018 0.06062,1.05503 0,1.45521 -0.06062,0.40018 -0.110223,0.0728 -0.110223,-0.7276 z m 8.143687,0.90399 c 0.0127,-0.30823 0.07539,-0.37092 0.159851,-0.15985 0.07643,0.19099 0.06703,0.4192 -0.02088,0.50712 -0.08792,0.0879 -0.150452,-0.0684 -0.138964,-0.34727 z m -22.963964,-1.03629 c 0.0021,-0.7276 0.05337,-0.99385 0.114186,-0.59167 0.06082,0.40218 0.05919,0.99749 -0.0036,1.32292 -0.0628,0.32542 -0.11256,-0.004 -0.110575,-0.73125 z m 23.269714,-7.86295 -0.06206,-8.12754 -3.108854,-0.0838 -3.108854,-0.0838 3.117156,-0.0569 c 2.307093,-0.0421 3.150428,0.0298 3.245181,0.27673 0.07041,0.18349 0.0946,3.9042 0.05375,8.26823 l -0.07427,7.93461 z m -23.059916,5.98882 c 0.0127,-0.30822 0.07539,-0.37092 0.159851,-0.15985 0.07643,0.19099 0.06703,0.4192 -0.02088,0.50712 -0.08792,0.0879 -0.150452,-0.0684 -0.138964,-0.34727 z m 14.2875,0 c 0.0127,-0.30822 0.07539,-0.37092 0.15985,-0.15985 0.07643,0.19099 0.06703,0.4192 -0.02088,0.50712 -0.08792,0.0879 -0.150453,-0.0684 -0.138965,-0.34727 z m -14.033211,-0.80794 c -0.0058,-0.16546 0.376359,-0.87908 0.849302,-1.58583 0.844539,-1.26205 3.262918,-3.0112 4.155482,-3.00555 0.224718,10e-4 -0.186733,0.28484 -0.914337,0.62983 -1.401199,0.66436 -2.9718,2.15155 -3.663185,3.46862 -0.229169,0.43657 -0.421436,0.65838 -0.427262,0.49293 z m 13.503131,-0.57699 c -0.373575,-0.90189 -2.204616,-2.72613 -3.327267,-3.31492 -0.436563,-0.22896 -0.66284,-0.42105 -0.502836,-0.42688 1.079612,-0.0393 4.830858,3.81937 4.264052,4.38618 -0.06496,0.065 -0.260239,-0.22501 -0.433949,-0.64438 z m -7.225133,-4.20873 c 0.475549,-0.0589 1.189924,-0.0577 1.5875,0.003 0.397576,0.0604 0.0085,0.10855 -0.864634,0.10707 -0.873125,-0.002 -1.198414,-0.0509 -0.722866,-0.10977 z m 38.88901,-14.53556 c 0.181901,-0.0734 0.479558,-0.0734 0.661459,0 0.181901,0.0734 0.03307,0.13346 -0.330729,0.13346 -0.363803,0 -0.512631,-0.0601 -0.33073,-0.13346 z m 1.339453,-0.27009 c 0.190995,-0.0764 0.419201,-0.067 0.507119,0.0209 0.08792,0.0879 -0.06835,0.15046 -0.347265,0.13897 -0.308227,-0.0127 -0.37092,-0.0754 -0.159854,-0.15985 z m 2.926665,-1.14178 c 0.782016,-0.43107 1.608542,-0.93493 1.836724,-1.11969 0.335402,-0.27156 0.376164,-0.2715 0.212781,2.6e-4 -0.228603,0.38033 -2.801252,1.90899 -3.206769,1.90545 -0.14552,-0.001 0.375248,-0.35501 1.157264,-0.78608 z m 3.74641,-2.84467 c 0.787463,-0.90951 1.4748006,-1.65365 1.5274183,-1.65365 0.1818032,0 -1.4861113,1.9866 -2.2214043,2.64584 -0.40577,0.3638 -0.09348,-0.0827 0.693986,-0.99219 z m 3.2325679,-4.73958 c 0.6182968,-1.18794 1.1617351,-2.12272 1.2076456,-2.07729 0.1165648,0.11534 -1.4056968,3.06467 -1.9138529,3.70802 -0.2298832,0.29104 0.08791,-0.44279 0.7062073,-1.63073 z m 1.529154,-3.13177 c 0,-0.14552 0.1154139,-0.44318 0.2564792,-0.66146 0.1410652,-0.21828 0.2564791,-0.27781 0.2564791,-0.13229 0,0.14552 -0.1154139,0.44317 -0.2564791,0.66145 -0.1410653,0.21829 -0.2564792,0.27782 -0.2564792,0.1323 z m 0.5291667,-1.32292 c 0,-0.14552 0.1154139,-0.44318 0.2564791,-0.66146 0.1410653,-0.21828 0.2564791,-0.27781 0.2564791,-0.13229 0,0.14552 -0.1154138,0.44318 -0.2564791,0.66146 -0.1410652,0.21828 -0.2564791,0.27781 -0.2564791,0.13229 z m 0.7937499,-2.11667 c 0,-0.14552 0.1154139,-0.44317 0.2564792,-0.66146 0.1410652,-0.21828 0.2564791,-0.27781 0.2564791,-0.13229 0,0.14552 -0.1154139,0.44318 -0.2564791,0.66146 -0.1410653,0.21828 -0.2564792,0.27781 -0.2564792,0.13229 z m 1.0874216,-3.04271 c 0,-0.21828 0.102325,-0.635 0.2273909,-0.92604 0.1433301,-0.33354 0.2273908,-0.38245 0.2273908,-0.13229 0,0.21828 -0.1023249,0.635 -0.2273908,0.92604 -0.1433301,0.33355 -0.2273909,0.38245 -0.2273909,0.13229 z m 0.7774464,-2.80017 c 0.0127,-0.30822 0.07539,-0.37092 0.1598506,-0.15985 0.07643,0.19099 0.067032,0.4192 -0.020876,0.50712 -0.087918,0.0879 -0.1504526,-0.0684 -0.1389644,-0.34727 z m 0.2645833,-1.05833 c 0.0127,-0.30823 0.07539,-0.37092 0.1598507,-0.15985 0.07643,0.19099 0.067032,0.4192 -0.020876,0.50711 -0.087918,0.0879 -0.1504526,-0.0684 -0.1389644,-0.34726 z m 0.301371,-1.03629 c 0.00273,-0.29104 0.095822,-0.88635 0.2069068,-1.32291 0.1814221,-0.71298 0.2024777,-0.72644 0.2069068,-0.13229 0.0027,0.3638 -0.090397,0.95911 -0.2069068,1.32291 -0.1659943,0.51832 -0.2107697,0.54695 -0.2069068,0.13229 z"
           id="path4016"
           inkscape:connector-curvature="0" />
        <path
           style="fill:#fed33b;stroke-width:0.264583"
           d="m -82.527024,336.55945 c -4.760608,-0.30366 -9.731377,-1.26646 -14.353291,-2.78013 -1.127786,-0.36934 -2.04797,-0.75106 -2.04485,-0.84825 0.0031,-0.0972 9.676944,-7.08233 21.497395,-15.52254 l 21.491725,-15.34583 3.175,-0.17337 c 1.74625,-0.0953 4.931171,-0.18465 7.077604,-0.19843 l 3.902604,-0.0251 v 8.09775 c 0,6.53131 -0.08113,8.41222 -0.419413,9.72344 -1.724543,6.68451 -8.04169,11.68344 -18.475782,14.62039 -7.259976,2.04351 -14.869104,2.89739 -21.850992,2.45205 z m 28.294652,-11.999 c 4.658294,-2.36054 5.611323,-8.53062 1.889567,-12.23338 -4.002011,-3.98159 -10.763221,-2.18035 -12.35383,3.29114 -1.820436,6.26208 4.721371,11.85238 10.464263,8.94224 z M -24.820999,279.894 c 12.281932,-8.77305 22.498621,-16.05464 22.7037551,-16.18131 0.3151347,-0.19459 0.344887,0.13503 0.1918706,2.1257 -0.510286,6.63865 -3.4152416,16.00245 -6.8187171,21.97937 -1.4593726,2.56284 -4.1001256,5.27648 -6.2061646,6.37747 -3.046743,1.59276 -3.59796,1.64153 -18.601993,1.64585 l -13.599533,0.004 z"
           id="path4014"
           inkscape:connector-curvature="0" />
        <path
           style="fill:#9d9d9d;stroke-width:0.264583"
           d="M 49.368118,331.59949 C 46.31218,330.4823 43.66304,329.47442 43.481139,329.35975 43.2185,329.19418 43.15041,319.08304 43.15041,280.24807 v -48.90319 l 1.41552,-1.43831 c 7.5912,-7.71346 22.046663,-12.34947 35.439212,-11.36569 7.522955,0.55261 12.37054,2.64117 16.987974,7.31917 7.037034,7.12934 10.980204,18.93256 10.980204,32.86736 0,12.31507 -3.36008,22.08963 -10.059491,29.26329 -6.661256,7.13281 -16.497231,10.00999 -27.248235,7.97056 -3.326903,-0.6311 -6.628265,-1.81151 -10.729182,-3.83624 -2.04556,-1.00996 -3.801036,-1.83628 -3.901056,-1.83628 -0.100021,0 -0.212315,9.73174 -0.249545,21.62608 -0.05945,18.99325 -0.116009,21.63154 -0.464568,21.671 -0.218282,0.0247 -2.897188,-0.86914 -5.953125,-1.98633 z m 5.953125,-19.95888 c 0,-14.63101 0.08859,-21.59921 0.27701,-21.78763 0.192961,-0.19296 1.436759,0.30886 4.099219,1.65387 6.630148,3.34938 11.006582,4.47043 17.451895,4.47043 4.673764,0 6.694291,-0.30145 10.186458,-1.51975 9.624631,-3.35773 16.549345,-12.3368 19.209835,-24.90883 0.56308,-2.66085 0.70262,-4.17543 0.82215,-8.92413 0.21584,-8.57443 -0.48959,-14.13554 -2.59721,-20.47437 -2.02079,-6.0777 -4.53817,-10.3079 -8.423731,-14.15521 -2.690405,-2.66391 -4.258321,-3.72849 -7.603847,-5.16285 -2.845745,-1.22009 -5.607587,-1.73184 -10.270739,-1.90311 -12.633999,-0.46401 -25.874841,3.83497 -33.000898,10.7146 l -1.791809,1.72985 v 48.83926 48.83927 l 5.622396,2.03027 c 3.092318,1.11665 5.711692,2.03898 5.820833,2.04962 0.109141,0.0106 0.198438,-9.66044 0.198438,-21.49129 z m 14.684374,-24.10296 c -1.018646,-0.19585 -2.978975,-0.73483 -4.356288,-1.19774 -2.641936,-0.88794 -8.82991,-3.93643 -9.772078,-4.8142 l -0.556008,-0.518 v -24.03109 c 0,-27.73652 -0.364834,-24.62863 3.102101,-26.42586 2.672572,-1.38543 7.785301,-3.10605 10.757035,-3.62012 3.018853,-0.52222 7.980926,-0.52057 10.203952,0.003 7.217225,1.70111 11.724232,7.9599 13.613447,18.9047 1.019434,5.9059 1.141664,15.13814 0.282763,21.35787 -1.502243,10.87852 -5.877816,17.46163 -13.164002,19.80543 -2.661391,0.85611 -7.194822,1.09626 -10.110922,0.53561 z m 8.466666,-0.55736 c 5.235403,-1.09919 9.591056,-4.92318 11.933193,-10.4766 1.001246,-2.37405 2.067895,-6.52774 2.541031,-9.89516 0.501682,-3.57059 0.422992,-14.82794 -0.131445,-18.80418 -1.676482,-12.0232 -5.918673,-18.4705 -13.416737,-20.39082 -2.495,-0.63899 -7.551269,-0.56468 -11.101035,0.16316 -4.245113,0.87042 -10.324875,3.30948 -11.851568,4.75459 l -0.595313,0.56349 v 24.06346 24.06346 l 1.124479,0.71087 c 1.759837,1.11254 7.293266,3.70447 9.207286,4.31282 4.265914,1.35587 8.684228,1.69197 12.290109,0.93491 z m 64.451067,45.95311 c -0.41156,-0.76897 -1.91714,-6.96914 -1.77945,-7.32794 0.0687,-0.17893 0.69985,-0.40512 1.40266,-0.50264 13.36527,-1.85467 19.26495,-3.95999 23.79702,-8.49206 3.15283,-3.15283 4.43026,-6.68783 5.11384,-14.15119 0.33581,-3.6664 0.37163,-11.64166 0.0523,-11.64166 -0.12549,0 -1.09064,0.35564 -2.14474,0.79032 -7.01119,2.89119 -15.10953,4.4918 -23.02705,4.55123 -5.30524,0.0398 -8.51953,-0.61446 -12.30313,-2.50436 -6.6467,-3.32001 -11.26,-8.95367 -12.45761,-15.21295 -0.53922,-2.81834 -0.56034,-55.40328 -0.0225,-55.84972 0.46752,-0.38801 11.12835,-4.00577 11.80422,-4.00577 0.52287,0 0.52793,0.23406 0.60159,27.8474 l 0.0743,27.84739 0.62063,1.85208 c 1.64688,4.91475 5.05365,8.33899 10.00639,10.0577 4.83301,1.67716 10.85956,1.58493 16.3604,-0.25039 2.58741,-0.86328 6.31365,-2.64988 8.5317,-4.09067 l 1.65251,-1.07344 0.0673,-30.23514 0.0673,-30.23514 h 6.21771 6.21771 l 0.0798,34.925 c 0.0811,35.46718 -0.0494,42.55111 -0.90567,49.17387 -0.86437,6.68544 -2.58575,11.67154 -5.24156,15.18246 -5.1277,6.7788 -16.24978,11.95125 -28.87334,13.42791 -4.59078,0.53701 -5.58837,0.52313 -5.91238,-0.0823 z m 6.49941,-0.45469 c 15.24969,-1.99906 26.98568,-8.76792 30.54022,-17.61442 1.5948,-3.96914 2.65464,-9.80365 3.14166,-17.29499 0.1683,-2.58883 0.27493,-18.31557 0.27493,-40.55246 V 220.6932 l -5.88698,0.0712 -5.88698,0.0712 -0.13229,30.23906 -0.13229,30.23907 -1.98437,1.19511 c -7.53415,4.53752 -14.5093,6.17837 -21.25975,5.00119 -7.27295,-1.26829 -12.15694,-5.39349 -14.09562,-11.90568 -0.43792,-1.47095 -0.47901,-3.60287 -0.5596,-29.03802 -0.0732,-23.1079 -0.14473,-27.45052 -0.45177,-27.45052 -0.20061,0 -2.81843,0.84797 -5.81737,1.88437 l -5.45259,1.88438 0.072,27.8151 0.072,27.8151 0.72083,2.11667 c 1.01444,2.97881 2.40332,5.20556 4.70313,7.54045 2.30346,2.3386 4.44211,3.8535 7.4862,5.30281 4.27082,2.03338 8.32461,2.62597 14.70152,2.14911 7.43659,-0.55611 13.15442,-1.84741 19.70169,-4.44939 1.28381,-0.51021 2.52198,-0.85558 2.75151,-0.76751 0.36936,0.14173 0.39925,0.83606 0.26014,6.04025 -0.32451,12.1401 -1.45942,16.29251 -5.58853,20.44768 -4.34372,4.37109 -9.04111,6.2617 -19.96403,8.03513 -2.67348,0.43406 -4.92427,0.85258 -5.00174,0.93004 -0.13388,0.13389 1.08588,5.17244 1.55697,6.43132 0.19373,0.51772 0.41151,0.59532 1.67095,0.59532 0.79653,0 2.84858,-0.18358 4.56017,-0.40795 z m -285.78268,-36.1323 c -3.54324,-0.52085 -6.60236,-2.01424 -9.30512,-4.54254 -3.96196,-3.70621 -6.36333,-8.57209 -8.12522,-16.46409 -1.01829,-4.56115 -2.01454,-11.24447 -1.49874,-10.05416 0.12612,0.29104 0.23768,0.84866 0.2479,1.23915 0.0275,1.04894 1.26389,7.60685 2.0361,10.79939 2.0136,8.32485 6.01746,14.3406 11.25241,16.90658 3.80365,1.86441 4.62432,1.98763 13.32071,2.00011 l 7.67292,0.011 0.15043,-10.31875 c 0.16947,-11.62515 0.21072,-11.92315 2.23592,-16.15367 3.19676,-6.67783 9.00596,-11.37057 16.43785,-13.27869 1.65758,-0.42558 3.653673,-0.4656 23.244549,-0.46603 21.342934,-5.3e-4 21.439756,-0.003 23.495126,-0.58791 3.407098,-0.96974 5.571302,-2.26801 8.267377,-4.95946 1.95018,-1.94684 2.596843,-2.8064 3.48973,-4.63861 2.120429,-4.35115 2.011487,-3.07406 2.121603,-24.87084 0.06912,-13.68252 0.0085,-20.0685 -0.204403,-21.54402 -0.610855,-4.23281 -2.16957,-7.29661 -5.31286,-10.44291 -4.851029,-4.85567 -10.281253,-6.71284 -22.580705,-7.72271 -5.008049,-0.4112 -18.284028,-0.1783 -22.637326,0.39713 -15.152461,2.00288 -21.088741,5.45235 -22.937021,13.32828 -0.41379,1.76325 -0.4786,3.29358 -0.4786,11.29987 v 9.26041 l 18.52083,0.13229 18.520832,0.1323 v 2.38125 2.38125 L -105.81,220.72836 c -29.37631,0.16876 -28.2615,0.11641 -32.29189,1.51646 -3.09853,1.07634 -5.90886,2.8501 -8.29289,5.23414 -4.70113,4.70113 -6.65027,9.99589 -8.78972,23.87692 -0.0752,0.48781 -0.18326,0.84038 -0.24017,0.78347 -0.33861,-0.33861 1.17126,-8.79279 2.4011,-13.44436 2.02961,-7.67655 7.25446,-13.82548 13.94663,-16.41328 4.51542,-1.74606 2.90833,-1.65725 33.00235,-1.82375 l 27.384379,-0.15151 v -2.11666 -2.11667 l -18.520833,-0.13229 -18.520836,-0.13229 0.003,-9.78959 c 0.003,-9.47774 0.0232,-9.85932 0.62607,-11.97896 1.45864,-5.12865 4.92647,-8.26807 11.40908,-10.32861 7.35766,-2.33868 19.789583,-3.55897 30.415742,-2.98553 8.08437,0.43627 14.348078,1.28571 17.514897,2.37526 6.875746,2.3656 12.224544,7.62589 14.156261,13.92201 0.45552,1.48469 0.487061,2.94111 0.487061,22.48958 v 20.90208 l -0.619559,1.97298 c -1.75791,5.59806 -5.144436,9.67426 -10.007563,12.04562 -3.846499,1.87564 -2.824942,1.80192 -27.472877,1.98242 -21.884052,0.16026 -22.253412,0.17163 -24.077082,0.74123 -7.91089,2.47088 -14.16343,8.84634 -16.33202,16.65309 -0.52657,1.89562 -0.58356,2.87683 -0.7189,12.37758 l -0.147,10.31875 -7.14375,0.036 c -3.92906,0.0198 -7.85387,-0.0684 -8.72179,-0.196 z m 482.9874,-0.37618 c -7.75581,-1.21625 -14.37989,-5.14572 -19.1612,-11.36659 -2.11524,-2.75212 -2.76003,-3.77481 -4.24828,-6.73812 -3.06428,-6.10131 -4.63635,-13.39352 -4.63635,-21.5061 0,-11.79384 3.59018,-21.17112 10.98021,-28.67936 6.62247,-6.72841 14.51372,-9.68622 24.73854,-9.27251 9.23951,0.37385 16.03555,3.39701 22.28752,9.91444 8.4905,8.85099 11.8586,21.16159 9.84332,35.978 -0.85757,6.30507 -2.93098,12.07297 -6.08391,16.92454 -5.60869,8.63041 -12.59427,13.30041 -22.07818,14.75974 -3.05866,0.47065 -8.59346,0.46397 -11.64167,-0.014 z m 12.16356,-0.53382 c 6.68486,-1.08411 12.06833,-3.94083 16.88891,-8.96204 7.4472,-7.7572 11.38404,-19.47438 10.80839,-32.16896 -0.37688,-8.3106 -2.33,-14.76571 -6.27505,-20.73899 -5.24843,-7.94678 -12.6384,-12.88209 -21.42225,-14.3066 -3.21143,-0.52081 -8.94485,-0.52081 -12.15628,0 -13.31098,2.15869 -23.54072,12.74203 -26.76895,27.69429 -0.76338,3.53574 -0.96632,12.13696 -0.38878,16.47942 0.78245,5.88342 2.36855,11.13219 4.59726,15.21354 5.20875,9.53854 12.69209,15.19664 22.21683,16.79798 2.9116,0.48951 9.4561,0.48499 12.49992,-0.009 z M 348.00742,288.184 c -8.28696,-2.24366 -13.56863,-10.0724 -15.57891,-23.09187 -0.6578,-4.26026 -0.65265,-13.80147 0.01,-17.79026 1.59969,-9.63473 5.29987,-15.54815 11.59512,-18.53069 5.63441,-2.66944 11.61759,-2.64729 17.13095,0.0634 2.65078,1.3033 6.05174,4.62672 7.78894,7.61144 3.39701,5.83636 4.93996,13.49968 4.55475,22.62187 -0.63987,15.15289 -4.53366,24.02349 -12.19605,27.78437 -2.42284,1.18919 -4.43082,1.6231 -8.06979,1.74382 -2.70933,0.0899 -3.65577,0.0154 -5.23465,-0.4121 z m 9.28346,-0.44091 c 7.72964,-1.74124 12.48235,-7.66222 14.59632,-18.18427 1.5045,-7.48829 1.59792,-16.5432 0.24053,-23.31249 -2.38842,-11.91112 -9.79556,-19.05983 -19.67941,-18.99281 -7.3006,0.0495 -13.38639,3.87399 -16.73294,10.51543 -0.95957,1.90436 -2.18877,5.93368 -2.74429,8.99583 -0.38163,2.10356 -0.48024,4.02865 -0.48114,9.39271 0,5.88254 0.0772,7.18752 0.61,10.18646 2.1269,11.97096 7.4623,19.58024 15.00949,21.40639 2.16887,0.52479 6.83601,0.5211 9.18144,-0.007 z m -133.71962,8.09298 c -7.95716,-0.9302 -14.06075,-5.02145 -16.51984,-11.07327 -1.41917,-3.49261 -1.44685,-4.09107 -1.44685,-31.2858 v -25.10076 h -3.93636 c -3.03414,0 -4.00617,-0.0841 -4.24098,-0.36707 -0.2059,-0.24809 -0.28073,-1.55587 -0.23085,-4.03489 l 0.0738,-3.66783 4.10104,-0.13229 4.10104,-0.13229 0.0693,-10.0905 c 0.057,-8.30009 0.13546,-10.14546 0.44246,-10.40024 0.48699,-0.40416 11.18751,-4.2478 11.82568,-4.2478 0.4685,0 0.4926,0.53403 0.55841,12.36927 l 0.0688,12.36927 6.87917,0.13229 6.87916,0.13229 0.0732,3.73208 c 0.0567,2.89045 -0.008,3.79931 -0.28602,4.03018 -0.23981,0.19902 -2.55045,0.32165 -6.95235,0.36896 l -6.59315,0.0709 -0.0748,24.20937 c -0.0782,25.29308 -0.009,27.27201 1.0509,30.04149 1.34843,3.52369 4.78399,5.57113 10.24755,6.10711 2.74056,0.26885 2.66698,0.16713 2.66698,3.68705 0,3.01973 -0.005,3.04166 -0.67869,3.29798 -0.77745,0.29559 -5.49388,0.28655 -8.07754,-0.0155 z m 8.16959,-3.36452 0.0748,-2.97656 h -0.76777 c -1.72588,0 -5.57509,-0.8633 -7.18706,-1.61193 -0.94589,-0.43928 -2.1804,-1.23857 -2.74336,-1.77619 -1.17724,-1.12423 -2.40665,-3.51451 -2.80744,-5.45823 -0.18381,-0.89149 -0.25313,-9.93155 -0.20704,-27.00469 l 0.0693,-25.66458 6.81302,-0.0706 6.81302,-0.0706 v -3.5674 -3.56741 h -6.46065 c -3.55335,0 -6.64898,-0.0723 -6.87917,-0.1606 -0.37322,-0.14322 -0.41851,-1.47554 -0.41851,-12.31143 0,-9.83919 -0.0666,-12.1764 -0.35034,-12.28526 -0.19267,-0.0739 -2.84181,0.74981 -5.88698,1.83055 l -5.53664,1.965 -0.0693,10.12687 c -0.0475,6.93782 -0.16187,10.23834 -0.36314,10.48087 -0.22125,0.26658 -1.26582,0.354 -4.23013,0.354 h -3.93637 v 3.57187 3.57188 h 4.07273 c 3.46972,0 4.09652,0.062 4.23334,0.41851 0.0883,0.23018 0.1606,11.75738 0.1606,25.61599 0,16.4409 0.0966,25.74306 0.27807,26.76742 1.38264,7.80617 6.96246,13.04468 15.33234,14.39449 1.09141,0.17601 2.16297,0.35662 2.38125,0.40136 0.21828,0.0447 2.00422,0.0638 3.96875,0.0423 l 3.57188,-0.039 z m 15.05053,2.13872 c -0.26262,-0.26262 -0.21375,-114.33388 0.0491,-114.4963 0.28935,-0.17882 9.9691,-3.21551 11.01881,-3.45677 0.43624,-0.10026 0.69728,-0.0833 0.58002,0.0376 -0.11724,0.12097 -2.67684,1.00005 -5.68799,1.9535 l -5.47484,1.73355 v 57.00395 57.00394 l 5.75469,0.0713 5.75469,0.0713 v -28.33297 c 0,-19.62964 0.087,-28.49556 0.28329,-28.86229 0.59462,-1.11109 7.9107,-5.44315 12.05166,-7.13615 3.58267,-1.46475 6.34037,-2.08659 9.22859,-2.081 4.24442,0.008 6.67716,0.96335 9.39519,3.68872 1.68278,1.68729 3.47819,4.63515 4.20066,6.89697 1.19875,3.75298 1.1766,3.25263 1.33504,30.15182 l 0.15036,25.53229 h 5.68854 5.68854 l 0.0674,-27.20644 c 0.064,-25.84074 0.0422,-27.32828 -0.43487,-29.63334 -0.84783,-4.09646 -2.12383,-6.79532 -4.79189,-10.13529 -2.33926,-2.92835 -6.41361,-5.54134 -10.31875,-6.61771 -2.48439,-0.68477 -10.21834,-0.68246 -13.89063,0.004 -5.3042,0.99173 -10.96494,3.24168 -15.35432,6.10282 -2.40038,1.56464 -2.88071,1.7248 -3.14071,1.04724 -0.28401,-0.7401 -0.17399,-51.69788 0.11162,-51.69788 0.16778,0 0.25946,9.06346 0.25946,25.64897 0,15.27318 0.0982,25.70964 0.2427,25.79897 0.13351,0.0825 0.99671,-0.35224 1.91823,-0.96609 4.38107,-2.91832 10.72867,-5.44813 16.22761,-6.46745 3.91443,-0.7256 10.86328,-0.66056 13.74298,0.12864 7.47946,2.04978 13.29391,8.15362 15.28877,16.04967 l 0.60158,2.38125 v 27.91354 27.91354 h -6.21771 -6.21771 L 294.7619,268.725 c -0.13907,-25.83285 -0.14179,-25.93703 -0.73181,-28.04583 -1.21537,-4.34386 -3.38376,-7.96049 -5.86468,-9.78166 -4.50802,-3.3092 -10.70634,-3.16592 -18.52909,0.42829 -2.6022,1.1956 -8.61134,4.74651 -9.62845,5.68964 l -0.69283,0.64244 v 28.56429 28.56429 h -6.17361 c -3.3955,0 -6.253,-0.0794 -6.35,-0.17639 z M 397.95665,262.77632 V 230.7564 l 1.63346,-1.20248 c 4.28929,-3.15761 11.18637,-6.7988 15.75321,-8.31665 7.61105,-2.52964 16.59003,-3.49772 23.25811,-2.5076 9.59025,1.42401 16.76863,6.90355 19.04969,14.54137 0.44087,1.47628 0.48035,3.64499 0.56327,30.95624 0.049,16.15282 0.0225,29.63664 -0.0591,29.96406 l -0.14827,0.59532 h -6.18437 c -5.39525,0 -6.20485,-0.0534 -6.34495,-0.41852 -0.0883,-0.23018 -0.1606,-12.35551 -0.1606,-26.94517 0,-25.53505 -0.0196,-26.60293 -0.52176,-28.56672 -1.01182,-3.95613 -3.34539,-7.28641 -6.53846,-9.33108 -6.65496,-4.26151 -17.59045,-3.47778 -26.01269,1.8643 l -1.45521,0.92301 -0.13229,31.17094 -0.13229,31.17095 -6.28386,0.0709 -6.28385,0.0709 z m 12.10577,0.59194 0.0673,-31.02153 1.12336,-0.82004 c 1.61671,-1.18015 5.42282,-3.04727 7.80421,-3.82844 4.47164,-1.46682 10.27274,-1.78471 14.22127,-0.7793 4.49712,1.14509 8.55192,4.21207 10.49674,7.93959 2.03342,3.89733 1.90259,1.84832 2.06121,32.27916 l 0.14205,27.25208 h 5.82083 5.82084 v -29.89791 -29.89792 l -0.72827,-2.05804 c -1.86116,-5.25958 -6.26218,-9.56812 -11.95768,-11.70637 -4.22585,-1.5865 -5.88039,-1.8352 -12.18489,-1.83153 -4.42706,0.003 -6.42268,0.11529 -8.33437,0.4707 -3.59823,0.66895 -8.36933,1.9354 -10.76762,2.85817 -4.10874,1.58087 -9.70232,4.64482 -13.77248,7.54403 l -1.65365,1.1779 v 31.56025 c 0,17.35813 0.0816,31.64187 0.18143,31.74165 0.0998,0.0998 2.74891,0.14938 5.88697,0.11024 l 5.70556,-0.0712 z m -565.81729,-1.38993 c 0,-0.50933 0.0545,-0.71769 0.121,-0.46303 0.0666,0.25467 0.0666,0.67138 0,0.92605 -0.0666,0.25466 -0.121,0.0463 -0.121,-0.46302 z m 0,-7.14375 c 0,-0.50933 0.0545,-0.71769 0.121,-0.46302 0.0666,0.25466 0.0666,0.67138 0,0.92604 -0.0666,0.25466 -0.121,0.0463 -0.121,-0.46302 z m 637.78745,-52.17407 -0.0707,-6.69572 -2.23578,-0.0777 c -2.32524,-0.0808 -2.92359,-0.31332 -2.92359,-1.13602 0,-0.89523 0.87672,-1.03524 6.48229,-1.03524 5.60557,0 6.48229,0.14001 6.48229,1.03524 0,0.8227 -0.59835,1.0552 -2.92359,1.13602 l -2.23578,0.0777 -0.1323,6.61458 -0.13229,6.61458 -1.1199,0.0811 -1.1199,0.0811 z m 1.91365,-0.21674 c 0.0728,-3.56344 0.22862,-6.62781 0.34634,-6.80971 0.14517,-0.22429 0.9816,-0.33073 2.59908,-0.33073 2.12899,0 2.37548,-0.0497 2.29603,-0.46302 -0.0811,-0.42183 -0.61238,-0.46936 -5.97252,-0.53423 -5.71289,-0.0691 -5.88352,-0.056 -5.88352,0.45309 0,0.47941 0.20955,0.53082 2.4474,0.60038 l 2.4474,0.0761 0.071,6.46097 c 0.0722,6.57586 0.18108,7.28235 1.09532,7.10696 0.36719,-0.0704 0.43818,-0.91169 0.55351,-6.55978 z m 7.59727,6.71863 c -0.10393,-0.10392 -0.18894,-3.54963 -0.18894,-7.65715 0,-8.23211 -0.0961,-7.78942 1.69087,-7.78942 0.46961,0 1.0455,0.14883 1.27979,0.33073 0.23948,0.18592 1.15938,2.79529 2.10109,5.95977 0.92133,3.09597 1.79419,5.65581 1.93971,5.68854 0.14552,0.0327 1.18679,-2.55252 2.31391,-5.74498 1.12713,-3.19247 2.19869,-5.89931 2.38125,-6.01522 0.46421,-0.29473 2.05171,-0.2717 2.05171,0.0298 0,0.13674 -0.44587,0.28557 -0.99083,0.33073 l -0.99087,0.0821 -2.11868,6.00671 c -1.16527,3.30369 -2.24843,6.13647 -2.40702,6.29507 -0.20809,0.20808 -0.36099,0.19316 -0.54925,-0.0536 -0.20962,-0.27477 -2.42726,-7.42154 -3.57909,-11.53442 -0.2371,-0.84668 -0.28311,-0.87125 -1.48519,-0.79375 l -1.24052,0.08 -0.0704,7.04167 c -0.0611,6.1112 -0.0159,7.0869 0.34195,7.38389 0.2563,0.21272 0.50612,0.24844 0.66016,0.0944 0.13631,-0.1363 0.28009,-2.74467 0.31951,-5.79639 0.0951,-7.36119 0.25003,-7.35317 2.7055,0.13998 l 1.86412,5.68854 h 0.79375 0.79375 l 1.77662,-5.15937 c 2.84414,-8.25942 2.85359,-8.26215 2.85359,-0.82615 0,5.87707 0.0151,5.9483 1.32291,6.18872 0.43101,0.0792 0.26967,0.13416 -0.46302,0.15764 l -1.12448,0.036 v -5.15937 c 0,-2.95218 -0.10379,-5.15937 -0.24265,-5.15937 -0.13345,0 -0.80462,1.69664 -1.49153,3.77031 -2.30114,6.94702 -2.09222,6.54843 -3.43234,6.54843 h -1.15977 l -1.61219,-4.94084 c -0.88672,-2.71746 -1.69574,-5.06895 -1.79781,-5.22552 -0.10205,-0.15657 -0.24511,2.03704 -0.31787,4.8747 l -0.13229,5.15937 -0.80325,0.0787 c -0.4418,0.0433 -0.88829,-0.006 -0.99219,-0.11024 z m -592.32642,-2.73498 c -2.37848,-0.52225 -4.35606,-2.12869 -5.28835,-4.29586 -0.70826,-1.64639 -0.66327,-4.52184 0.0952,-6.08196 1.53431,-3.15615 5.15004,-4.77436 8.495038,-3.80194 2.041203,0.59339 4.080367,2.57309 4.760942,4.62211 0.890823,2.68202 0.05655,5.98883 -1.95694,7.75669 -1.691016,1.48473 -4.189643,2.22172 -6.10586,1.80096 z m 3.541179,-0.60135 c 0.664679,-0.19847 1.621417,-0.84283 2.455315,-1.65365 2.215057,-2.15375 2.739951,-5.00226 1.456439,-7.90385 -2.315059,-5.23358 -9.703633,-5.2846 -12.392153,-0.0856 -0.55735,1.07781 -0.7516,3.73596 -0.37475,5.12848 0.72726,2.6874 3.53156,4.83978 6.305675,4.83978 0.803246,0 1.950508,-0.14633 2.549474,-0.32518 z"
           id="path4012"
           inkscape:connector-curvature="0" />
        <path
           style="fill:#4785b7;stroke-width:0.264583"
           d="m -135.92984,296.09167 c -6.8732,-0.90058 -12.16438,-5.47415 -15.35692,-13.27418 -1.07486,-2.62612 -2.18288,-7.02751 -3.05933,-12.15266 -0.38152,-2.23096 -0.83191,-4.65161 -1.00088,-5.37921 -0.41294,-1.77825 -0.41359,-11.76013 -8.7e-4,-13.49375 0.17322,-0.72761 0.56772,-2.87073 0.87667,-4.7625 1.61337,-9.87899 3.87172,-15.34574 8.07639,-19.55041 2.38403,-2.38404 5.19436,-4.1578 8.29289,-5.23414 4.03039,-1.40005 2.91558,-1.3477 32.29189,-1.51646 l 27.384372,-0.15732 v -2.38125 -2.38125 l -18.520832,-0.1323 -18.52083,-0.13229 v -9.26041 c 0,-8.00629 0.0648,-9.53662 0.4786,-11.29987 1.84828,-7.87593 7.78456,-11.3254 22.937021,-13.32828 4.353298,-0.57543 17.629277,-0.80833 22.637326,-0.39713 6.048092,0.49659 10.858838,1.2873 13.680037,2.24849 6.114897,2.08336 11.250993,6.66579 13.178626,11.758 1.240054,3.27583 1.28874,4.24162 1.235723,24.51254 l -0.04983,19.05 -0.148405,-19.97605 c -0.163322,-21.98372 -0.09806,-21.11688 -1.856634,-24.66131 -2.59969,-5.23971 -7.958669,-9.31631 -14.303362,-10.88065 -1.735235,-0.42784 -7.909377,-1.33982 -8.037874,-1.18728 -0.03913,0.0464 -6.358758,7.46633 -14.043625,16.48862 l -13.972484,16.40417 7.544741,0.15662 c 4.149609,0.0862 7.682876,0.24201 7.851709,0.34635 0.197694,0.12218 0.306964,1.07559 0.306964,2.67833 0,2.18964 -0.06148,2.52153 -0.511773,2.76251 -0.326212,0.17459 -4.13957,0.27639 -10.517187,0.28078 l -10.005414,0.007 -25.796869,30.28844 c -14.18828,16.65865 -25.83094,30.49656 -25.87258,30.75093 -0.12445,0.76026 2.14547,5.08974 3.718,7.09144 1.72845,2.20016 3.6542,3.7537 6.02094,4.85721 3.18011,1.48276 4.29987,1.63435 12.49171,1.69114 l 7.47839,0.0519 0.14108,-10.45104 0.14108,-10.45104 0.74966,-2.24896 c 2.25957,-6.77866 6.75384,-11.92368 12.95326,-14.82882 3.95431,-1.85306 5.57313,-2.14998 12.208662,-2.2393 l 5.820833,-0.0784 -5.556249,0.20685 c -3.527076,0.1313 -6.218476,0.36441 -7.369546,0.63828 -4.13853,0.98466 -7.86273,2.96447 -10.91335,5.80159 -2.51896,2.34267 -4.10739,4.4827 -5.5245,7.44296 -2.0252,4.23052 -2.06645,4.52853 -2.23592,16.15368 l -0.15043,10.31875 -6.74687,0.0348 c -3.71079,0.0191 -7.50159,-0.0641 -8.42401,-0.18497 z m 39.261406,-90.19313 c 3.404622,-1.47605 5.139344,-5.44291 3.948314,-9.02877 -0.680575,-2.04902 -2.719739,-4.02872 -4.760942,-4.62211 -3.344998,-0.97242 -6.960728,0.64579 -8.495038,3.80194 -0.75844,1.56012 -0.80343,4.43557 -0.0952,6.08196 1.59344,3.70405 5.72768,5.36032 9.402836,3.76698 z m 21.748535,50.06086 c 2.801276,-0.0428 7.385182,-0.0428 10.186458,0 2.801276,0.0429 0.509323,0.0779 -5.093229,0.0779 -5.602552,0 -7.894505,-0.0351 -5.093229,-0.0779 z m 16.671835,-0.25362 c 0.329118,-0.0633 0.805368,-0.0609 1.058333,0.005 0.252966,0.0662 -0.01632,0.11801 -0.598397,0.11507 -0.582084,-0.003 -0.789054,-0.0571 -0.459936,-0.1204 z m 1.848998,-0.25268 c 0.181901,-0.0734 0.479557,-0.0734 0.661458,0 0.181901,0.0734 0.03307,0.13345 -0.330729,0.13345 -0.363802,0 -0.51263,-0.06 -0.330729,-0.13345 z m 2.37816,-0.59813 c 4.200003,-1.56135 8.057318,-4.80833 10.082381,-8.48706 0.600797,-1.09141 1.093933,-1.87675 1.095857,-1.74522 0.01236,0.84554 -2.207678,4.00822 -4.215278,6.0051 -1.822683,1.81296 -2.742415,2.4973 -4.524576,3.36659 -1.230271,0.60009 -2.594044,1.15514 -3.030607,1.23345 -0.436562,0.0783 -0.170063,-0.0895 0.592223,-0.37286 z m 11.223354,-10.73602 c -7.93e-4,-0.14552 0.159118,-0.6813 0.355256,-1.19062 0.196139,-0.50933 0.360305,-0.74745 0.364813,-0.52917 0.0045,0.21828 -0.155358,0.75406 -0.355259,1.19062 -0.199898,0.43657 -0.364064,0.67469 -0.36481,0.52917 z m 0.931725,-3.43958 c 0.08403,-0.72761 0.197067,-1.37253 0.251182,-1.43316 0.185944,-0.20835 0.0455,1.43358 -0.179165,2.09462 -0.151609,0.44607 -0.175059,0.23069 -0.07202,-0.66146 z"
           id="path4010"
           inkscape:connector-curvature="0" />
        <path
           style="fill:#3874a4;stroke-width:0.264583"
           d="m -134.385,295.8347 c -5.49355,-0.35689 -9.41003,-2.35942 -12.62958,-6.45762 -1.57253,-2.0017 -3.84245,-6.33118 -3.718,-7.09144 0.0416,-0.25437 11.6843,-14.09228 25.87258,-30.75093 l 25.796873,-30.28844 10.005414,-0.007 c 6.377617,-0.004 10.190975,-0.10619 10.517187,-0.28078 0.450289,-0.24099 0.511773,-0.57288 0.511773,-2.76252 0,-1.60274 -0.10927,-2.55615 -0.306964,-2.67833 -0.168833,-0.10434 -3.7021,-0.2602 -7.851709,-0.34635 l -7.544741,-0.15662 13.972484,-16.40417 c 7.684867,-9.02229 14.004498,-16.44217 14.043625,-16.48862 0.128497,-0.15254 6.302639,0.75944 8.037874,1.18728 6.887864,1.69826 12.6164,6.40662 14.914737,12.25863 1.21508,3.09383 1.283989,4.56536 1.189411,25.4 -0.09903,21.81663 0.0051,20.59315 -2.117744,24.87083 -1.588399,3.20067 -4.733112,6.34977 -7.87864,7.88963 -4.400921,2.15441 -2.7422,2.02922 -27.252083,2.0569 -21.392467,0.0241 -21.869227,0.0359 -23.887587,0.58677 -5.74759,1.56879 -10.91416,5.21613 -14.12552,9.97191 -1.46184,2.16487 -2.2708,3.82637 -3.15611,6.48229 l -0.74966,2.24896 -0.14108,10.45104 -0.14108,10.45104 -5.15938,0.0275 c -2.83765,0.0152 -6.52859,-0.0614 -8.20208,-0.17012 z"
           id="path4008"
           inkscape:connector-curvature="0" />
        <path
           style="fill:#636363;stroke-width:0.264583"
           d="m 49.301972,331.08228 -5.622396,-2.03027 v -48.83927 -48.83926 l 1.791809,-1.72985 c 7.126057,-6.87963 20.366899,-11.17861 33.000898,-10.7146 4.663152,0.17127 7.424994,0.68302 10.270739,1.90311 3.345526,1.43436 4.913442,2.49894 7.603847,5.16285 3.885561,3.84731 6.402941,8.07751 8.423731,14.15521 2.10762,6.33883 2.81305,11.89994 2.59721,20.47437 -0.11953,4.7487 -0.25907,6.26328 -0.82215,8.92413 -2.66049,12.57203 -9.585204,21.5511 -19.209835,24.90883 -3.492167,1.2183 -5.512694,1.51975 -10.186458,1.51975 -6.445313,0 -10.821747,-1.12105 -17.451895,-4.47043 -2.66246,-1.34501 -3.906258,-1.84683 -4.099219,-1.65387 -0.188415,0.18842 -0.27701,7.15662 -0.27701,21.78763 0,11.83085 -0.0893,21.50193 -0.198438,21.49129 -0.109141,-0.0106 -2.728515,-0.93297 -5.820833,-2.04962 z m 30.814567,-44.08024 c 7.286186,-2.3438 11.661759,-8.92691 13.164002,-19.80543 0.858901,-6.21973 0.736671,-15.45197 -0.282763,-21.35787 -1.889215,-10.9448 -6.396222,-17.20359 -13.613447,-18.9047 -2.223026,-0.52397 -7.185099,-0.52562 -10.203952,-0.003 -2.971734,0.51407 -8.084463,2.23469 -10.757035,3.62012 -3.466935,1.79724 -3.102101,-1.31065 -3.102101,26.42587 v 24.03109 l 0.556008,0.518 c 0.942168,0.87777 7.130142,3.92626 9.772078,4.8142 3.69007,1.24021 5.768803,1.56773 9.25108,1.45755 2.374807,-0.0752 3.519791,-0.24975 5.21613,-0.79542 z m 63.075101,45.2893 c -0.47109,-1.25888 -1.69085,-6.29743 -1.55697,-6.43132 0.0775,-0.0775 2.32826,-0.49598 5.00174,-0.93004 10.92292,-1.77343 15.62031,-3.66404 19.96403,-8.03513 4.12911,-4.15517 5.26402,-8.30758 5.58853,-20.44768 0.13911,-5.20419 0.10922,-5.89852 -0.26014,-6.04025 -0.22953,-0.0881 -1.4677,0.2573 -2.75151,0.76751 -6.54727,2.60198 -12.2651,3.89328 -19.70169,4.44939 -6.37691,0.47686 -10.4307,-0.11573 -14.70152,-2.14911 -3.04409,-1.44931 -5.18274,-2.96421 -7.4862,-5.30281 -2.29981,-2.33489 -3.68869,-4.56164 -4.70313,-7.54045 l -0.72083,-2.11667 -0.072,-27.8151 -0.072,-27.8151 5.45259,-1.88438 c 2.99894,-1.0364 5.61676,-1.88437 5.81737,-1.88437 0.30704,0 0.37853,4.34262 0.45177,27.45052 0.0806,25.43515 0.12168,27.56707 0.5596,29.03802 1.93868,6.51219 6.82267,10.63739 14.09562,11.90568 6.75045,1.17718 13.7256,-0.46367 21.25975,-5.00119 l 1.98437,-1.19511 0.13229,-30.23907 0.13229,-30.23906 5.88698,-0.0712 5.88698,-0.0712 v 36.32364 c 0,22.23689 -0.10663,37.96363 -0.27493,40.55246 -0.48702,7.49134 -1.54686,13.32585 -3.14166,17.29499 -3.55454,8.8465 -15.29053,15.61536 -30.54022,17.61442 -1.71159,0.22437 -3.76364,0.40795 -4.56017,0.40795 -1.25944,0 -1.47722,-0.0776 -1.67095,-0.59532 z m 203.09948,-36.84629 c -9.52474,-1.60134 -17.00808,-7.25944 -22.21683,-16.79798 -2.22871,-4.08135 -3.81481,-9.33012 -4.59726,-15.21354 -0.57754,-4.34246 -0.3746,-12.94368 0.38878,-16.47942 1.63591,-7.57707 4.91545,-13.82253 9.96063,-18.96869 6.08349,-6.20526 13.41853,-9.13205 22.88646,-9.13205 9.75725,0 17.4149,3.17857 23.66576,9.82327 6.31388,6.71169 9.63345,15.12705 10.10968,25.62877 0.57565,12.69458 -3.36119,24.41176 -10.80839,32.16896 -4.82058,5.02121 -10.20405,7.87793 -16.88891,8.96204 -3.04382,0.49363 -9.58832,0.49815 -12.49992,0.009 z m 11.84574,-7.38612 c 9.69409,-2.61028 14.65191,-11.96113 15.37104,-28.99102 0.38521,-9.12219 -1.15773,-16.78551 -4.55474,-22.62187 -1.73721,-2.98472 -5.13816,-6.30814 -7.78894,-7.61144 -5.51336,-2.71071 -11.49654,-2.73286 -17.13095,-0.0634 -6.29526,2.98254 -9.99543,8.89596 -11.59513,18.53069 -0.66228,3.98879 -0.66743,13.53 -0.01,17.79026 2.01028,13.01947 7.29194,20.84821 15.5789,23.09187 1.57888,0.42747 2.52532,0.50198 5.23465,0.4121 1.85328,-0.0615 4.00521,-0.29765 4.89479,-0.53717 z m -134.01146,7.38592 c -0.21828,-0.0447 -1.28984,-0.22535 -2.38125,-0.40136 -8.36988,-1.34981 -13.9497,-6.58832 -15.33234,-14.39449 -0.18145,-1.02436 -0.27807,-10.32652 -0.27807,-26.76742 0,-13.85861 -0.0723,-25.38581 -0.1606,-25.61599 -0.13682,-0.35655 -0.76362,-0.41851 -4.23334,-0.41851 h -4.07273 v -3.57188 -3.57187 h 3.93637 c 2.96431,0 4.00888,-0.0874 4.23013,-0.354 0.20127,-0.24253 0.31562,-3.54305 0.36314,-10.48087 l 0.0693,-10.12687 5.53664,-1.965 c 3.04517,-1.08074 5.69431,-1.90449 5.88698,-1.83055 0.28369,0.10886 0.35034,2.44607 0.35034,12.28526 0,10.83589 0.0453,12.16821 0.41851,12.31143 0.23019,0.0883 3.32582,0.1606 6.87917,0.1606 h 6.46065 v 3.56741 3.5674 l -6.81302,0.0706 -6.81302,0.0706 -0.0693,25.66458 c -0.0461,17.07314 0.0233,26.1132 0.20704,27.00469 0.40079,1.94372 1.6302,4.334 2.80744,5.45823 0.56296,0.53762 1.79747,1.33691 2.74336,1.77619 1.61197,0.74863 5.46118,1.61193 7.18706,1.61193 h 0.76777 l -0.0748,2.97656 -0.0748,2.97657 -3.57188,0.039 c -1.96453,0.0215 -3.75047,0.002 -3.96875,-0.0423 z m 23.14104,-1.25351 c -0.0691,-0.1819 -0.0951,-25.86342 -0.0578,-57.07005 l 0.0678,-56.73933 5.29167,-1.65583 c 2.91042,-0.9107 5.49841,-1.78011 5.75109,-1.93202 0.2527,-0.15191 0.49083,-0.27621 0.52917,-0.27622 0.0384,-1e-5 0.0367,11.40023 -0.004,25.33386 -0.0403,13.93363 -0.008,25.60176 0.0712,25.92918 0.0795,0.32742 0.31679,0.59531 0.52729,0.59531 0.21051,0 1.39915,-0.66252 2.64142,-1.47228 4.38938,-2.86114 10.05012,-5.11108 15.35432,-6.10282 3.67229,-0.6866 11.40624,-0.68891 13.89063,-0.004 3.90514,1.07637 7.97949,3.68936 10.31875,6.61771 2.66806,3.33997 3.94406,6.03884 4.79189,10.1353 0.47705,2.30506 0.49887,3.79259 0.43487,29.63333 l -0.0673,27.20645 h -5.68854 -5.68854 L 295.28,268.85764 c -0.15844,-26.89919 -0.13629,-26.39884 -1.33504,-30.15182 -0.72247,-2.26182 -2.51788,-5.20968 -4.20066,-6.89697 -2.71803,-2.72537 -5.15077,-3.68049 -9.39519,-3.68872 -2.88822,-0.006 -5.64592,0.61625 -9.22859,2.081 -4.14096,1.693 -11.45704,6.02506 -12.05166,7.13615 -0.19627,0.36673 -0.28329,9.23116 -0.28329,28.85713 v 28.32781 h -5.69685 c -4.31406,0 -5.72736,-0.0803 -5.82253,-0.33073 z m 151.13622,0.15937 c -0.0998,-0.0998 -0.18143,-14.38352 -0.18143,-31.74165 v -31.56025 l 1.65365,-1.1779 c 4.07016,-2.89921 9.66374,-5.96316 13.77248,-7.54403 2.39829,-0.92277 7.16939,-2.18922 10.76762,-2.85817 1.91169,-0.35541 3.90731,-0.46812 8.33437,-0.4707 6.3045,-0.004 7.95904,0.24503 12.18489,1.83153 5.6955,2.13825 10.09652,6.44679 11.95768,11.70637 l 0.72827,2.05804 v 29.89792 29.89791 h -5.82084 -5.82083 l -0.14205,-27.25208 c -0.15862,-30.43084 -0.0278,-28.38183 -2.06121,-32.27916 -1.94482,-3.72752 -5.99962,-6.7945 -10.49674,-7.93959 -3.94853,-1.00541 -9.74963,-0.68752 -14.22127,0.7793 -2.38139,0.78117 -6.1875,2.64829 -7.80421,3.82844 l -1.12336,0.82004 -0.0673,31.02153 -0.0672,31.02152 -5.70556,0.0712 c -3.13806,0.0391 -5.7872,-0.0105 -5.88697,-0.11024 z m 84.26727,-85.62975 c -0.20301,-0.24461 -0.32478,-2.47536 -0.37253,-6.82437 l -0.071,-6.46097 -2.4474,-0.0761 c -2.23785,-0.0696 -2.4474,-0.12097 -2.4474,-0.60038 0,-0.50909 0.17063,-0.52223 5.88352,-0.45309 5.36014,0.0649 5.89142,0.1124 5.97252,0.53423 0.0795,0.41331 -0.16704,0.46302 -2.29603,0.46302 -1.61748,0 -2.45391,0.10644 -2.59908,0.33073 -0.11772,0.1819 -0.27358,3.24627 -0.34634,6.80971 -0.11533,5.64809 -0.18632,6.48934 -0.55351,6.55978 -0.23164,0.0445 -0.55692,-0.0827 -0.72279,-0.28259 z m 9.24904,-0.0137 c -0.22217,-0.26769 -0.28895,-2.32913 -0.23815,-7.35099 l 0.0706,-6.97897 1.24052,-0.08 c 1.20208,-0.0775 1.24809,-0.0529 1.48519,0.79375 1.33651,4.77225 3.37457,11.26167 3.62315,11.53649 0.25535,0.28228 0.35975,0.28228 0.58195,0 0.14891,-0.18921 1.18832,-2.96339 2.30978,-6.16485 1.12144,-3.20145 2.12048,-5.89508 2.22004,-5.98584 0.0996,-0.0907 0.68705,-0.22825 1.30551,-0.30555 l 1.12448,-0.14054 v 7.51544 7.51545 h -0.60854 c -1.17975,0 -1.24354,-0.31493 -1.24354,-6.13833 0,-7.41312 -0.0103,-7.41004 -2.85359,0.84667 l -1.77662,5.15937 h -0.79375 -0.79375 l -1.86412,-5.68854 c -1.29331,-3.94668 -1.98194,-5.68854 -2.24896,-5.68854 -0.32062,0 -0.4069,0.94539 -0.51713,5.6668 -0.13137,5.62682 -0.27382,6.39099 -1.02309,5.48817 z"
           id="path4006"
           inkscape:connector-curvature="0" />
      </g>
    </g>
  </g>
</svg>
