<?xml version="1.0" encoding="UTF-8" standalone="no"?>
<svg
   xmlns:dc="http://purl.org/dc/elements/1.1/"
   xmlns:cc="http://creativecommons.org/ns#"
   xmlns:rdf="http://www.w3.org/1999/02/22-rdf-syntax-ns#"
   xmlns:svg="http://www.w3.org/2000/svg"
   xmlns="http://www.w3.org/2000/svg"
   xmlns:sodipodi="http://sodipodi.sourceforge.net/DTD/sodipodi-0.dtd"
   xmlns:inkscape="http://www.inkscape.org/namespaces/inkscape"
   sodipodi:docname="asyncapi-python-white.svg"
   inkscape:version="1.0beta2 (2b71d25, 2019-12-03)"
   id="svg8"
   version="1.1"
   viewBox="0 0 110 60"
   height="60mm"
   width="110mm">
  <defs
     id="defs2" />
  <sodipodi:namedview
     inkscape:window-maximized="0"
     inkscape:window-y="36"
     inkscape:window-x="1437"
     inkscape:window-height="1007"
     inkscape:window-width="1746"
     showgrid="false"
     inkscape:document-rotation="0"
     inkscape:current-layer="layer1"
     inkscape:document-units="mm"
     inkscape:cy="153.66393"
     inkscape:cx="474.28966"
     inkscape:zoom="1.4"
     inkscape:pageshadow="2"
     inkscape:pageopacity="0.0"
     borderopacity="1.0"
     bordercolor="#666666"
     pagecolor="#ffffff"
     id="base" />
  <metadata
     id="metadata5">
    <rdf:RDF>
      <cc:Work
         rdf:about="">
        <dc:format>image/svg+xml</dc:format>
        <dc:type
           rdf:resource="http://purl.org/dc/dcmitype/StillImage" />
        <dc:title></dc:title>
      </cc:Work>
    </rdf:RDF>
  </metadata>
  <g
     id="layer1"
     inkscape:groupmode="layer"
     inkscape:label="Layer 1">
    <g
       transform="translate(-39.941204,-59.54575)"
       id="g4049">
      <path
         id="path3415"
         style="fill:#64b19a;fill-opacity:1;stroke-width:0.264583"
         d="m 53.491685,73.011856 c -2.027475,-1.463084 -3.72734,-2.7815 -3.777477,-2.929812 -0.146307,-0.432787 0.544095,-1.092674 1.014499,-0.969661 0.49574,0.129639 7.054115,4.852254 7.307291,5.261901 0.09238,0.149473 -0.06288,0.502609 -0.345017,0.784747 -0.507583,0.507583 -0.551755,0.484997 -4.199296,-2.147175 z m 4.432917,-0.03612 c -2.064485,-1.481688 -3.75361,-2.840537 -3.75361,-3.019665 0,-0.464005 0.723262,-1.00331 1.134107,-0.845654 0.510932,0.196063 7.030297,4.942656 7.227985,5.262522 0.09284,0.150211 -0.06153,0.503435 -0.34304,0.784943 -0.506053,0.506054 -0.554208,0.481418 -4.265442,-2.182146 z"
         inkscape:connector-curvature="0" />
      <path
         inkscape:connector-curvature="0"
         id="path2315"
         style="fill:#4b77b9;fill-opacity:1;stroke-width:0.264583"
         d="m 56.054182,62.225141 c -1.03582,0 -1.824024,0.09629 -1.751314,0.21394 0.0016,0.0024 -5.29e-4,0.0057 5.29e-4,0.0083 -0.203954,-0.254408 -2.161373,0.467728 -3.309877,1.225767 -1.109046,0.731993 -2.080011,2.178013 -2.182812,3.236494 -0.07607,-0.163385 -0.132318,-0.09921 -0.144177,0.188619 -0.01148,0.278916 0.05109,0.435187 0.13901,0.347266 0.0056,-0.0056 0.008,-0.01611 0.01291,-0.02273 0.04266,0.193275 0.150215,0.25364 0.343649,0.21549 0.22543,-0.04446 0.497425,-0.09015 0.604613,-0.101285 0.107188,-0.01114 0.365604,-0.429358 0.574643,-0.929659 0.696481,-1.666914 3.400933,-3.059245 5.942272,-3.059245 2.036614,0 5.591389,1.941955 5.591389,3.054594 0,0.533537 0.762487,1.17444 1.198377,1.007173 0.823664,-0.316068 0.25123,-2.028827 -1.108974,-3.319176 -1.077101,-1.021784 -3.75651,-2.208504 -4.134115,-1.830896 -0.03444,0.03444 -0.05871,0.06431 -0.07803,0.09199 0.0024,-0.01998 0.0085,-0.0406 0.0217,-0.06201 0.103167,-0.166923 -0.531622,-0.264583 -1.719791,-0.264583 z m 3.920175,1.148768 c 0.430768,0.207513 0.856694,0.442662 1.199409,0.675926 -0.34114,-0.231404 -0.768805,-0.467288 -1.199409,-0.675926 z m -10.58695,14.195515 c -0.228031,-0.0045 -0.429077,0.120121 -0.518316,0.385506 -0.008,-0.05667 -0.02098,-0.114239 -0.04289,-0.168981 -0.08446,-0.211066 -0.146978,-0.14803 -0.159678,0.160197 -0.01148,0.278916 0.05109,0.435186 0.139009,0.347265 0.0057,-0.0057 0.0084,-0.0164 0.01344,-0.02326 -0.0145,1.323951 1.99077,3.499262 3.918109,4.156852 0.575124,0.196226 1.150326,0.295879 1.300694,0.227375 -0.03899,0.115073 0.914683,0.208257 2.148705,0.208257 1.254106,0 2.215295,-0.104225 2.136304,-0.232027 -2.65e-4,-5.29e-4 -2.17e-4,-0.0011 -5.29e-4,-0.0016 0.18043,0.282913 1.786205,-0.369549 3.042708,-1.237134 1.029086,-0.710559 2.097545,-2.371558 2.097545,-3.261299 0,-0.407154 -0.165393,-0.559657 -0.608229,-0.559657 -0.45683,0 -0.693351,0.234132 -0.94878,0.940512 -0.691594,1.912567 -3.503483,3.204546 -6.459553,2.967259 C 52.917698,81.275746 50.921528,80.052247 50.257115,78.298522 50.081098,77.833924 49.709178,77.57567 49.3874,77.569367 Z m 12.910322,0.917258 c -0.09377,0.373607 -0.397084,0.820491 -0.812352,1.255736 0.400999,-0.453602 0.739947,-0.967256 0.812352,-1.255736 z M 50.1393,78.896476 c 0.04731,0.09486 0.09928,0.187413 0.154511,0.278019 -0.05461,-0.09117 -0.107709,-0.183142 -0.154511,-0.278019 z m -0.807188,0.02532 c 0.137078,0.388329 0.438729,0.832847 0.831474,1.266589 -0.394129,-0.43307 -0.694701,-0.876286 -0.831474,-1.266589 z m 0.976169,0.278019 c 0.823389,1.327906 2.479059,2.189974 4.318082,2.502691 -1.941547,-0.286848 -3.523379,-1.197705 -4.318082,-2.502691 z m 9.685713,1.728576 c -0.323434,0.193553 -0.652274,0.354618 -0.967382,0.461988 -0.149241,0.05085 -0.338656,0.09918 -0.54777,0.144177 0.534757,-0.14637 1.045263,-0.347718 1.515152,-0.606165 z M 52.693148,82.0167 c 0.115721,0.04486 0.229997,0.08463 0.340548,0.114204 0.353536,0.09455 0.647023,0.209786 0.826307,0.313674 -0.17558,-0.08898 -0.447691,-0.192119 -0.777732,-0.288353 -0.126976,-0.03703 -0.257508,-0.08566 -0.389123,-0.139525 z m 3.361034,0.876432 c -0.215799,0 -0.431602,0.01601 -0.595312,0.04754 -0.327422,0.06306 -0.05953,0.114723 0.595312,0.114723 0.654844,0 0.922734,-0.05166 0.595313,-0.114723 -0.163711,-0.03153 -0.379511,-0.04754 -0.595313,-0.04754 z" />
    </g>
    <path
       d="m 90.876376,5.844057 c -1.0366,-0.0122 -1.88786,0.06966 -2.13269,0.272851 -0.33379,0.277014 -0.39946,1.275194 -0.39946,6.06733 0,4.218353 0.0868,5.822352 0.32866,6.064229 0.18088,0.180874 0.62736,0.293777 0.99219,0.251148 0.63785,-0.07454 0.66861,-0.163833 0.79582,-2.326474 l 0.13229,-2.248958 2.12184,-0.138494 c 3.29904,-0.215317 4.91921,-1.446061 4.95421,-3.763076 0.0233,-1.544224 -0.69336,-2.771428 -2.02003,-3.459736 -0.80351,-0.416883 -3.04516,-0.698508 -4.77283,-0.71882 z m -9.02891,0.02066 c -0.57328,-0.01984 -1.20721,0.10482 -1.40456,0.342614 -0.44587,0.537252 -4.29177,11.832944 -4.12223,12.107272 0.22025,0.356378 1.59956,0.290365 1.90221,-0.09095 0.14438,-0.181901 0.40311,-0.76631 0.57464,-1.299147 0.38095,-1.183436 0.61265,-1.280541 3.0701,-1.280541 2.10944,0 2.12812,0.01164 2.77812,1.719792 0.34159,0.89766 0.53307,1.071102 1.25884,1.141532 0.52787,0.05123 0.90657,-0.05016 0.98857,-0.264584 0.17162,-0.448773 -3.76925,-11.911885 -4.18631,-12.177032 -0.19324,-0.122854 -0.51541,-0.18705 -0.85938,-0.198956 z m 18.758544,0.05168 c -0.24298,0.0049 -0.53395,0.03491 -0.818554,0.0925 l -0.59531,0.120406 v 6.036326 c 0,3.319952 0.0792,6.115529 0.17622,6.212538 0.25379,0.253799 1.675864,0.217842 1.675864,-0.04237 0,-0.120322 -0.35958,-0.165767 -0.79892,-0.101285 l -0.798914,0.116787 5.3e-4,-0.02532 0.732254,-0.08423 0.73277,-0.08423 V 12.204394 6.251269 h -0.66146 -0.661464 l 0.717274,-0.01188 c 0.39471,-0.0067 0.7817,-0.07628 0.8599,-0.154514 0.1158,-0.115805 -0.1552,-0.176628 -0.56017,-0.168463 z m -9.464534,0.209288 c 0.58331,-0.0035 1.21331,0.02286 1.81332,0.07545 l -1.449,-0.03204 c -1.10152,-0.02434 -1.88569,0.02252 -2.29599,0.13436 -0.0336,0.0092 -0.0567,0.01995 -0.0853,0.02997 0.0282,-0.01005 0.0525,-0.02064 0.0853,-0.02997 0.39579,-0.112707 1.11449,-0.172825 1.93167,-0.177768 z m 2.22002,0.118856 c 0.37491,0.04247 0.73564,0.09284 1.04489,0.159163 0.17916,0.03842 0.35813,0.09181 0.53434,0.158131 -0.0836,-0.02066 -0.16885,-0.03899 -0.25632,-0.05323 l -0.91622,-0.149347 1.00976,0.383958 c 0.21763,0.08273 0.41033,0.17008 0.59273,0.259932 -0.83882,-0.328358 -2.00634,-0.474382 -3.58687,-0.479041 l -2.77812,-0.0083 2.38125,-0.148312 z m -58.261045,0.0067 -1.947169,5.688541 c -1.07089,3.128698 -1.950069,5.905384 -1.953368,6.170166 -0.0043,0.343656 0.15658,0.457226 0.562239,0.396875 0.611037,-0.09091 0.792745,-0.334375 1.396296,-1.870687 l 0.389642,-0.992187 h 2.626196 2.626196 l 0.498678,1.389062 c 0.376037,1.048158 0.643837,1.410013 1.091407,1.473812 0.440145,0.06274 0.593243,-0.04805 0.593243,-0.429948 0,-0.283054 -0.878763,-3.05974 -1.952852,-6.170166 l -1.95285,-5.655468 h -0.98909 z m 45.438565,0 -1.12551,3.284553 c -0.6189,1.806448 -1.07768,3.331885 -1.01958,3.389974 0.0311,0.03105 0.2073,-0.388601 0.45321,-1.049031 -0.057,0.165206 -0.0911,0.268182 -0.14935,0.436666 -1.93171,5.591585 -1.96003,5.711796 -1.35702,5.711796 h -0.60978 l 0.51573,-1.498616 c 0.28358,-0.824243 0.46886,-1.544939 0.41186,-1.60197 -0.0242,-0.02421 -0.0959,0.101957 -0.18604,0.298691 0.3039,-0.936665 0.6507,-1.982076 1.05472,-3.15123 z m 0.18552,0.10387 0.94516,0.0801 0.94517,0.08062 0.97306,2.92282 -1.00252,-2.92282 -0.95705,-0.08217 c -0.45932,-0.03941 -0.84534,-0.02961 -0.93637,0.01913 z m 1.98386,0.08113 c 0,0 5.3e-4,0 5.3e-4,0 7.9e-4,0.0011 0.004,0.008 0.005,0.0093 -0.001,-0.0016 -0.004,-0.0078 -0.005,-0.0093 z m -47.413127,0.07958 h 0.79375 0.79375 l 1.895494,5.423958 c 0.421963,1.207408 0.794938,2.310279 1.113626,3.271637 -0.18913,-0.497544 -0.350078,-0.859153 -0.393258,-0.815973 -0.05703,0.05703 0.134397,0.796288 0.425815,1.643312 0.291417,0.847021 0.530198,1.660649 0.530198,1.807641 0,0.189296 -0.05242,0.221768 -0.137975,0.132807 0.01423,-0.01027 0.02839,-0.02114 0.04444,-0.03721 0.08071,-0.08071 -0.601745,-2.312043 -1.536341,-5.060156 0.0937,0.214553 0.167987,0.343609 0.196371,0.315224 0.06173,-0.06173 -0.394475,-1.590244 -1.013375,-3.396692 -1.104199,-3.222937 -1.139862,-3.284553 -1.918748,-3.284553 -0.65161,0 -0.78659,0.05691 -1.650544,2.506308 z M 36.263171,6.6662 c 0.46881,0.08534 0.755946,0.505674 0.747757,1.128096 -2.03e-4,0.01556 -0.004,0.02117 -0.0052,0.03411 C 36.727726,7.19335 36.489487,6.79739 36.263179,6.666226 Z M 35.905052,6.6703 C 35.490111,6.920805 35.037092,8.047938 34.358893,9.995163 35.244385,7.377301 35.520149,6.775779 35.905052,6.6703 Z m 56.549004,1.066086 c 0.56249,-0.0059 1.11385,0.02835 1.36942,0.0925 1.69136,0.424505 2.26609,2.54101 0.96739,3.562575 -0.54025,0.424957 -1.07798,0.548285 -2.38952,0.548285 -1.97416,0 -2.00029,-0.03287 -1.88826,-2.409155 l 0.0801,-1.691887 1.30535,-0.08268 c 0.17949,-0.01135 0.36802,-0.01765 0.55552,-0.01963 z m -56.732971,0.0062 c -0.286089,0.367445 -0.625745,1.157039 -1.135849,2.610694 -0.111839,0.318712 -0.207343,0.602107 -0.299206,0.877983 0.09157,-0.276344 0.188145,-0.562406 0.299206,-0.879017 0.547894,-1.561918 0.848217,-2.281513 1.135849,-2.60966 z m 0.489376,0.0217 c 0.02056,-5.29e-4 0.04048,0.0027 0.06046,0.0067 -0.0953,-0.0081 -0.203181,0.02961 -0.309022,0.09922 0.08876,-0.06066 0.172347,-0.103516 0.248563,-0.105936 z m 60.516195,0.02376 c 0.37635,0.424514 0.62404,0.888564 0.6532,1.316718 0.011,0.160721 0.0138,0.314926 0.0145,0.466638 -0.0672,-0.639795 -0.29528,-1.263563 -0.66766,-1.783356 z m -15.06212,0.01085 c 0.0534,0.0056 0.10662,0.02635 0.16071,0.06305 -0.0541,-0.03669 -0.10728,-0.05741 -0.16071,-0.06305 z M 35.885933,7.922404 c -0.252558,0.22375 -0.789339,1.640975 -1.240234,3.075263 0.449286,-1.44031 0.982318,-2.86357 1.223698,-3.063894 0.0059,-0.0049 0.01074,-0.0067 0.01654,-0.01138 z m 1.228865,0.153995 c 0.07967,0.05248 0.248587,0.45466 0.405144,0.977202 0.03322,0.110879 0.0602,0.215283 0.08733,0.31936 C 37.428943,8.879045 37.263806,8.43682 37.114795,8.076399 Z m -0.512114,0.02273 C 36.722805,8.310804 36.84999,8.631963 36.998525,9.087697 36.848493,8.67005 36.71115,8.319191 36.602684,8.099129 Z m -0.464055,0.203605 c 0.369115,-0.117774 2.050155,5.070747 1.829347,5.646166 -0.210155,0.547663 -3.557,0.525179 -3.768246,-0.02532 -0.195461,-0.50936 1.521839,-5.487776 1.938899,-5.620846 z m 65.063731,0.160713 c -0.026,0.06376 -0.0438,1.472054 -0.0439,3.873148 -2e-4,3.4925 0.0371,4.958173 0.0832,3.256648 0.046,-1.701525 0.0458,-4.559022 0,-6.35 -0.0143,-0.559679 -0.0274,-0.808778 -0.0393,-0.779796 z M 81.629906,8.76472 c 0.34791,0 1.68724,3.72867 1.68724,4.697389 0,0.55046 -0.11797,0.594278 -1.59577,0.594278 -1.14312,0 -1.63753,-0.10754 -1.74201,-0.379823 -0.20652,-0.538168 1.26318,-4.911844 1.65054,-4.911844 z m 15.40888,0.125058 c 0.001,0.0049 0.003,0.0091 0.005,0.01394 0.23535,0.852376 0.2019,1.593114 -0.10594,2.247407 0.12676,-0.344204 0.19663,-0.728101 0.20309,-1.154451 0.006,-0.412448 -0.029,-0.777404 -0.1018,-1.106908 z m -34.33795,0.387056 c -0.45662,0.0218 -0.90655,0.164103 -1.30897,0.445966 -0.49127,0.344096 -0.7417,0.369242 -1.26969,0.128675 -0.361637,-0.164769 -0.767651,-0.23151 -0.902269,-0.14831 -0.28235,0.174501 -0.338166,8.404969 -0.05891,8.684223 0.102045,0.102016 0.369935,0.150458 0.595313,0.107487 0.333226,-0.06353 0.435926,-0.67089 0.550356,-3.250446 0.0774,-1.744694 0.2401,-3.383967 0.36173,-3.642672 0.30693,-0.652835 1.01865,-0.984954 2.11099,-0.984954 1.49294,0 1.75234,0.630672 1.75234,4.260205 0,2.418318 0.0857,3.15441 0.39688,3.412712 0.31664,0.262782 0.47712,0.262782 0.79375,0 0.46177,-0.383233 0.55471,-4.685339 0.14004,-6.482292 -0.36427,-1.578533 -1.7917,-2.596022 -3.16156,-2.530594 z m 8.54624,0.0181 c -2.22313,0.0021 -3.78775,1.939666 -3.79925,4.704104 -0.009,2.156864 0.95742,3.915904 2.50786,4.565097 0.84486,0.353758 2.47567,0.288136 3.28869,-0.132292 1.05572,-0.545936 2.17756,-1.960287 2.08256,-2.62568 -0.12407,-0.86918 -0.94253,-0.668793 -1.49758,0.366903 -0.70592,1.317194 -2.02945,1.79727 -3.29696,1.195792 -1.15065,-0.546015 -1.7673,-1.76371 -1.7663,-3.484541 0.002,-2.355326 1.57324,-3.930475 3.23494,-3.24218 0.41667,0.17259 0.93361,0.654155 1.14877,1.070221 0.4275,0.826698 1.09605,0.996619 1.34721,0.342095 0.42688,-1.112432 -1.51488,-2.76122 -3.24994,-2.759519 z m -26.031482,0.02376 c -0.998538,-0.01458 -2.000446,0.347875 -2.542479,1.175124 -1.102003,1.681866 -0.201779,3.269178 2.252575,3.972882 0.815192,0.233731 1.74997,0.59694 2.077392,0.807186 1.302403,0.836313 0.302966,2.294435 -1.572514,2.294435 -0.965822,0 -1.237994,-0.1368 -1.979205,-0.994254 -0.554122,-0.641027 -1.004142,-0.938906 -1.26659,-0.838192 -0.844931,0.324228 -0.164785,1.696439 1.276924,2.575552 2.157315,1.315468 5.459614,-0.0044 5.459614,-2.182297 0,-1.13834 -0.995013,-2.020845 -3.014284,-2.673736 -2.214946,-0.716158 -2.812709,-1.387763 -2.061374,-2.315623 0.711118,-0.878191 2.07374,-0.832236 2.812748,0.09457 0.618154,0.775237 1.46916,0.944099 1.46916,0.291457 0,-1.358935 -1.452565,-2.185795 -2.911967,-2.207102 z m 26.059912,0.216009 c 0.44688,0.0064 0.89685,0.116411 1.32601,0.325562 0.16452,0.08017 0.32647,0.172032 0.48318,0.283186 -0.1582,-0.110342 -0.32417,-0.199917 -0.49299,-0.279053 l -0.26614,0.10387 c -0.14503,-0.06184 -0.27558,-0.09731 -0.38602,-0.104905 0.0495,-0.0062 0.0946,-0.0092 0.13281,-0.0088 l 0.51056,0.0057 c -0.69048,-0.321177 -1.45136,-0.386635 -2.15852,-0.211875 0.27791,-0.07614 0.56305,-0.117806 0.85111,-0.113685 z m 1.30741,0.325562 c 0.003,0.0013 0.006,0.0028 0.009,0.0041 l 0.01,-0.0041 z M 44.945327,9.576076 c -0.0079,7.94e-4 -0.01585,0.0013 -0.02376,0.0021 0.0079,-7.94e-4 0.01585,-0.0013 0.02376,-0.0021 z m 18.428329,0.02635 c 0.4959,0.0871 0.9622,0.319809 1.36943,0.700214 0.004,0.0038 0.008,0.008 0.0119,0.01188 -0.41723,-0.385585 -0.88567,-0.62285 -1.38131,-0.7121 z m -12.551168,0.01394 c -0.122452,-0.01384 -0.273585,0.06359 -0.457854,0.216525 -0.464608,0.385587 -0.543184,5.098163 -0.111104,6.653858 0.534443,1.92424 2.967382,3.006336 4.371827,1.944065 0.282475,-0.213651 0.66249,-0.392274 0.844391,-0.396875 0.452702,-0.01151 0.416309,1.175335 -0.06459,2.1053 -1.066808,2.062978 -3.26708,2.145229 -4.935098,0.185 -0.597538,-0.70222 -0.760669,-0.771356 -1.117246,-0.475422 -0.367665,0.305133 -0.372684,0.433604 -0.04134,1.074354 0.437478,0.845984 1.508985,1.609616 2.646868,1.886188 1.590675,0.386627 3.448082,-0.316505 4.475697,-1.693953 0.522991,-0.701029 0.557069,-1.070816 0.557069,-6.085416 0,-5.162645 -0.01749,-5.33921 -0.529166,-5.33921 -0.492419,0 -0.538351,0.220485 -0.661458,3.175 -0.145529,3.492775 -0.380514,4.16959 -1.592149,4.591968 -2.059612,0.717984 -2.905768,-0.689361 -2.905768,-4.832262 0,-2.105274 -0.112713,-2.967617 -0.480073,-3.00912 z m 19.394168,0.0925 c -0.006,0.0021 -0.0128,0.0041 -0.0191,0.0062 0.006,-0.0024 0.0128,-0.004 0.0191,-0.0062 z m -13.75472,0.114205 c -0.204759,0 -0.308602,0.198445 -0.358632,0.942062 0.04849,-0.742508 0.151926,-0.942062 0.358632,-0.942062 z m -10.467578,0.0186 c 0.202337,0.0091 0.247779,0.04528 0.138493,0.11834 -0.121885,-0.05075 -0.237376,-0.08848 -0.338481,-0.104386 0.07201,-0.01029 0.140599,-0.01662 0.199988,-0.01394 z m 24.666708,0.0062 c 0.16901,0.02779 0.0666,0.123074 -0.29404,0.267169 0.25048,-0.127858 0.37004,-0.231709 0.29404,-0.267169 z m -7.34683,0.01601 c 0.40659,0.02188 0.74905,0.107907 0.82062,0.223758 0.0276,0.0447 0.0471,0.08033 0.0615,0.111104 -0.27979,-0.206079 -0.54773,-0.305883 -0.88211,-0.334862 z m -0.54209,0.0021 c -0.35797,0.02527 -0.47355,0.07814 -0.22479,0.130741 0.29104,0.06155 0.79454,0.168511 1.11931,0.237713 0.009,0.0019 0.0166,0.0052 0.0253,0.0072 -0.18639,-0.03579 -0.42345,-0.08573 -0.74776,-0.153996 l -0.92604,-0.19482 z m -17.338477,0.07493 c 0.06201,0.0367 0.211606,0.08823 0.430982,0.15348 -0.20797,0.08996 -0.315492,0.146915 -0.321945,0.182417 -0.381891,-0.05018 -0.802658,0.009 -1.236617,0.18552 0.364307,-0.216085 0.77217,-0.410109 1.12758,-0.521417 z m 26.123467,0.0083 0.30541,0.05943 c 0.0553,0.01072 0.12094,0.03596 0.19017,0.06718 -0.23965,0.09393 -0.36548,0.14692 -0.35812,0.195852 -0.41731,-0.101616 -0.84187,-0.06796 -1.23558,0.11834 0.0553,-0.03099 0.10989,-0.06268 0.16743,-0.09095 0.29629,-0.145566 0.63594,-0.268809 0.93069,-0.349852 z m -20.982695,0.11679 0.01603,0.296106 -0.0093,0.568441 -0.01138,-0.853696 c 1.43e-4,-5.3e-4 2.65e-4,-5.3e-4 5.29e-4,-0.0011 0.0013,-0.0037 0.0028,-0.0062 0.0041,-0.0098 z m -6.680213,0.0217 c 0.01365,0.01365 -0.06644,0.120906 -0.230992,0.330729 -0.08521,0.108649 -0.168146,0.199845 -0.243914,0.279053 0.04105,-0.06693 0.08492,-0.131714 0.13436,-0.191719 0.405231,-0.491792 0.386218,-0.488673 -0.176733,0.03049 -0.101502,0.0936 -0.190304,0.19871 -0.267685,0.31161 -0.04569,-0.07246 0.113038,-0.261583 0.454235,-0.529167 0.209825,-0.164552 0.317074,-0.244652 0.330729,-0.230994 z m 2.624648,0 c 0.111956,0 0.419997,0.238784 0.684194,0.530717 0.04952,0.05472 0.09105,0.108193 0.13281,0.161232 -0.212632,-0.219872 -0.530201,-0.456422 -0.849561,-0.639239 -0.0053,-0.03358 0.0041,-0.05271 0.03256,-0.05271 z m 26.1953,0.01035 c 0.1166,0.0074 0.39653,0.208042 0.7953,0.632521 0.0625,0.06656 0.11701,0.134173 0.17105,0.201538 -0.27238,-0.283273 -0.65805,-0.578403 -1.02526,-0.790133 0.005,-0.03072 0.0245,-0.0461 0.0589,-0.04393 z m -26.866061,0.245465 c 0.06629,0.01228 0.141213,0.04097 0.222726,0.08371 -0.07182,-0.03317 -0.146465,-0.06028 -0.222726,-0.08371 z m -8.398455,0.09663 c 0.147982,0.357582 0.258824,0.47942 0.329698,0.364837 0.335269,1.086863 0.56207,1.882143 0.679545,2.440678 l -0.08785,0.413927 c -0.167966,0.788983 -0.179295,0.794131 -2.212266,0.870749 1.900256,-0.07169 2.052825,-0.120359 2.132168,-0.679545 0.04703,-0.33142 -0.37878,-1.937895 -0.841293,-3.410646 z m 9.257835,0.07235 c 0.169658,0.128429 0.307284,0.268168 0.376719,0.39791 0.01402,0.02622 0.02975,0.04516 0.04444,0.06924 -0.07721,-0.07352 -0.158338,-0.156488 -0.240811,-0.249079 -0.06878,-0.07722 -0.127135,-0.149342 -0.18035,-0.218075 z m 17.837671,0.39274 c 0.0177,0.03214 0.035,0.06606 0.0517,0.100769 z m 19.80086,5.29e-4 c 0.85074,2.430383 1.75203,5.073065 2.16265,6.387205 -0.014,-0.02114 -0.023,-0.0397 -0.0382,-0.06149 -0.21535,-0.307594 -0.23846,-0.258019 -0.10335,0.220141 0.0457,0.161589 0.0686,0.276672 0.0682,0.362252 -0.0617,-0.211119 -0.60876,-1.828231 -1.32601,-3.929475 0.27009,0.738391 0.45289,1.189913 0.48007,1.162719 0.0705,-0.07052 -0.5546,-2.080326 -1.24333,-4.141348 z m -19.40244,0.01447 c 0.0313,0.03713 0.0587,0.0762 0.0884,0.115756 -0.0293,-0.03822 -0.055,-0.07692 -0.0884,-0.115756 z m -22.239465,0.0098 c -0.03537,0.07102 -0.06793,0.143134 -0.09405,0.218074 -0.152355,0.437044 -0.183126,0.844373 -0.115755,1.20613 -0.127236,-0.494612 -0.03933,-0.989793 0.209806,-1.424204 z m 0.226859,0.01291 c 0.02262,-0.0059 0.04667,0.02 0.07545,0.07235 -0.227656,0.415033 -0.307205,0.905372 -0.23358,1.331701 -0.07746,-0.310735 -0.08912,-0.648454 -0.0078,-0.959631 0.07502,-0.28688 0.118115,-0.431906 0.165881,-0.444418 z m 25.929686,0.02997 c -0.19888,0.229449 -0.37406,0.472631 -0.49816,0.712618 -0.34475,0.666727 -0.44767,2.049338 -0.31936,3.233396 -0.0327,-0.210632 -0.061,-0.430289 -0.0822,-0.660426 l -0.13023,-1.416968 c 0.0443,-0.242022 0.10021,-0.477192 0.17002,-0.69918 0.0522,0.0063 0.21206,-0.212664 0.39843,-0.556556 0.20618,-0.380461 0.36814,-0.574096 0.46147,-0.612884 z m 4.40386,0.09043 c 0.36463,0.40296 0.69042,0.632089 0.75655,0.520382 -10e-4,0.0067 2.4e-4,0.01551 -0.002,0.02119 -0.0479,0.117666 -0.37886,-0.12718 -0.75448,-0.54157 z m -26.418022,0.05374 c 0.276556,0.323543 0.544737,0.515421 0.735354,0.544152 -0.215117,-0.0029 -0.509725,-0.184742 -0.721918,-0.524518 -0.0043,-0.0068 -0.0091,-0.01289 -0.01344,-0.01963 z m 18.305862,0.0863 c 0.0172,0.02698 0.0305,0.05297 0.0465,0.0801 -0.0144,-0.02758 -0.0306,-0.05371 -0.0465,-0.0801 z m -17.569474,0.0181 c -3.7e-5,0.01691 -0.0028,0.03119 -0.01138,0.03979 -0.0024,0.0024 -0.0073,0.0016 -0.01035,0.0031 0.0098,-0.01302 0.01791,-0.02706 0.0217,-0.04289 z m -4.194574,0.0052 c -0.02458,0.07015 -0.03913,0.150098 -0.05064,0.232542 0.0028,-0.03615 0.0068,-0.05983 0.0088,-0.108519 0.0016,-0.03756 0.01836,-0.07977 0.04186,-0.124023 z m 21.814168,0.06408 c 0.0994,0.170003 0.17714,0.340601 0.20412,0.478523 0.10407,0.532109 0.11348,0.528767 0.14728,-0.05374 1.4e-4,-0.0024 -5.3e-4,-0.0049 -5.3e-4,-0.0072 0.0801,0.280374 0.14292,0.597958 0.18811,0.960665 l -0.0796,2.511991 c -0.0218,0.690499 -0.0552,1.246817 -0.0951,1.681036 0.015,-0.521658 0.01,-1.219499 -0.016,-2.126486 -0.0628,-2.212858 -0.0907,-2.945765 -0.3483,-3.44475 z m 8.00882,0.05426 c 0.021,0.0272 0.0431,0.05441 0.0625,0.08165 0.31807,0.446672 0.57995,0.697071 0.76223,0.745172 0.0188,0.0049 0.0362,0.0061 0.0532,0.0067 -0.017,-5.29e-4 -0.0345,-0.0019 -0.0532,-0.0067 -0.18032,-0.04621 -0.43767,-0.289856 -0.74827,-0.726054 -0.0249,-0.0349 -0.0509,-0.06726 -0.0765,-0.100769 z m -30.04985,0.03101 c 0.08973,0.220503 0.137507,0.299246 0.160716,0.217559 -0.0099,0.174167 -2.65e-4,0.373025 0.02945,0.610814 0.05528,0.441867 0.404734,0.755669 1.344621,1.123963 -1.024321,-0.384458 -1.333601,-0.659532 -1.35237,-1.06712 -0.01381,-0.299961 -0.06756,-0.336262 -0.159166,-0.107487 -0.014,0.03498 -0.0182,0.07835 -0.01757,0.125058 -0.06238,-0.289846 -0.06376,-0.602959 -0.0057,-0.902787 z m 25.6775,0.111103 c -0.047,0.121836 -0.10485,0.255969 -0.18707,0.414962 -0.0265,0.05122 -0.0484,0.105958 -0.0723,0.159163 0.0741,-0.203364 0.16065,-0.395134 0.25941,-0.574125 z m -3.08921,1.255739 c 0.0972,0.834467 0.11091,1.899211 0.0558,3.297989 -0.0587,1.489565 -0.14733,2.003936 -0.38809,2.097548 0.24904,-0.106132 0.30841,-0.733287 0.31936,-2.891298 z m 29.62713,0.01394 c -0.007,0.0046 -0.0138,0.0094 -0.0212,0.01394 -0.47703,0.294658 -0.64466,0.457612 -0.55862,0.476972 -0.14851,0.04292 -0.30459,0.07971 -0.46612,0.112654 l -1.76682,-0.04547 c -0.85181,-0.02209 -1.50788,0.01558 -1.91151,0.103352 0.4113,-0.09623 1.07582,-0.155546 1.8588,-0.155546 1.17783,0 2.13262,-0.171575 2.86546,-0.505913 z m -52.252626,0.31161 c 0.03599,0.0356 0.07351,0.0696 0.114721,0.09974 0.120566,0.08816 0.217575,0.153162 0.303342,0.207222 -0.0061,-0.0024 -0.0077,-0.0028 -0.01394,-0.0052 -0.151202,-0.05802 -0.287499,-0.163914 -0.404109,-0.301789 z m 0.442349,0.0083 c 0.215289,0.239041 0.313876,0.358085 0.281639,0.381889 -0.01998,-0.0651 -0.114118,-0.193857 -0.281639,-0.381889 z m 40.275577,0.109554 c 0.12436,0.581072 0.11048,0.874487 -0.0181,1.029393 -0.0245,0.02955 -0.0744,0.05691 -0.13487,0.08372 0.22841,-0.198948 0.26354,-0.542552 0.15296,-1.11311 z m -16.0817,0.128675 -0.0145,0.609263 c -0.0309,1.276737 0.20703,2.25969 0.74363,3.026172 -0.11705,-0.162681 -0.22644,-0.332851 -0.31936,-0.517797 -0.40057,-0.797261 -0.53465,-1.997038 -0.4098,-3.117638 z m 0.76584,0.04857 c -0.20079,1.580333 0.35452,3.302254 1.67173,4.099492 -1.36355,-0.813766 -1.91136,-2.516447 -1.67173,-4.099492 z m 25.68474,0.02066 c -0.51047,0.09451 -1.08148,0.143145 -1.71824,0.143145 -0.3854,0 -0.74429,0.0274 -1.06144,0.06718 0.37757,-0.06052 0.82573,-0.110737 1.28933,-0.134361 z m -60.571499,0.281639 c -0.07031,0.612476 0.05325,0.908626 0.354502,1.024226 0.03178,0.0122 0.07363,0.02334 0.121955,0.03411 -0.08927,-0.01482 -0.165204,-0.0311 -0.209807,-0.04909 -0.250886,-0.101235 -0.34299,-0.411258 -0.26665,-1.00924 z m 9.953916,0.0062 c 0.306036,0.127624 0.667443,0.196159 1.072801,0.197919 0.173627,0.06314 0.394163,0.134308 0.638204,0.208772 -0.133929,0.107521 0.09026,0.251907 0.69505,0.482142 -0.219549,-0.08269 -0.449668,-0.165904 -0.712618,-0.252179 -0.777063,-0.254958 -1.310156,-0.447953 -1.693437,-0.636654 z m 3.033922,0.307991 c 0.08208,0.02995 0.15449,0.06141 0.230994,0.09198 -0.07444,-0.03144 -0.152109,-0.06197 -0.230994,-0.09198 z m -8.064106,0.01085 c 0.0088,0.421034 -0.123179,0.600898 -0.379307,0.699182 0.216363,-0.08302 0.346245,-0.329263 0.379307,-0.699182 z m 51.850067,0.04754 c -0.13387,0.371684 -0.21705,1.172051 -0.21705,2.18798 10e-6,-0.0088 0,-0.01183 0,-0.02066 0,-1.095637 0.0739,-1.818902 0.21705,-2.167311 z m -44.224178,0.06305 c 0.470644,0.06248 1.24097,0.402658 1.647447,0.781349 0.0021,0.0019 0.0036,0.0043 0.0057,0.0062 -0.234381,-0.214143 -0.931289,-0.524709 -1.65313,-0.787548 z m 0.748792,0.0036 c 0.880047,0.36384 1.388616,0.775698 1.597835,1.319819 -0.248973,-0.518496 -0.784355,-0.963181 -1.597835,-1.319819 z m -13.979508,0.0021 c -0.628719,1.864019 -1.127464,3.366156 -1.198375,3.633885 -0.03232,-0.03802 -0.07121,-0.07928 -0.09612,-0.112654 -0.02817,-0.03775 -0.05455,-0.06065 -0.07855,-0.06976 0.135371,-0.453966 0.412694,-1.309737 0.756025,-2.348177 -0.02627,0.08669 -0.06884,0.219893 -0.07028,0.235128 -0.05102,0.540414 0.157501,0.141967 0.687295,-1.338419 z m 13.005408,0.170532 c 0.122558,0.03816 0.240038,0.07812 0.352433,0.119372 -0.144799,-0.03933 -0.266795,-0.08015 -0.352433,-0.119372 z m 33.560746,0.131773 c 0.097,0.09702 1.03478,0.176218 2.08411,0.176218 0.064,0 0.10793,-0.0019 0.16898,-0.0021 -1.0202,0.0519 -2.07036,0.0086 -2.25309,-0.174151 z m -33.24862,0.257802 c 0.785183,0.279257 1.189831,0.527952 1.376143,0.857829 -0.236487,-0.304133 -0.683771,-0.576757 -1.376143,-0.857829 z m 10.271207,0.130225 c 0.0078,0.806278 0.0087,1.471218 0.0047,2.075841 0.0034,-0.599527 0.0034,-1.250069 -0.0047,-2.075841 z m -23.468851,0.300757 2.944006,0.07131 c -2.050886,-0.04532 -2.862766,0.02429 -3.016869,0.267169 -0.03012,0.04747 -0.05234,0.09058 -0.07596,0.134358 z m 14.665772,0.148312 c 0.250206,0.269534 0.377333,0.563097 0.376203,0.873332 -0.02949,-0.304766 -0.169584,-0.606759 -0.376203,-0.873332 z m -12.969753,0.165881 c 0.380235,-0.0021 0.853662,0.0069 1.447975,0.02326 l 2.770372,0.07596 h 0.0016 l 0.498679,1.389063 c 0.216603,0.603242 0.508478,1.067054 0.753443,1.290878 -0.240275,-0.210549 -0.530544,-0.669334 -0.753971,-1.290877 l -0.499714,-1.389063 h -2.903699 -2.503722 c 0.245329,-0.06637 0.607049,-0.0961 1.189074,-0.09922 z m 33.696135,0.116789 c 0.13216,0.433163 0.31469,0.841201 0.54622,1.198375 -0.24676,-0.339082 -0.42503,-0.732716 -0.54622,-1.198375 z m 6.48953,0.118857 c 0,0 5.3e-4,0 5.3e-4,0 0.025,0.02498 0.0456,0.05304 0.062,0.08371 -0.0165,-0.03067 -0.0375,-0.05873 -0.0625,-0.08371 z m -0.14366,0.113686 c 0.0158,0.01378 0.0248,0.04316 0.0258,0.08992 -10e-4,-0.04676 -0.0101,-0.07614 -0.0258,-0.08992 z m -18.931147,0.0615 c -0.04634,0.277222 -0.100351,0.491794 -0.162264,0.614431 -0.02588,0.05127 -0.06038,0.102484 -0.09405,0.15348 0.109233,-0.209161 0.193204,-0.458584 0.256315,-0.767911 z m -22.8415,0.08113 -0.358119,0.99632 c -0.178856,0.497546 -0.405474,0.932794 -0.597379,1.178224 -0.02741,-0.02323 -0.06087,-0.05871 -0.09199,-0.08837 0.142333,-0.143653 0.400547,-0.730652 0.620636,-1.428853 l 0.175183,-0.556038 c 0.0164,0.08903 0.106299,0.06951 0.251664,-0.101285 z m 9.310026,0.396875 c 0.0776,-0.02469 0.255505,0.11852 0.45992,0.384471 0.0061,0.0079 0.01439,0.01678 0.02066,0.02479 -0.228256,-0.222432 -0.404323,-0.371869 -0.481624,-0.408244 5.29e-4,-1.61e-4 5.29e-4,-7.93e-4 0.0011,-0.0011 z m -0.03773,0.06511 c 0.0084,0.07805 0.03147,0.162748 0.06873,0.252698 -0.04373,-0.08982 -0.07342,-0.172021 -0.07235,-0.235127 1.27e-4,-0.0074 0.0028,-0.01114 0.0036,-0.01757 z m 14.531414,0.187584 c -0.0062,0.427249 -0.01908,0.790774 -0.03256,1.147218 0.01357,-0.356632 0.02609,-0.719384 0.03256,-1.147218 z m -6.006869,0.05633 c 0.148386,0.410853 0.361024,0.712941 0.662492,1.01441 0.04584,0.04584 0.09401,0.08975 0.143661,0.131776 -0.0037,7.94e-4 -0.0055,0.0041 -0.0098,0.0041 -0.113871,0 -0.381256,-0.267891 -0.59428,-0.595313 -0.08053,-0.12378 -0.146421,-0.309002 -0.202055,-0.555006 z m -2.837553,0.03876 c -0.0158,0.03556 -0.03741,0.07167 -0.05633,0.107487 0.02045,-0.03639 0.03892,-0.0722 0.05633,-0.107487 z m 20.539839,0.01188 c 0.24778,0.38816 0.62447,0.790784 0.97513,1.030946 -0.38563,-0.143332 -0.71593,-0.497519 -0.97513,-1.030946 z m 5.97121,0.02791 c -0.0324,0.05582 -0.0633,0.112662 -0.0982,0.16588 -0.12709,0.193972 -0.31308,0.403191 -0.50539,0.582912 0.22369,-0.216072 0.43611,-0.483981 0.60358,-0.748792 z m -22.984648,0.04496 c 0.09367,0.133143 0.205718,0.256907 0.352433,0.403592 0.705291,0.705157 1.615588,0.880801 2.501656,0.511599 -0.390951,0.220395 -0.81081,0.396372 -1.192694,0.498676 -0.101865,-0.03676 -0.261519,-0.08514 -0.49816,-0.15348 -0.143116,-0.04133 -0.272254,-0.08843 -0.39429,-0.14056 0.07225,0.0081 0.145611,0.01664 0.238744,0.03514 0.591127,0.117454 0.637858,0.09834 0.220657,-0.09043 -0.60579,-0.274111 -0.984932,-0.545635 -1.228346,-1.064535 z m -3.594614,0.04496 c -0.07711,0.141369 -0.177715,0.284424 -0.303858,0.428916 0.116263,-0.137446 0.221335,-0.285568 0.303858,-0.428916 z m -4.63796,0.05478 c 0.356097,0.352375 0.853625,0.715645 1.257287,0.895554 -0.369764,-0.142351 -0.886738,-0.523989 -1.257287,-0.895554 z m 41.694102,0.0011 c 0.15121,0.443198 0.31529,0.743566 0.50798,0.927076 -0.19388,-0.180975 -0.35433,-0.476705 -0.50798,-0.927076 z m -36.813781,0.08424 c -0.09701,0.191585 -0.228123,0.372216 -0.397391,0.531233 -0.515127,0.483937 -0.811453,0.64693 -0.78238,0.518832 0.533299,-0.247917 0.94276,-0.623458 1.179771,-1.050065 z m 20.400831,0.152961 c 0.0249,0.03251 0.0504,0.06442 0.0765,0.09612 -0.0262,-0.0314 -0.0512,-0.06374 -0.0765,-0.09612 z m 21.6054,0.306443 c -0.0107,0.270627 -0.0318,0.456872 -0.0672,0.590661 0.0354,-0.134109 0.0564,-0.319177 0.0672,-0.590661 z m -5.26841,0.0041 c 0.15511,0.426225 0.27926,0.651153 0.4501,0.772565 -0.17178,-0.120997 -0.2949,-0.344713 -0.4501,-0.772565 z m -37.746545,0.0016 c -0.175339,0.12558 -0.38259,0.221848 -0.617016,0.28112 0.229068,-0.07775 0.44251,-0.171664 0.617016,-0.28112 z m 31.192935,0.01551 c -0.12611,0.310663 -0.25449,0.510939 -0.41548,0.640786 0.1592,-0.131167 0.28975,-0.333557 0.41548,-0.640786 z m -4.71858,0.265099 c -0.077,0.05715 -0.15184,0.106331 -0.2191,0.141076 0.071,-0.03666 0.14487,-0.08603 0.2191,-0.141076 z m 11.87938,0.120923 c 0.0115,0.01021 0.0235,0.01746 0.0351,0.02687 -0.0117,-0.0092 -0.0237,-0.01691 -0.0351,-0.02687 z m -39.65753,0.04341 c -0.119353,0.04896 -0.0071,0.09474 0.251664,0.171567 -0.189447,0.01691 -0.403225,0.02479 -0.657842,0.02479 -0.280095,0 -0.503486,-0.0064 -0.698664,-0.02429 0.187471,-0.06103 0.315172,-0.106113 0.360702,-0.135392 0.237291,0.0181 0.490852,0.0013 0.74414,-0.03669 z m -2.26808,0.06098 c 0.09197,0.04737 0.205132,0.09319 0.3359,0.135392 -0.086,0 -0.205891,-0.05637 -0.3359,-0.135392 z m -12.117088,0.06201 c 0.045,0.17608 0.184894,0.3072 0.361217,0.331761 -0.0057,7.94e-4 -0.01265,0.0062 -0.0181,0.0062 -0.200052,0 -0.355222,-0.148828 -0.344681,-0.330729 5.3e-5,-7.94e-4 0.0013,-0.0062 0.0016,-0.0072 z m 20.456115,0.01291 c 0.224001,0.139804 0.4597,0.237231 0.677479,0.278022 -0.307364,0.01347 -0.547389,-0.05252 -0.655776,-0.227894 -0.01135,-0.01839 -0.01707,-0.0346 -0.02169,-0.05013 z m 34.010843,0.01601 c 0.0616,0.0087 0.12071,0.01564 0.17571,0.02066 -0.0516,-0.004 -0.10948,-0.0109 -0.17571,-0.02066 z m -15.91065,0.0062 c 0.22118,0.110106 0.43437,0.200414 0.60151,0.251664 -0.1896,-0.03951 -0.40082,-0.117454 -0.54932,-0.213424 -0.0225,-0.01455 -0.0335,-0.02506 -0.0522,-0.03824 z m 0.63355,0.0062 c 0.0273,0.01122 0.0518,0.01987 0.0801,0.03204 0.29879,0.128397 0.36054,0.203919 0.21188,0.22996 0.009,-0.04726 -0.0981,-0.142701 -0.29198,-0.262 z m 16.04502,0.01913 c -8e-4,0.139361 -0.16593,0.228047 -0.45837,0.26045 -0.0778,0.0086 -0.15652,0.01707 -0.2527,0.01707 -0.005,0 -0.008,-5.29e-4 -0.0124,-5.29e-4 0.0976,-2.65e-4 0.18644,-0.0055 0.2651,-0.01654 0.24701,-0.03467 0.39964,-0.122213 0.45837,-0.260451 z m -29.909292,0.01188 c -0.01842,0.390946 -0.04321,0.741125 -0.07493,1.052135 0.03137,-0.311971 0.0564,-0.659109 0.07493,-1.052135 z m -13.357326,0.01447 c 0.07804,0.04758 0.161177,0.08917 0.244949,0.129709 -0.08517,-0.04036 -0.168098,-0.08285 -0.244949,-0.129709 z m 34.470768,0.02585 c -0.012,0.0088 -0.0254,0.01519 -0.0377,0.02326 0.0123,-0.0083 0.0258,-0.01423 0.0377,-0.02326 z m -30.447757,0.01344 c -0.04433,0.02551 -0.08495,0.05278 -0.131773,0.077 -0.505349,0.261323 -1.170075,0.386543 -1.838132,0.383437 0.710113,-0.0077 1.415669,-0.170651 1.969905,-0.460437 z m 29.163597,0.02429 c 5.3e-4,0.0029 0.001,0.0046 0.002,0.0072 -5.3e-4,-7.94e-4 -0.002,-0.0016 -0.002,-0.0026 -2.6e-4,-5.29e-4 2.7e-4,-0.0038 0,-0.0047 z m -3.39049,0.031 c -0.0307,0.01643 -0.0615,0.03212 -0.0925,0.04754 0.0311,-0.01534 0.0619,-0.03125 0.0925,-0.04754 z m -26.743591,0.01603 c 0.01013,0.03116 -0.1031,0.05073 -0.280601,0.06511 0.09605,-0.01799 0.189257,-0.03979 0.280601,-0.06511 z m -2.07274,0.0041 c 0.148471,0.03089 0.303821,0.05396 0.458885,0.07441 -0.305475,-0.01132 -0.460872,-0.03404 -0.458885,-0.07441 z m 40.975801,0.03255 c 0.0192,0.01132 0.0424,0.01675 0.063,0.02585 -0.0206,-0.009 -0.0439,-0.01466 -0.063,-0.02585 z m 4.58163,0.02532 c -0.0474,0.03709 -0.10879,0.05412 -0.17983,0.06459 0.071,-0.01045 0.13241,-0.02743 0.17983,-0.06459 z m -46.146542,0.02223 c 0.02019,0.0085 0.04104,0.01614 0.06149,0.02429 -0.02064,-0.008 -0.0412,-0.01593 -0.06149,-0.02429 z m 33.600542,0.0041 c -0.003,2.65e-4 -0.006,0.0011 -0.009,0.0016 -0.0262,0.0031 -0.0506,0.0021 -0.0765,0.0041 0.0287,-0.0021 0.0565,-0.0024 0.0853,-0.0057 z m -0.32763,0.01188 c 0.022,5.29e-4 0.0419,0.0031 0.0646,0.0031 -0.0227,-9.3e-5 -0.0426,-0.0021 -0.0646,-0.0031 z m -4.19716,0.03772 c -0.0607,0.02469 -0.12192,0.04662 -0.18345,0.06769 0.0617,-0.02106 0.12296,-0.04323 0.18345,-0.06769 z m -0.37207,0.12764 c -0.0519,0.01453 -0.10378,0.0277 -0.15607,0.03979 0.0523,-0.01222 0.10434,-0.02524 0.15607,-0.03979 z m -0.38189,0.08475 c -0.0294,0.0048 -0.0584,0.01146 -0.0879,0.0155 0.0294,-0.0042 0.0585,-0.01056 0.0879,-0.0155 z m -26.900175,0.03204 c 0.07988,0.0031 0.159747,0.0076 0.239779,0.0067 -0.08004,-2.65e-4 -0.159904,-0.0026 -0.239779,-0.0067 z m 11.461834,0.63252 c -0.01236,0.113607 -0.02679,0.219652 -0.04134,0.323493 0.01437,-0.104486 0.02907,-0.209029 0.04134,-0.323493 z m -0.06511,0.492477 c -0.01074,0.06712 -0.02278,0.130747 -0.03462,0.193786 0.01175,-0.06378 0.02394,-0.12578 0.03462,-0.193786 z m -7.051764,0.325559 c 0.167219,-0.0035 0.375467,0.16173 0.65474,0.516766 -0.275399,-0.35011 -0.487627,-0.517557 -0.65474,-0.516766 z m -0.178801,0.07907 c -0.145581,0.151061 0.03426,0.558101 0.343131,0.982887 -0.411766,-0.508989 -0.516591,-0.810455 -0.347266,-0.979786 0.0013,-0.0013 0.0028,-0.0019 0.0041,-0.0031 z m 7.141165,0.05788 c -0.0047,0.01984 -0.0096,0.03899 -0.01447,0.0584 0.0048,-0.01961 0.0098,-0.03835 0.01447,-0.0584 z m -0.389122,0.317293 c -0.219041,0.533683 -0.556697,0.866159 -1.069703,1.269691 -0.04721,0.03714 -0.09625,0.06978 -0.144692,0.104902 0.466788,-0.370626 0.960932,-0.906907 1.214395,-1.374593 z m -5.787761,0.973585 c 0.702001,0.597246 0.958628,0.710033 0.689364,0.362767 0.108448,0.136144 0.157994,0.221176 0.121439,0.221176 -0.12078,0 -0.476359,-0.276754 -0.810803,-0.583943 z m 4.669999,0.649573 c -0.564747,0.314682 -1.153496,0.49798 -1.735812,0.555522 -0.09835,-0.07298 -0.305337,-0.07933 -0.484208,-0.0078 -0.02204,0.0088 -0.02885,0.01598 -0.04496,0.02429 -0.501579,-0.01656 -0.990635,-0.125809 -1.446941,-0.329178 0.318868,0.07286 0.755037,0.103158 1.224217,0.101285 0.0035,0.03712 0.162171,0.06414 0.449583,0.0677 0.420176,0.0052 0.627123,-0.04578 0.482658,-0.114205 0.605697,-0.05576 1.179137,-0.157019 1.555461,-0.297656 z"
       style="fill:#ffffff;stroke-width:0.264583"
       id="path2309"
       inkscape:connector-curvature="0" />
    <path
       style="fill:#fee46a;stroke-width:0.0428727"
       d="m 13.237007,57.309921 c -1.093648,-0.125356 -1.74018,-0.256597 -2.508166,-0.509143 -1.5384426,-0.505904 -2.4700965,-1.299985 -2.7690399,-2.360147 -0.088215,-0.312845 -0.089458,-6.743833 -0.0013,-7.095434 0.2708118,-1.080945 1.0801476,-1.946705 2.1488699,-2.298679 0.217357,-0.07158 0.515793,-0.07961 3.815671,-0.102611 3.500371,-0.0244 3.587032,-0.02701 3.902324,-0.11747 1.363421,-0.391184 2.350199,-1.367332 2.772369,-2.7425 0.114582,-0.373241 0.115791,-0.39061 0.139544,-2.005664 l 0.02396,-1.629163 1.319694,-0.01134 c 1.068137,-0.0092 1.374069,0.0013 1.604956,0.05482 1.154056,0.267642 1.916102,1.251877 2.366689,3.05674 0.534174,2.139679 0.589735,3.868101 0.175827,5.469775 -0.254366,0.984303 -0.716145,2.092295 -1.090865,2.617419 -0.358241,0.502031 -0.804738,0.824141 -1.385634,0.999622 -0.22794,0.06886 -0.610096,0.07467 -4.997423,0.07601 -5.119293,0.0016 -4.866711,-0.0096 -4.811148,0.212919 0.01178,0.04716 0.02167,0.187031 0.02199,0.310826 l 5.83e-4,0.225083 h 3.000273 3.000274 l 0.02646,0.105432 c 0.01456,0.05799 0.01794,0.689824 0.0075,1.40408 -0.02056,1.410515 -0.03334,1.49824 -0.293127,2.012994 -0.559088,1.107792 -2.149026,1.915272 -4.420778,2.245175 -0.432961,0.06288 -1.753186,0.115222 -2.049468,0.08126 z m 1.70588,-0.106245 c 0.228976,-0.02482 0.696064,-0.101203 1.037974,-0.169752 2.135031,-0.428044 3.454425,-1.274461 3.825137,-2.453898 0.09319,-0.296498 0.09772,-0.374382 0.09772,-1.682813 v -1.371927 l -2.986115,0.01585 c -2.976419,0.0158 -2.986268,0.01557 -3.033245,-0.07221 -0.06046,-0.112968 -0.06156,-0.748077 -0.0014,-0.808235 0.03207,-0.03207 1.443226,-0.03967 4.726716,-0.02546 4.177142,0.01808 4.715604,0.01288 5.002539,-0.04828 0.632657,-0.134865 1.096917,-0.453159 1.487261,-1.019657 0.266674,-0.387018 0.377167,-0.605198 0.626316,-1.236721 0.791226,-2.005541 0.90636,-3.77944 0.393668,-6.065371 -0.11601,-0.51725 -0.267343,-1.050809 -0.29804,-1.050809 -0.01998,0 -17.7323976,12.638062 -17.7914218,12.694433 -0.069388,0.06627 0.053768,0.637927 0.2069314,0.960526 0.1928,0.406082 0.4703689,0.7331 0.894385,1.053723 0.7836463,0.592557 2.1042714,1.059952 3.5483584,1.255833 0.545038,0.07393 1.693579,0.0865 2.263226,0.02476 z m 2.022733,-1.907133 c -0.257246,-0.0793 -0.532572,-0.321149 -0.674817,-0.592766 -0.154577,-0.295163 -0.165831,-0.812567 -0.02344,-1.077729 0.217933,-0.405841 0.630273,-0.662643 1.06399,-0.662643 0.31092,0 0.575234,0.108911 0.807496,0.332726 0.275609,0.265587 0.348962,0.44728 0.349553,0.865828 4.54e-4,0.320638 -0.01361,0.38845 -0.117083,0.564463 -0.306029,0.520586 -0.850301,0.741333 -1.405697,0.570121 z m 0.815895,-0.109108 c 0.41503,-0.18787 0.658729,-0.567769 0.657824,-1.025476 -6.48e-4,-0.328444 -0.07579,-0.525188 -0.291966,-0.764469 -0.221983,-0.245709 -0.481845,-0.36127 -0.808474,-0.35953 -0.641326,0.0034 -1.100663,0.473013 -1.099442,1.123999 8.59e-4,0.459771 0.210589,0.805996 0.608282,1.004174 0.282572,0.140812 0.651184,0.14922 0.933776,0.0213 z"
       id="path4018"
       inkscape:connector-curvature="0" />
    <path
       style="fill:#feda4f;stroke-width:0.0428727"
       d="m 13.270295,57.217346 c 0.100838,-0.0091 0.25518,-0.0089 0.342982,3.24e-4 0.0878,0.0092 0.0053,0.01662 -0.183343,0.01647 -0.188639,-1.62e-4 -0.260477,-0.0077 -0.159639,-0.01675 z m 0.879051,-1.28e-4 c 0.112717,-0.0089 0.286351,-0.0088 0.385854,3.24e-4 0.0995,0.009 0.0073,0.01624 -0.204939,0.01611 -0.212219,-1.28e-4 -0.293631,-0.0075 -0.180915,-0.01635 z m -1.351284,-0.04163 c 0.05333,-0.01026 0.130501,-0.0099 0.171491,8.1e-4 0.04099,0.01073 -0.0026,0.01912 -0.09696,0.01864 -0.09432,-4.87e-4 -0.127857,-0.0093 -0.07453,-0.01951 z m 2.100763,0 c 0.05333,-0.01026 0.1305,-0.0099 0.171491,8.1e-4 0.04099,0.01073 -0.0026,0.01912 -0.09696,0.01864 -0.09432,-4.87e-4 -0.127857,-0.0093 -0.07453,-0.01951 z m -2.421992,-0.04226 c 0.04171,-0.01087 0.09959,-0.01016 0.128618,0.0016 0.02903,0.01175 -0.0051,0.02064 -0.07584,0.01976 -0.07074,-8.1e-4 -0.09449,-0.01048 -0.05278,-0.02135 z m 2.786726,0 c 0.04171,-0.01087 0.09959,-0.01016 0.128618,0.0016 0.02903,0.01175 -0.0051,0.02064 -0.07584,0.01976 -0.07074,-8.1e-4 -0.09449,-0.01048 -0.05277,-0.02135 z m -3.043963,-0.04287 c 0.04171,-0.01087 0.09959,-0.01016 0.128618,0.0016 0.02903,0.01175 -0.0051,0.02064 -0.07584,0.01976 -0.07074,-8.1e-4 -0.09449,-0.01048 -0.05278,-0.02135 z m 3.32182,0.0013 c 0.02947,-0.01189 0.07771,-0.01189 0.107181,0 0.02947,0.01189 0.0054,0.02163 -0.05359,0.02163 -0.05895,0 -0.08306,-0.0097 -0.05359,-0.02163 z m -3.558436,-0.04287 c 0.02947,-0.01189 0.07771,-0.01189 0.107182,0 0.02948,0.01189 0.0054,0.02162 -0.05359,0.02162 -0.05895,0 -0.08306,-0.0097 -0.05359,-0.02162 z m 3.772799,0 c 0.02947,-0.01189 0.07771,-0.01189 0.107182,0 0.02947,0.01189 0.0054,0.02162 -0.05359,0.02162 -0.05895,0 -0.08307,-0.0097 -0.05359,-0.02162 z M 11.243426,56.885883 C 10.319098,56.628024 9.6812846,56.336551 9.1263834,55.91842 8.7075622,55.60283 8.4294003,55.274749 8.2369179,54.869338 8.0837541,54.546739 7.9605983,53.975081 8.0299865,53.908812 8.0890106,53.852441 25.801427,41.214379 25.821409,41.214379 c 0.0307,0 0.182029,0.53356 0.298039,1.050809 0.156452,0.697572 0.271142,1.508432 0.305253,2.158147 0.02829,0.538764 -0.03347,1.546098 -0.113426,1.850026 l -0.03947,0.150054 0.02051,-0.171492 c 0.01128,-0.09432 0.03332,-0.333698 0.04897,-0.53195 0.02401,-0.304061 0.01901,-0.354622 -0.03197,-0.323142 -0.03324,0.02052 -1.688491,1.200247 -3.678335,2.621603 l -3.6179,2.584285 2.181664,0.0146 c 1.199915,0.008 0.05587,0.01084 -2.542315,0.0062 -3.291768,-0.0058 -4.737807,0.0055 -4.769589,0.03724 -0.05859,0.05859 -0.05956,0.693991 -0.0012,0.802989 0.04294,0.08024 0.118351,0.08318 2.325845,0.09078 1.254805,0.0043 2.07889,0.01879 1.8313,0.03216 l -0.450163,0.0243 -3.482489,2.486617 c -1.91537,1.36764 -3.482903,2.499514 -3.483408,2.515277 -0.0011,0.03546 0.456994,0.189951 0.942281,0.317759 0.20043,0.05279 0.325832,0.0966 0.278672,0.09736 -0.04716,8.1e-4 -0.317258,-0.06321 -0.600217,-0.14214 z m 4.726717,0.120133 c 0.02947,-0.01189 0.07771,-0.01189 0.107182,0 0.02948,0.01189 0.0054,0.02163 -0.05359,0.02163 -0.05895,0 -0.08307,-0.0097 -0.05359,-0.02163 z m 0.214363,-0.04287 c 0.02948,-0.01189 0.07771,-0.01189 0.107182,0 0.02947,0.01189 0.0054,0.02162 -0.05359,0.02162 -0.05895,0 -0.08307,-0.0097 -0.05359,-0.02162 z m 0.217043,-0.04377 c 0.03095,-0.01238 0.06793,-0.01086 0.08217,0.0034 0.01425,0.01424 -0.01108,0.02438 -0.05627,0.02252 -0.04994,-0.0021 -0.0601,-0.01222 -0.0259,-0.0259 z m 0.200966,-0.05646 c 0.04716,-0.02027 0.114685,-0.03685 0.150055,-0.03685 0.04054,0 0.03261,0.01363 -0.02144,0.03685 -0.04716,0.02026 -0.114684,0.03685 -0.150054,0.03685 -0.04054,0 -0.03261,-0.01363 0.02144,-0.03685 z m 0.270634,-0.07216 c 0.03095,-0.01238 0.06793,-0.01086 0.08217,0.0034 0.01425,0.01424 -0.01107,0.02438 -0.05627,0.02252 -0.04995,-0.0021 -0.0601,-0.01222 -0.0259,-0.0259 z m 0.565384,-0.177844 c 0.03537,-0.02185 0.112541,-0.05263 0.171491,-0.0684 0.07449,-0.01993 0.08757,-0.01655 0.04287,0.01107 -0.03537,0.02185 -0.112541,0.05264 -0.171491,0.0684 -0.07449,0.01992 -0.08757,0.01655 -0.04287,-0.01107 z M 17.82796,56.46071 c 0.04368,-0.03999 0.553773,-0.282755 0.553773,-0.263551 0,0.02404 -0.495296,0.279907 -0.541832,0.279907 -0.01639,0 -0.02177,-0.0074 -0.01194,-0.01636 z m 0.596645,-0.297069 c 0,-0.01 0.08199,-0.07224 0.182209,-0.138332 0.100215,-0.06609 0.159577,-0.09277 0.131915,-0.05929 -0.05319,0.06439 -0.314124,0.228544 -0.314124,0.197622 z m 0.544276,-0.401201 c 0.09892,-0.09035 0.250194,-0.241436 0.33616,-0.335757 l 0.156303,-0.17149 -0.131125,0.175905 c -0.07212,0.09675 -0.223391,0.247839 -0.33616,0.335756 l -0.205036,0.159851 z m -1.712057,-0.387515 c 0.05333,-0.01026 0.130501,-0.0099 0.171491,8.1e-4 0.04099,0.01073 -0.0026,0.01912 -0.09696,0.01864 -0.09432,-4.86e-4 -0.127857,-0.0093 -0.07453,-0.01951 z m -0.212184,-0.04184 c 0.03095,-0.01238 0.06793,-0.01086 0.08217,0.0034 0.01425,0.01424 -0.01107,0.02438 -0.05627,0.02252 -0.04994,-0.0021 -0.0601,-0.01222 -0.0259,-0.0259 z m 0.58682,-0.01358 c 0.117861,-0.05065 0.185552,-0.05065 0.107182,0 -0.03537,0.02286 -0.09325,0.0405 -0.128618,0.0392 -0.0424,-0.0016 -0.0351,-0.01491 0.02144,-0.0392 z m -1.086085,-0.246519 -0.161002,-0.160773 0.151944,0.1285 c 0.08357,0.07067 0.170272,0.143021 0.192673,0.160773 0.0224,0.01775 0.02648,0.03227 0.0091,0.03227 -0.01742,0 -0.104122,-0.07235 -0.192673,-0.160773 z m 1.487234,0.05038 c 0.07915,-0.06454 0.199732,-0.194406 0.267955,-0.288584 0.06822,-0.09418 0.124041,-0.151764 0.124041,-0.127965 0,0.06438 -0.337607,0.43588 -0.443823,0.488382 -0.05065,0.02503 -0.02732,-0.0073 0.05183,-0.07183 z m 1.601076,-0.210213 c 0.0513,-0.105592 0.100627,-0.184633 0.109615,-0.175646 0.01939,0.0194 -0.153839,0.367633 -0.182882,0.367633 -0.011,0 0.02197,-0.08639 0.07327,-0.191987 z m -3.376212,-0.197852 c -0.03771,-0.07293 -0.06096,-0.140214 -0.05166,-0.149516 0.0093,-0.0093 0.049,0.05037 0.08821,0.132602 0.08817,0.184898 0.05762,0.199032 -0.03656,0.01691 z m 2.21339,-0.235389 c 0.0021,-0.04994 0.01222,-0.0601 0.0259,-0.0259 0.01238,0.03095 0.01086,0.06793 -0.0034,0.08217 -0.01425,0.01424 -0.02438,-0.01108 -0.02252,-0.05627 z m 1.329054,0 c 0.0021,-0.04994 0.01222,-0.0601 0.0259,-0.0259 0.01239,0.03095 0.01086,0.06793 -0.0034,0.08217 -0.01425,0.01424 -0.02438,-0.01108 -0.02252,-0.05627 z m -3.644181,-0.04287 c 0.0021,-0.04995 0.01222,-0.0601 0.0259,-0.0259 0.01239,0.03095 0.01086,0.06793 -0.0034,0.08217 -0.01425,0.01424 -0.02438,-0.01108 -0.02252,-0.05627 z m 2.367462,-0.275099 c 0,-0.129691 0.008,-0.182746 0.01786,-0.117901 0.0098,0.06484 0.0098,0.170955 0,0.2358 -0.0098,0.06484 -0.01786,0.0118 -0.01786,-0.117899 z m 1.319592,0.146481 c 0.0021,-0.04995 0.01222,-0.0601 0.0259,-0.0259 0.01238,0.03095 0.01086,0.06793 -0.0034,0.08217 -0.01425,0.01424 -0.02438,-0.01108 -0.02252,-0.05627 z m -3.721049,-0.167919 c 3.4e-4,-0.117899 0.0086,-0.161042 0.0185,-0.09587 0.0099,0.06517 0.0096,0.161632 -5.84e-4,0.214364 -0.01018,0.05273 -0.01824,-6.48e-4 -0.01792,-0.118491 z m 3.770592,-1.274101 -0.01006,-1.316976 -0.503754,-0.01358 -0.503755,-0.01358 0.5051,-0.0092 c 0.373838,-0.0068 0.510491,0.0048 0.525844,0.04484 0.01141,0.02973 0.01533,0.632631 0.0087,1.339772 l -0.01203,1.285713 z m -3.736597,0.97042 c 0.0021,-0.04994 0.01222,-0.0601 0.0259,-0.0259 0.01239,0.03095 0.01086,0.06793 -0.0034,0.08217 -0.01425,0.01424 -0.02438,-0.01108 -0.02252,-0.05627 z m 2.315127,0 c 0.0021,-0.04994 0.01222,-0.0601 0.0259,-0.0259 0.01238,0.03095 0.01086,0.06793 -0.0034,0.08217 -0.01425,0.01424 -0.02438,-0.01108 -0.02252,-0.05627 z m -2.273922,-0.130918 c -9.4e-4,-0.02681 0.06099,-0.142445 0.13762,-0.256966 0.136848,-0.2045 0.528718,-0.48793 0.673348,-0.487015 0.03641,1.62e-4 -0.03026,0.04615 -0.148158,0.102057 -0.227048,0.107652 -0.481546,0.348634 -0.593577,0.56205 -0.03713,0.07074 -0.06829,0.106683 -0.06923,0.07987 z m 2.188029,-0.09349 c -0.06053,-0.146141 -0.357233,-0.441739 -0.539146,-0.537145 -0.07074,-0.0371 -0.107406,-0.06823 -0.08148,-0.06917 0.174939,-0.0064 0.782785,0.618886 0.690941,0.710731 -0.01053,0.01053 -0.04217,-0.03646 -0.07032,-0.104414 z m -1.170751,-0.681977 c 0.07706,-0.0095 0.192814,-0.0094 0.257236,4.86e-4 0.06442,0.0098 0.0014,0.01759 -0.140104,0.01735 -0.14148,-3.24e-4 -0.194189,-0.0082 -0.117132,-0.01779 z m 6.301521,-2.355322 c 0.02947,-0.01189 0.07771,-0.01189 0.107182,0 0.02948,0.01189 0.0054,0.02163 -0.05359,0.02163 -0.05895,0 -0.08307,-0.0097 -0.05359,-0.02163 z m 0.217043,-0.04377 c 0.03095,-0.01238 0.06793,-0.01086 0.08217,0.0034 0.01425,0.01424 -0.01108,0.02438 -0.05627,0.02252 -0.04994,-0.0021 -0.0601,-0.01222 -0.0259,-0.0259 z m 0.474233,-0.185012 c 0.126716,-0.06985 0.260646,-0.151495 0.29762,-0.181433 0.05435,-0.044 0.06095,-0.04399 0.03448,4.2e-5 -0.03704,0.06163 -0.453911,0.30933 -0.519621,0.308756 -0.02358,-1.62e-4 0.0608,-0.05752 0.187522,-0.127375 z m 0.607063,-0.460947 c 0.127599,-0.147375 0.238974,-0.267955 0.2475,-0.267955 0.02946,0 -0.240807,0.321906 -0.359953,0.428728 -0.06575,0.05895 -0.01515,-0.0134 0.112453,-0.160773 z m 0.5238,-0.767995 c 0.100188,-0.192492 0.188246,-0.343962 0.195686,-0.336601 0.01889,0.01869 -0.227778,0.496595 -0.310118,0.600843 -0.03725,0.04716 0.01424,-0.07175 0.114432,-0.264242 z m 0.247782,-0.507467 c 0,-0.02358 0.0187,-0.07181 0.04156,-0.107182 0.02286,-0.03537 0.04156,-0.04502 0.04156,-0.02144 0,0.02358 -0.0187,0.07181 -0.04156,0.10718 -0.02286,0.03537 -0.04156,0.04502 -0.04156,0.02144 z m 0.08575,-0.214364 c 0,-0.02358 0.0187,-0.07181 0.04156,-0.107182 0.02286,-0.03537 0.04156,-0.04502 0.04156,-0.02144 0,0.02358 -0.0187,0.07181 -0.04156,0.107183 -0.02286,0.03537 -0.04156,0.04501 -0.04156,0.02144 z m 0.128618,-0.342983 c 0,-0.02358 0.0187,-0.07181 0.04156,-0.107182 0.02286,-0.03537 0.04156,-0.04502 0.04156,-0.02144 0,0.02358 -0.0187,0.07181 -0.04156,0.107182 -0.02286,0.03537 -0.04156,0.04502 -0.04156,0.02144 z m 0.176204,-0.493036 c 0,-0.03537 0.01658,-0.102895 0.03685,-0.150054 0.02323,-0.05405 0.03685,-0.06197 0.03685,-0.02144 0,0.03537 -0.01658,0.102894 -0.03685,0.150054 -0.02323,0.05405 -0.03685,0.06197 -0.03685,0.02144 z m 0.125977,-0.453736 c 0.0021,-0.04994 0.01222,-0.0601 0.0259,-0.0259 0.01238,0.03095 0.01086,0.06793 -0.0034,0.08217 -0.01425,0.01424 -0.02438,-0.01108 -0.02252,-0.05627 z m 0.04287,-0.17149 c 0.0021,-0.04994 0.01222,-0.0601 0.0259,-0.0259 0.01238,0.03095 0.01086,0.06793 -0.0034,0.08217 -0.01425,0.01424 -0.02438,-0.01108 -0.02252,-0.05627 z m 0.04883,-0.167919 c 4.42e-4,-0.04716 0.01553,-0.143623 0.03353,-0.214363 0.0294,-0.11553 0.03281,-0.117711 0.03353,-0.02144 4.37e-4,0.05895 -0.01465,0.155413 -0.03353,0.214363 -0.0269,0.08399 -0.03415,0.08863 -0.03353,0.02144 z"
       id="path4016"
       inkscape:connector-curvature="0" />
    <path
       style="fill:#fed33b;stroke-width:0.0428727"
       d="m 13.279823,57.200837 c -0.771403,-0.04921 -1.576859,-0.205215 -2.325788,-0.450488 -0.182744,-0.05985 -0.33185,-0.121701 -0.331344,-0.13745 5.02e-4,-0.01575 1.568038,-1.14761 3.483408,-2.51525 l 3.482489,-2.486617 0.514472,-0.02809 c 0.28296,-0.01544 0.79904,-0.02992 1.146845,-0.03215 l 0.632373,-0.0041 v 1.312148 c 0,1.058324 -0.01315,1.363104 -0.06796,1.575573 -0.279443,1.083148 -1.303065,1.893168 -2.99379,2.369067 -1.176397,0.331128 -2.409369,0.469489 -3.540704,0.397327 z m 4.584825,-1.944301 c 0.754824,-0.382499 0.909251,-1.38229 0.306183,-1.98228 -0.64848,-0.645171 -1.744057,-0.353301 -2.001797,0.533292 -0.294981,1.014699 0.765044,1.920543 1.695614,1.448988 z m 4.765778,-7.237689 c 1.990147,-1.421573 3.645645,-2.601471 3.678885,-2.621997 0.05106,-0.03153 0.05588,0.02188 0.03109,0.344446 -0.08269,1.075717 -0.553401,2.593014 -1.104895,3.561506 -0.236475,0.415279 -0.664379,0.854993 -1.005638,1.033396 -0.49369,0.258089 -0.583009,0.265991 -3.014241,0.266691 l -2.20365,6.49e-4 z"
       id="path4014"
       inkscape:connector-curvature="0" />
    <path
       style="fill:#ffffff;stroke-width:0.0428727"
       d="m 34.651927,56.397132 c -0.49518,-0.181028 -0.924443,-0.344343 -0.953918,-0.362924 -0.04256,-0.02683 -0.05359,-1.665224 -0.05359,-7.957988 v -7.924205 l 0.229369,-0.233061 c 1.230067,-1.249879 3.57241,-2.001091 5.74252,-1.841681 1.219009,0.08954 2.004505,0.427972 2.752708,1.185988 1.140271,1.155229 1.779217,3.067806 1.779217,5.325781 0,1.995517 -0.544463,3.579373 -1.630026,4.741783 -1.079381,1.15579 -2.673188,1.622005 -4.415266,1.291538 -0.539087,-0.102262 -1.074035,-0.293534 -1.738542,-0.621619 -0.331459,-0.163652 -0.615914,-0.297548 -0.632121,-0.297548 -0.01621,0 -0.0344,1.576918 -0.04044,3.50426 -0.0096,3.077639 -0.0188,3.505144 -0.07528,3.511538 -0.03537,0.004 -0.469457,-0.140834 -0.964636,-0.321862 z m 0.964636,-3.234109 c 0,-2.370788 0.01436,-3.499906 0.04489,-3.530437 0.03127,-0.03127 0.23281,0.05005 0.664232,0.267991 1.07434,0.542729 1.783491,0.724382 2.82788,0.724382 0.757331,0 1.084734,-0.04885 1.6506,-0.246258 1.559562,-0.544082 2.681633,-1.999038 3.112735,-4.036192 0.09124,-0.43116 0.113851,-0.676581 0.13322,-1.446054 0.03497,-1.389388 -0.07933,-2.290503 -0.420849,-3.317638 -0.327446,-0.984822 -0.735358,-1.670277 -1.364969,-2.29369 -0.43595,-0.431656 -0.690013,-0.60416 -1.232117,-0.836581 -0.46112,-0.197702 -0.908646,-0.280625 -1.664256,-0.308377 -2.047196,-0.07519 -4.192723,0.621413 -5.347419,1.736178 l -0.290343,0.280303 v 7.913845 7.913847 l 0.911046,0.328982 c 0.501074,0.180941 0.925514,0.330394 0.943199,0.332118 0.01769,0.0017 0.03215,-1.565364 0.03215,-3.482419 z m 2.379435,-3.90561 c -0.16506,-0.03173 -0.482709,-0.119071 -0.705887,-0.19408 -0.428095,-0.14388 -1.430786,-0.637853 -1.583453,-0.780086 l -0.09009,-0.08394 v -3.893964 c 0,-4.494387 -0.05912,-3.990789 0.50266,-4.28201 0.43306,-0.224493 1.261519,-0.5033 1.743055,-0.586599 0.48917,-0.08462 1.293218,-0.08435 1.653434,4.86e-4 1.169469,0.275646 1.899778,1.289811 2.205904,3.063291 0.165187,0.956984 0.184993,2.452963 0.04582,3.4608 -0.243421,1.76274 -0.952433,2.829458 -2.133076,3.209244 -0.431248,0.138723 -1.165839,0.177636 -1.63836,0.08679 z m 1.371927,-0.09031 c 0.848337,-0.178111 1.554121,-0.797745 1.933638,-1.697613 0.16224,-0.384688 0.335079,-1.057746 0.411745,-1.603398 0.08129,-0.578573 0.06854,-2.402699 -0.0213,-3.047003 -0.271655,-1.948223 -0.959054,-2.992934 -2.17403,-3.3041 -0.404286,-0.103541 -1.223597,-0.0915 -1.798796,0.02644 -0.687872,0.141042 -1.673028,0.536264 -1.920411,0.770427 l -0.09646,0.09131 v 3.89921 3.899209 l 0.182209,0.115189 c 0.285162,0.180274 1.181791,0.600267 1.491936,0.698843 0.691243,0.219703 1.40718,0.274164 1.991472,0.151491 z m 10.443561,7.446178 c -0.06669,-0.124603 -0.310651,-1.12927 -0.28834,-1.187409 0.01113,-0.02899 0.113403,-0.06565 0.227285,-0.08145 2.16569,-0.300528 3.121666,-0.641671 3.856036,-1.376042 0.51088,-0.51088 0.717873,-1.083686 0.828639,-2.293039 0.05441,-0.594098 0.06022,-1.886398 0.0085,-1.886398 -0.02033,0 -0.176726,0.05763 -0.347531,0.128062 -1.136083,0.468485 -2.448327,0.727845 -3.731271,0.737475 -0.859653,0.0064 -1.380492,-0.09957 -1.993582,-0.405803 -1.077022,-0.537969 -1.824554,-1.45084 -2.018613,-2.465085 -0.08738,-0.45668 -0.0908,-8.97747 -0.0036,-9.04981 0.07576,-0.06287 1.803222,-0.64909 1.912739,-0.64909 0.08472,0 0.08555,0.03793 0.09748,4.512354 l 0.01204,4.512352 0.100566,0.300109 c 0.266858,0.796379 0.818887,1.351238 1.621422,1.629735 0.783134,0.271765 1.759668,0.25682 2.651016,-0.04057 0.41926,-0.139884 1.023055,-0.429382 1.382465,-0.662846 l 0.26777,-0.173939 0.01091,-4.89926 0.01091,-4.899259 h 1.007509 1.007509 l 0.01293,5.659198 c 0.01314,5.747052 -0.008,6.894922 -0.146753,7.968065 -0.140061,1.083299 -0.418991,1.89124 -0.849335,2.460144 -0.830886,1.098428 -2.633092,1.936564 -4.678596,2.17584 -0.743883,0.08702 -0.905531,0.08477 -0.958034,-0.01334 z m 1.053155,-0.07368 c 2.471038,-0.323925 4.372722,-1.420742 4.948694,-2.854216 0.258419,-0.643154 0.430154,-1.58857 0.509071,-2.802456 0.02727,-0.419491 0.04455,-2.96783 0.04455,-6.571064 v -5.885832 l -0.953918,0.01154 -0.953918,0.01154 -0.02144,4.899895 -0.02144,4.899897 -0.321545,0.193654 c -1.220823,0.735253 -2.351067,1.001134 -3.4449,0.810386 -1.178499,-0.205512 -1.969894,-0.873954 -2.284035,-1.92918 -0.07096,-0.238351 -0.07762,-0.583804 -0.09068,-4.70528 -0.01186,-3.744372 -0.02345,-4.448044 -0.07321,-4.448044 -0.03251,0 -0.456694,0.137404 -0.942638,0.305341 l -0.88353,0.305342 0.01167,4.50712 0.01167,4.50712 0.116803,0.342982 c 0.164378,0.482682 0.38943,0.843502 0.762088,1.221844 0.37325,0.378943 0.719794,0.624416 1.213054,0.85926 0.692037,0.329486 1.348908,0.425508 2.382213,0.348239 1.205015,-0.09011 2.131524,-0.299352 3.192435,-0.720973 0.208026,-0.08267 0.408658,-0.138637 0.445851,-0.124366 0.05985,0.02296 0.06469,0.135473 0.04215,0.978753 -0.05258,1.967165 -0.236482,2.640016 -0.905557,3.313314 -0.703851,0.708285 -1.465009,1.014637 -3.234944,1.302001 -0.433207,0.07033 -0.797922,0.138151 -0.810475,0.150702 -0.02169,0.0217 0.175955,0.838135 0.252289,1.042122 0.03139,0.08389 0.06668,0.09647 0.270759,0.09647 0.129069,0 0.46158,-0.02975 0.738923,-0.0661 z M 4.5568155,50.684772 C 3.9826738,50.600375 3.4869783,50.358388 3.0490268,49.948706 2.4070364,49.348156 2.0179218,48.559696 1.7324276,47.280887 1.5674253,46.541805 1.4059943,45.458849 1.4895738,45.651725 c 0.020436,0.04716 0.038513,0.137516 0.040169,0.200791 0.00446,0.169968 0.204799,1.232603 0.3299268,1.749918 0.3262809,1.348947 0.9750608,2.32373 1.8233248,2.739518 0.6163381,0.302107 0.7493183,0.322073 2.1584692,0.324095 l 1.2433092,0.0018 0.024376,-1.672036 c 0.027461,-1.883723 0.034145,-1.932011 0.3623053,-2.617518 0.5179985,-1.082066 1.4593131,-1.842471 2.6635659,-2.151661 0.268592,-0.06896 0.592036,-0.07545 3.766514,-0.07551 3.45838,-8.6e-5 3.474068,-4.87e-4 3.807118,-0.09526 0.552081,-0.157135 0.902766,-0.367505 1.339634,-0.803623 0.316004,-0.315464 0.420789,-0.454746 0.565471,-0.751634 0.343591,-0.705055 0.325938,-0.498117 0.343781,-4.030036 0.0112,-2.217097 0.0014,-3.251872 -0.03312,-3.490963 -0.09898,-0.685879 -0.351554,-1.182333 -0.860888,-1.692155 -0.786054,-0.786806 -1.66596,-1.087739 -3.658946,-1.251377 -0.811497,-0.06663 -2.962718,-0.02889 -3.668121,0.06435 -2.455283,0.324544 -3.4171895,0.883492 -3.7166822,2.159696 -0.06705,0.285715 -0.077552,0.533687 -0.077552,1.831015 v 1.500544 l 3.0010892,0.02144 3.00109,0.02144 v 0.385854 0.385855 l -4.4373255,0.02549 c -4.7600961,0.02735 -4.5794539,0.01886 -5.2325326,0.245725 -0.5020815,0.174409 -0.9574634,0.461827 -1.3437683,0.848133 -0.7617645,0.761765 -1.0776004,1.61972 -1.4242739,3.868983 -0.012185,0.07904 -0.029695,0.136174 -0.038917,0.126952 C 1.4127227,43.466681 1.65738,42.09678 1.8566616,41.343046 2.1855367,40.099149 3.0321641,39.102785 4.116554,38.683461 4.8482263,38.400532 4.5878157,38.414923 9.4642085,38.387943 l 4.4373265,-0.02455 V 38.020412 37.67743 l -3.001089,-0.02144 -3.0010912,-0.02144 4.861e-4,-1.586292 c 4.861e-4,-1.535759 0.00376,-1.59759 0.1014475,-1.941054 0.236356,-0.831039 0.7982783,-1.339746 1.8487114,-1.673633 1.1922252,-0.378957 3.2066762,-0.576691 4.9285242,-0.483771 1.30998,0.07069 2.324943,0.208334 2.83809,0.384884 1.114136,0.383318 1.980848,1.235688 2.293861,2.255903 0.07381,0.240577 0.07892,0.476573 0.07892,3.64418 v 3.386943 l -0.100392,0.319699 c -0.28485,0.907102 -0.833597,1.567604 -1.621612,1.951856 -0.623281,0.303926 -0.457749,0.29198 -4.451666,0.321228 -3.546061,0.02597 -3.605912,0.02781 -3.9014174,0.120108 C 8.6324381,44.734979 7.6192853,45.76805 7.26789,47.033045 7.182565,47.340208 7.173331,47.499202 7.1514004,49.03869 l -0.02382,1.672036 -1.1575633,0.0058 c -0.6366594,0.0032 -1.2726301,-0.01108 -1.4132666,-0.03176 z m 78.2626025,-0.06095 c -1.256741,-0.19708 -2.330098,-0.833806 -3.104854,-1.841827 -0.342751,-0.445949 -0.447232,-0.611665 -0.688386,-1.091835 -0.496531,-0.988648 -0.751267,-2.170267 -0.751267,-3.484818 0,-1.911058 0.581747,-3.430539 1.779217,-4.647164 1.073096,-1.090262 2.351783,-1.569541 4.008599,-1.502504 1.497157,0.06058 2.598378,0.550446 3.611438,1.606522 1.375789,1.434202 1.921551,3.428994 1.594998,5.829824 -0.138959,1.021665 -0.474932,1.956288 -0.985828,2.742429 -0.908824,1.39846 -2.040758,2.15518 -3.577518,2.391648 -0.49562,0.07626 -1.392472,0.07518 -1.886399,-0.0023 z m 1.970966,-0.0865 c 1.083205,-0.175667 1.955535,-0.638566 2.736655,-1.452196 1.206734,-1.256966 1.844654,-3.155601 1.751377,-5.212613 -0.06107,-1.346638 -0.37755,-2.392615 -1.016801,-3.360517 -0.850448,-1.287685 -2.047908,-2.087396 -3.471231,-2.318222 -0.520376,-0.08439 -1.449411,-0.08439 -1.969787,0 -2.156892,0.349791 -3.814505,2.064701 -4.337603,4.487544 -0.123697,0.572927 -0.156581,1.966656 -0.063,2.670302 0.126787,0.953342 0.383796,1.803845 0.744933,2.465181 0.844019,1.545612 2.056609,2.462442 3.599984,2.721921 0.471792,0.07932 1.532253,0.07859 2.02547,-0.0015 z m -1.747363,-1.17517 c -1.342807,-0.36356 -2.198642,-1.632118 -2.524385,-3.741774 -0.106589,-0.690327 -0.105754,-2.236371 0.0016,-2.882709 0.259211,-1.561198 0.858783,-2.519401 1.878857,-3.002687 0.912992,-0.432553 1.882498,-0.428963 2.775875,0.01027 0.429529,0.211185 0.980615,0.749707 1.262109,1.233347 0.550447,0.945716 0.800464,2.187469 0.738045,3.665616 -0.103683,2.455353 -0.734628,3.892733 -1.976231,4.502141 -0.392593,0.192694 -0.717964,0.263004 -1.307617,0.282566 -0.439016,0.01457 -0.592376,0.0025 -0.848216,-0.06678 z m 1.504279,-0.07144 c 1.2525,-0.282148 2.022623,-1.241575 2.365167,-2.946553 0.243787,-1.213392 0.258925,-2.680637 0.03897,-3.777523 -0.387016,-1.930062 -1.587258,-3.088429 -3.188824,-3.077569 -1.182979,0.008 -2.169112,0.627736 -2.711382,1.703906 -0.155487,0.30858 -0.354665,0.961485 -0.444681,1.457671 -0.06184,0.340858 -0.07782,0.652797 -0.07796,1.521982 0,0.953199 0.01251,1.164656 0.09884,1.6506 0.344639,1.939757 1.20918,3.172754 2.432116,3.468661 0.351441,0.08504 1.107698,0.08444 1.487748,-0.0011 z M 62.87956,50.602078 C 61.590193,50.451349 60.601176,49.788409 60.202708,48.80778 59.972748,48.241843 59.968263,48.144869 59.968263,43.738273 V 39.670981 H 59.33042 c -0.491647,0 -0.649154,-0.01363 -0.687202,-0.05948 -0.03336,-0.0402 -0.04549,-0.252111 -0.03741,-0.653808 l 0.01196,-0.59433 0.664527,-0.02144 0.664526,-0.02144 0.01123,-1.635051 c 0.0092,-1.344935 0.02195,-1.643956 0.07169,-1.68524 0.07891,-0.06549 1.812809,-0.688308 1.916217,-0.688308 0.07592,0 0.07982,0.08653 0.09048,2.004299 l 0.01115,2.0043 1.114691,0.02144 1.11469,0.02144 0.01186,0.604741 c 0.0092,0.468364 -0.0013,0.615635 -0.04635,0.653044 -0.03886,0.03225 -0.413272,0.05212 -1.126549,0.05979 l -1.068345,0.01149 -0.01212,3.922852 c -0.01267,4.098455 -0.0015,4.419119 0.170287,4.867881 0.218497,0.570974 0.775191,0.902738 1.660498,0.989588 0.444077,0.04356 0.432154,0.02708 0.432154,0.597444 0,0.489313 -8.1e-4,0.492866 -0.109974,0.5344 -0.125977,0.0479 -0.890221,0.04643 -1.308873,-0.0025 z m 1.323789,-0.545182 0.01212,-0.482318 h -0.124408 c -0.279659,0 -0.90338,-0.139888 -1.164581,-0.261195 -0.153271,-0.07118 -0.353309,-0.200696 -0.44453,-0.287811 -0.190759,-0.182169 -0.389971,-0.569487 -0.454914,-0.884444 -0.02978,-0.144456 -0.04102,-1.609295 -0.03355,-4.375802 l 0.01123,-4.158653 1.103972,-0.01144 1.103972,-0.01144 v -0.578056 -0.578059 h -1.046874 c -0.57578,0 -1.077392,-0.01172 -1.114692,-0.02602 -0.06048,-0.02321 -0.06781,-0.239094 -0.06781,-1.994927 0,-1.594328 -0.01079,-1.973047 -0.05677,-1.990686 -0.03122,-0.01197 -0.460483,0.121498 -0.953918,0.29662 l -0.897149,0.318405 -0.01123,1.640944 c -0.0077,1.124195 -0.02623,1.659007 -0.05884,1.698306 -0.03585,0.0432 -0.205112,0.05736 -0.685445,0.05736 h -0.637843 v 0.578781 0.578783 h 0.659939 c 0.562229,0 0.663794,0.01005 0.685964,0.06781 0.01431,0.0373 0.02602,1.90515 0.02602,4.15078 0,2.66406 0.01565,4.171369 0.04506,4.337355 0.224041,1.264901 1.128187,2.113742 2.484431,2.332463 0.17685,0.02852 0.350484,0.05779 0.385854,0.06504 0.03537,0.0072 0.324761,0.01034 0.643091,0.0069 l 0.578782,-0.0063 z m 2.438767,0.346555 c -0.04256,-0.04256 -0.03464,-18.526502 0.008,-18.55282 0.04689,-0.02898 1.615379,-0.521037 1.785472,-0.560131 0.07069,-0.01625 0.112987,-0.0135 0.09399,0.0061 -0.019,0.0196 -0.433751,0.162047 -0.921674,0.316542 l -0.887135,0.280902 v 9.236841 9.236838 l 0.932482,0.01155 0.932481,0.01155 v -4.591035 c 0,-3.180759 0.0141,-4.61738 0.0459,-4.676805 0.09635,-0.180039 1.281839,-0.882 1.952834,-1.156332 0.580531,-0.237346 1.027385,-0.338108 1.495388,-0.337202 0.68776,0.0013 1.081958,0.1561 1.522384,0.597715 0.272675,0.273406 0.563601,0.751073 0.680669,1.117575 0.194244,0.608128 0.190654,0.527052 0.216328,4.885759 l 0.02436,4.137217 h 0.921763 0.921763 l 0.01092,-4.408494 c 0.01037,-4.187197 0.0068,-4.428236 -0.07046,-4.801745 -0.137381,-0.663784 -0.344143,-1.101104 -0.776471,-1.642308 -0.379051,-0.474506 -1.039253,-0.897911 -1.672036,-1.072324 -0.402567,-0.11096 -1.655766,-0.110585 -2.250818,6.48e-4 -0.859486,0.160698 -1.776744,0.525277 -2.487993,0.988892 -0.388954,0.253532 -0.466786,0.279484 -0.508916,0.169694 -0.04602,-0.119925 -0.02819,-8.377053 0.01809,-8.377053 0.02719,0 0.04204,1.468631 0.04204,4.156124 0,2.474844 0.01591,4.165954 0.03933,4.180429 0.02163,0.01337 0.161505,-0.05708 0.310827,-0.156544 0.709903,-0.472881 1.738459,-0.882808 2.629499,-1.047977 0.634289,-0.117575 1.760271,-0.107036 2.226894,0.02085 1.211961,0.332143 2.154126,1.321201 2.47737,2.600666 l 0.09748,0.385854 v 4.523071 4.523071 H 75.44532 74.437811 l -0.02262,-4.201526 c -0.02254,-4.185919 -0.02298,-4.2028 -0.118582,-4.544507 -0.196937,-0.703873 -0.5483,-1.289907 -0.950304,-1.585007 -0.730474,-0.536218 -1.734841,-0.513001 -3.002428,0.0694 -0.421657,0.193733 -1.39537,0.769118 -1.560181,0.921941 l -0.112265,0.1041 V 45.803483 50.432 h -1.000363 c -0.550202,0 -1.013227,-0.01287 -1.028945,-0.02858 z m 24.494608,-5.158329 v -5.188463 l 0.264684,-0.194848 c 0.695031,-0.511655 1.812624,-1.101668 2.552628,-1.347619 1.233284,-0.409899 2.688225,-0.566765 3.768712,-0.406327 1.55399,0.230744 2.717162,1.118641 3.086782,2.356263 0.0714,0.239214 0.0778,0.590629 0.0913,5.016106 0.008,2.61738 0.004,4.802279 -0.01,4.855334 l -0.024,0.09646 h -1.002104 c -0.874239,0 -1.005426,-0.0087 -1.028127,-0.06782 -0.01431,-0.0373 -0.02602,-2.002069 -0.02602,-4.366157 0,-4.137664 -0.0032,-4.310702 -0.08455,-4.628912 -0.163954,-0.641045 -0.542082,-1.180679 -1.059483,-1.511995 -1.07836,-0.690529 -2.850332,-0.563534 -4.21506,0.302089 l -0.2358,0.149563 -0.02144,5.050896 -0.02144,5.050897 -1.018228,0.01149 -1.018226,0.01149 z m 1.961602,0.09592 0.01091,-5.026685 0.182027,-0.132878 c 0.26197,-0.19123 0.878706,-0.493776 1.264584,-0.620355 0.724578,-0.237682 1.66458,-0.289192 2.304394,-0.126277 0.728707,0.185549 1.385741,0.682518 1.700877,1.28652 0.329493,0.631518 0.308293,0.299499 0.333996,5.23047 l 0.02302,4.415889 h 0.9432 0.943206 V 45.523107 40.67849 l -0.11801,-0.333482 c -0.30158,-0.852255 -1.014718,-1.550404 -1.937609,-1.896883 -0.684751,-0.257075 -0.95285,-0.297374 -1.974423,-0.296779 -0.717354,4.86e-4 -1.040722,0.01868 -1.350489,0.07627 -0.583052,0.108395 -1.356155,0.313609 -1.74477,0.463133 -0.665775,0.256162 -1.572151,0.752641 -2.231674,1.222424 l -0.267955,0.190866 v 5.113978 c 0,2.812688 0.01322,5.127205 0.0294,5.143373 0.01617,0.01617 0.445429,0.0242 0.953916,0.01786 l 0.924521,-0.01154 z M 1.4140849,45.115817 c 0,-0.08253 0.00883,-0.116294 0.019607,-0.07503 0.010792,0.04127 0.010792,0.10879 0,0.150056 -0.010792,0.04127 -0.019607,0.0075 -0.019607,-0.07503 z m 0,-1.157563 c 0,-0.08253 0.00883,-0.116294 0.019607,-0.07503 0.010792,0.04127 0.010792,0.10879 0,0.150055 -0.010792,0.04126 -0.019607,0.0075 -0.019607,-0.07503 z M 104.76027,35.50404 l -0.0115,-1.084965 -0.36228,-0.01259 c -0.37678,-0.01309 -0.47373,-0.05077 -0.47373,-0.184079 0,-0.145062 0.14206,-0.167749 1.05038,-0.167749 0.90832,0 1.05038,0.02269 1.05038,0.167749 0,0.133309 -0.097,0.170983 -0.47373,0.184079 l -0.36229,0.01259 -0.0214,1.071818 -0.0214,1.071817 -0.18147,0.01314 -0.18147,0.01314 z m 0.31009,-0.03512 c 0.0118,-0.577415 0.037,-1.073961 0.0561,-1.103436 0.0235,-0.03634 0.15905,-0.05359 0.42115,-0.05359 0.34498,0 0.38492,-0.0081 0.37204,-0.07503 -0.0131,-0.06835 -0.0992,-0.07605 -0.96778,-0.08657 -0.9257,-0.0112 -0.95335,-0.0091 -0.95335,0.07342 0,0.07768 0.0339,0.08601 0.39657,0.09728 l 0.39657,0.01233 0.0115,1.046927 c 0.0117,1.065543 0.0293,1.180021 0.17748,1.151601 0.0595,-0.01141 0.071,-0.147728 0.0897,-1.062937 z m 1.23105,1.088677 c -0.0168,-0.01684 -0.0306,-0.575177 -0.0306,-1.240753 0,-1.33392 -0.0156,-1.262187 0.27399,-1.262187 0.0761,0 0.16941,0.02412 0.20737,0.05359 0.0388,0.03013 0.18787,0.452945 0.34046,0.965713 0.14929,0.501666 0.29073,0.916459 0.31431,0.921763 0.0236,0.0053 0.1923,-0.413607 0.37494,-0.930909 0.18264,-0.517303 0.35627,-0.955916 0.38586,-0.974698 0.0752,-0.04776 0.33245,-0.04402 0.33245,0.0048 0,0.02216 -0.0722,0.04627 -0.16055,0.05359 l -0.16056,0.0133 -0.34331,0.973318 c -0.18882,0.535326 -0.36433,0.994345 -0.39003,1.020045 -0.0337,0.03372 -0.0585,0.0313 -0.089,-0.0087 -0.034,-0.04452 -0.39331,-1.202576 -0.57995,-1.869022 -0.0384,-0.137195 -0.0459,-0.141176 -0.24066,-0.128618 l -0.20101,0.01296 -0.0114,1.141023 c -0.01,0.99025 -0.003,1.148351 0.0554,1.196475 0.0415,0.03447 0.082,0.04026 0.10697,0.0153 0.0221,-0.02209 0.0454,-0.444742 0.0518,-0.939239 0.0154,-1.192797 0.0405,-1.191497 0.43839,0.02268 l 0.30206,0.921763 h 0.12862 0.12862 l 0.28788,-0.836017 c 0.46086,-1.338344 0.46239,-1.338787 0.46239,-0.133868 0,0.952312 0.002,0.963854 0.21436,1.002812 0.0698,0.01283 0.0437,0.02174 -0.075,0.02554 l -0.18221,0.0058 v -0.836017 c 0,-0.478367 -0.0168,-0.836017 -0.0393,-0.836017 -0.0216,0 -0.13038,0.274921 -0.24169,0.610935 -0.37287,1.125686 -0.33902,1.061099 -0.55617,1.061099 h -0.18793 l -0.26123,-0.800607 c -0.14369,-0.440333 -0.27478,-0.821365 -0.29132,-0.846736 -0.0165,-0.02537 -0.0397,0.330079 -0.0515,0.78989 l -0.0214,0.836017 -0.13016,0.01275 c -0.0716,0.007 -0.14394,-9.72e-4 -0.16077,-0.01786 z M 10.321663,36.114425 C 9.9362572,36.0298 9.6158129,35.769495 9.4647459,35.41833 9.3499805,35.151551 9.3572706,34.685617 9.480172,34.432818 c 0.2486174,-0.511418 0.834505,-0.773631 1.376524,-0.616061 0.330754,0.09615 0.661177,0.41694 0.771456,0.74896 0.144348,0.434591 0.0092,0.970422 -0.317099,1.256883 -0.27401,0.240584 -0.678884,0.360004 -0.989385,0.291825 z m 0.573807,-0.09744 c 0.107704,-0.03216 0.262733,-0.136571 0.397856,-0.267955 0.358925,-0.348991 0.443978,-0.810559 0.236,-1.280729 -0.375129,-0.848042 -1.5723635,-0.856309 -2.0080076,-0.01387 -0.090312,0.174647 -0.1217882,0.60537 -0.060724,0.831012 0.1178442,0.435462 0.5722496,0.784231 1.0217626,0.784231 0.130157,0 0.316058,-0.02371 0.413113,-0.05269 z"
       id="path4012"
       inkscape:connector-curvature="0" />
    <path
       style="fill:#4785b7;stroke-width:0.0428727"
       d="M 4.626505,50.643495 C 3.5127813,50.497566 2.6554059,49.756471 2.1380912,48.492565 1.9639224,48.067032 1.7843804,47.353837 1.6423617,46.523365 1.5805407,46.161863 1.5075601,45.769625 1.4801805,45.651725 1.4132682,45.36358 1.4131629,43.74613 1.4800395,43.465217 1.5081078,43.347316 1.572032,43.000048 1.6220939,42.693508 1.8835221,41.092731 2.249462,40.206906 2.9307808,39.525587 3.3170857,39.139281 3.7724676,38.851863 4.2745491,38.677454 4.9276278,38.450592 4.7469856,38.459075 9.5070817,38.431729 l 4.4373253,-0.02549 V 38.020384 37.63453 l -3.00109,-0.02144 -3.001089,-0.02144 v -1.500544 c 0,-1.297328 0.0105,-1.545301 0.077552,-1.831015 0.2994927,-1.276205 1.2613992,-1.835152 3.716682,-2.159696 0.705403,-0.09324 2.856624,-0.130981 3.668121,-0.06435 0.980024,0.08047 1.759551,0.208592 2.216694,0.364342 0.990849,0.337585 1.823095,1.080115 2.135446,1.90525 0.200937,0.530811 0.208826,0.687306 0.200235,3.971977 l -0.0081,3.086836 -0.02405,-3.236891 c -0.02646,-3.562212 -0.01589,-3.42175 -0.300846,-3.996085 -0.42125,-0.849035 -1.289612,-1.509601 -2.317697,-1.763085 -0.281175,-0.06933 -1.281624,-0.217102 -1.302446,-0.192385 -0.0063,0.0075 -1.030364,1.209834 -2.275609,2.671793 l -2.264082,2.658109 1.22254,0.02538 c 0.672396,0.01397 1.244922,0.03921 1.272279,0.05612 0.03203,0.0198 0.04974,0.174287 0.04974,0.433993 0,0.354806 -0.01,0.408585 -0.08293,0.447633 -0.05286,0.02829 -0.67077,0.04479 -1.70419,0.0455 l -1.621263,0.0011 -4.1800883,4.907896 c -2.299049,2.699344 -4.1856094,4.94162 -4.1923566,4.982838 -0.020166,0.123191 0.3476489,0.824734 0.6024595,1.149087 0.2800756,0.356511 0.5921214,0.608244 0.9756247,0.787055 0.5153005,0.240265 0.6967449,0.264828 2.0241392,0.27403 l 1.2117878,0.0084 0.02286,-1.693472 0.02286,-1.693472 0.1214739,-0.364418 c 0.3661375,-1.098405 1.0943828,-1.932097 2.0989281,-2.402841 0.6407509,-0.300268 0.9030627,-0.34838 1.9782747,-0.362853 l 0.9432,-0.0127 -0.900327,0.03352 c -0.571522,0.02128 -1.007633,0.05905 -1.194151,0.103426 -0.6706019,0.159553 -1.2740661,0.480359 -1.7683843,0.940082 -0.4081687,0.379603 -0.6655557,0.72637 -0.8951822,1.206047 -0.3281606,0.685507 -0.3348447,0.733796 -0.3623053,2.61752 l -0.024376,1.672035 -1.0932534,0.0056 c -0.6012912,0.0031 -1.2155471,-0.01039 -1.3650148,-0.02997 z m 6.361863,-14.614769 c 0.55168,-0.239177 0.832772,-0.881961 0.63978,-1.463009 -0.11028,-0.33202 -0.440703,-0.652808 -0.771457,-0.74896 -0.542019,-0.15757 -1.1279064,0.104643 -1.3765239,0.616061 -0.1228965,0.252799 -0.1301866,0.718733 -0.015426,0.985512 0.2581988,0.600199 0.9281049,0.868579 1.5236219,0.610396 z m 3.524102,8.111792 c 0.453915,-0.0069 1.196685,-0.0069 1.6506,0 0.453915,0.007 0.08253,0.01262 -0.8253,0.01262 -0.90783,0 -1.279214,-0.0057 -0.8253,-0.01262 z m 2.701481,-0.0411 c 0.05333,-0.01026 0.130501,-0.0099 0.171491,8.1e-4 0.04099,0.01073 -0.0026,0.01912 -0.09696,0.01865 -0.09432,-4.87e-4 -0.127858,-0.0093 -0.07453,-0.01951 z m 0.299609,-0.04094 c 0.02948,-0.01189 0.07771,-0.01189 0.107182,0 0.02948,0.01189 0.0054,0.02162 -0.05359,0.02162 -0.05895,0 -0.08307,-0.0097 -0.05359,-0.02162 z m 0.385354,-0.09692 c 0.680563,-0.252999 1.305597,-0.779136 1.633735,-1.375232 0.09735,-0.17685 0.177259,-0.304106 0.177571,-0.282793 0.002,0.13701 -0.357729,0.649487 -0.683038,0.973058 -0.295345,0.29377 -0.444377,0.404659 -0.733156,0.545518 -0.199351,0.09724 -0.420335,0.187177 -0.491075,0.199866 -0.07074,0.01269 -0.02756,-0.0145 0.09596,-0.06042 z m 1.818617,-1.73965 c -1.29e-4,-0.02358 0.02578,-0.110397 0.05757,-0.192927 0.03178,-0.08253 0.05838,-0.121115 0.05911,-0.08575 7.29e-4,0.03537 -0.02517,0.122186 -0.05757,0.192926 -0.03239,0.07074 -0.05899,0.109326 -0.05911,0.08575 z m 0.150975,-0.557345 c 0.01362,-0.117901 0.03193,-0.222403 0.0407,-0.232227 0.03013,-0.03376 0.0074,0.232295 -0.02903,0.339409 -0.02457,0.07228 -0.02837,0.03738 -0.01167,-0.107182 z"
       id="path4010"
       inkscape:connector-curvature="0" />
    <path
       style="fill:#3874a4;stroke-width:0.0428727"
       d="M 4.8768287,50.601856 C 3.9866616,50.544026 3.3520407,50.219539 2.8303493,49.555472 2.5755387,49.231119 2.2077241,48.529576 2.2278898,48.406385 c 0.00674,-0.04122 1.8933076,-2.283493 4.1923566,-4.982838 l 4.1800896,-4.907896 1.621263,-0.0011 c 1.03342,-6.49e-4 1.651331,-0.01721 1.70419,-0.0455 0.07296,-0.03905 0.08293,-0.09283 0.08293,-0.447634 0,-0.259706 -0.01771,-0.414195 -0.04974,-0.433993 -0.02736,-0.01691 -0.599883,-0.04216 -1.27228,-0.05612 l -1.222539,-0.02538 2.264082,-2.658109 c 1.245245,-1.461959 2.269269,-2.664266 2.275609,-2.671793 0.02082,-0.02472 1.021271,0.123059 1.302446,0.192386 1.1161,0.275183 2.044344,1.038119 2.416763,1.986371 0.19689,0.50132 0.208056,0.739764 0.19273,4.11578 -0.01605,3.535137 8.27e-4,3.336886 -0.343156,4.030035 -0.257382,0.518632 -0.766947,1.028908 -1.276644,1.278424 -0.713119,0.349098 -0.444342,0.328812 -4.415889,0.333298 -3.466405,0.0039 -3.543659,0.0058 -3.870711,0.09508 -0.9313316,0.254205 -1.7685154,0.845214 -2.2888797,1.615834 -0.2368745,0.350793 -0.3679572,0.62002 -0.5114116,1.050382 l -0.1214739,0.364418 -0.02286,1.693472 -0.02286,1.693472 -0.8360187,0.0045 c -0.4598088,0.0025 -1.0578836,-0.0099 -1.3290536,-0.02757 z"
       id="path4008"
       inkscape:connector-curvature="0" />
    <path
       style="fill:#ffffff;stroke-width:0.0428727"
       d="M 34.641209,56.313324 33.730163,55.984342 V 48.070495 40.15665 l 0.290343,-0.280303 c 1.154696,-1.114765 3.300223,-1.811366 5.347419,-1.736178 0.75561,0.02775 1.203136,0.110675 1.664256,0.308377 0.542104,0.232421 0.796167,0.404925 1.232117,0.836581 0.629611,0.623413 1.037523,1.308868 1.364969,2.29369 0.341516,1.027135 0.455823,1.92825 0.420849,3.317638 -0.01937,0.769473 -0.04198,1.014894 -0.13322,1.446054 -0.431102,2.037154 -1.553173,3.49211 -3.112735,4.036192 -0.565866,0.197412 -0.893269,0.246258 -1.6506,0.246258 -1.044389,0 -1.75354,-0.181653 -2.82788,-0.724382 -0.431422,-0.217944 -0.632965,-0.299258 -0.664232,-0.267991 -0.03053,0.03053 -0.04489,1.159649 -0.04489,3.530437 0,1.917055 -0.01447,3.484143 -0.03215,3.482419 -0.01769,-0.0017 -0.442125,-0.151177 -0.9432,-0.332118 z m 4.993149,-7.1427 c 1.180643,-0.379786 1.889655,-1.446504 2.133076,-3.209244 0.139175,-1.007837 0.119369,-2.503816 -0.04582,-3.4608 -0.306126,-1.77348 -1.036435,-2.787645 -2.205904,-3.063291 -0.360216,-0.0849 -1.164264,-0.08517 -1.653434,-4.86e-4 -0.481536,0.0833 -1.309995,0.362106 -1.743055,0.586599 -0.561777,0.291222 -0.50266,-0.212376 -0.50266,4.282011 v 3.893964 l 0.09009,0.08394 c 0.152667,0.142233 1.155358,0.636206 1.583453,0.780087 0.597934,0.200961 0.934769,0.254032 1.499032,0.236179 0.384811,-0.01219 0.570342,-0.04047 0.845215,-0.128889 z m 10.220601,7.338615 c -0.07634,-0.203988 -0.273983,-1.020427 -0.252289,-1.042123 0.01256,-0.01256 0.377268,-0.08037 0.810475,-0.150702 1.769934,-0.287364 2.531093,-0.593716 3.234943,-1.302001 0.669075,-0.673298 0.852974,-1.346149 0.905558,-3.313314 0.02254,-0.843279 0.0177,-0.955788 -0.04215,-0.978753 -0.03719,-0.01428 -0.237824,0.04169 -0.445851,0.124366 -1.06091,0.421621 -1.98742,0.630862 -3.192434,0.720973 -1.033306,0.07727 -1.690176,-0.01875 -2.382214,-0.348239 -0.49326,-0.234844 -0.839804,-0.480316 -1.213053,-0.85926 -0.372658,-0.378342 -0.59771,-0.739162 -0.762089,-1.221844 l -0.116802,-0.342982 -0.01167,-4.50712 -0.01167,-4.50712 0.88353,-0.305342 c 0.485944,-0.167937 0.910132,-0.305341 0.942639,-0.305341 0.04975,0 0.06134,0.703672 0.0732,4.448044 0.01306,4.121476 0.01972,4.46693 0.09068,4.70528 0.314141,1.055226 1.105536,1.723668 2.284034,1.92918 1.093834,0.190749 2.224077,-0.07513 3.4449,-0.810386 l 0.321545,-0.193654 0.02144,-4.899896 0.02144,-4.899895 0.953918,-0.01154 0.953918,-0.01154 v 5.885832 c 0,3.603235 -0.01728,6.151574 -0.04455,6.571064 -0.07892,1.213886 -0.250651,2.159302 -0.50907,2.802456 -0.575973,1.433474 -2.477656,2.530291 -4.948695,2.854216 -0.277343,0.03636 -0.609855,0.0661 -0.738923,0.0661 -0.204078,0 -0.239367,-0.01258 -0.270759,-0.09647 z m 32.909955,-5.970522 c -1.543375,-0.259479 -2.755965,-1.176309 -3.599984,-2.721921 -0.361137,-0.661336 -0.618146,-1.511839 -0.744933,-2.465181 -0.09358,-0.703646 -0.0607,-2.097375 0.063,-2.670302 0.265081,-1.227778 0.796493,-2.239783 1.614007,-3.07366 0.98576,-1.005491 2.174319,-1.479744 3.70849,-1.479744 1.581051,0 2.821886,0.515051 3.834766,1.591749 1.023092,1.087552 1.560991,2.451166 1.638159,4.15285 0.09328,2.057012 -0.544643,3.955647 -1.751377,5.212613 -0.78112,0.81363 -1.65345,1.276529 -2.736655,1.452196 -0.493217,0.07999 -1.553678,0.08072 -2.02547,0.0015 z m 1.919467,-1.196836 c 1.570817,-0.422966 2.374175,-1.938165 2.490702,-4.697665 0.06242,-1.478146 -0.187597,-2.7199 -0.738043,-3.665616 -0.281496,-0.48364 -0.832581,-1.022162 -1.262109,-1.233347 -0.893378,-0.439239 -1.862884,-0.442829 -2.775876,-0.01027 -1.020075,0.483287 -1.619645,1.441489 -1.878858,3.002687 -0.107315,0.646338 -0.10815,2.192382 -0.0016,2.882709 0.325743,2.109657 1.181576,3.378215 2.524384,3.741774 0.255839,0.06927 0.409199,0.08134 0.848215,0.06678 0.300303,-0.01 0.648999,-0.04823 0.793145,-0.08704 z m -21.715029,1.196804 c -0.03537,-0.0072 -0.209004,-0.03652 -0.385854,-0.06504 -1.356244,-0.218721 -2.26039,-1.067562 -2.484431,-2.332463 -0.0294,-0.165986 -0.04506,-1.673295 -0.04506,-4.337355 0,-2.24563 -0.01172,-4.113481 -0.02602,-4.150779 -0.02217,-0.05777 -0.123736,-0.06782 -0.685964,-0.06782 h -0.65994 v -0.578783 -0.57878 h 0.637844 c 0.480333,0 0.649593,-0.01416 0.685445,-0.05736 0.03261,-0.0393 0.05114,-0.574111 0.05884,-1.698306 l 0.01123,-1.640943 0.89715,-0.318406 c 0.493435,-0.175122 0.922698,-0.308601 0.953918,-0.29662 0.04597,0.01764 0.05677,0.396358 0.05677,1.990686 0,1.755833 0.0073,1.97172 0.06781,1.994927 0.0373,0.01431 0.538911,0.02602 1.114691,0.02602 h 1.046875 v 0.578058 0.578056 l -1.103972,0.01144 -1.103972,0.01144 -0.01123,4.158653 c -0.0075,2.766507 0.0038,4.231346 0.03355,4.375802 0.06494,0.314958 0.264155,0.702275 0.454913,0.884444 0.09122,0.08711 0.29126,0.216631 0.444531,0.287811 0.261201,0.121307 0.884922,0.261195 1.164581,0.261195 h 0.124408 l -0.01212,0.482318 -0.01212,0.482319 -0.578782,0.0063 c -0.31833,0.0035 -0.607721,3.24e-4 -0.643091,-0.0069 z m 3.749742,-0.203117 c -0.0112,-0.02948 -0.01541,-4.190873 -0.0094,-9.247551 l 0.01099,-9.193962 0.857455,-0.268308 c 0.4716,-0.147569 0.890955,-0.288447 0.931899,-0.313062 0.04095,-0.02461 0.07953,-0.04476 0.08575,-0.04476 0.0062,-2e-6 0.0059,1.847277 -6.48e-4,4.105063 -0.0065,2.257786 -0.0013,4.148473 0.01154,4.201528 0.01288,0.05306 0.05133,0.09646 0.08544,0.09646 0.03411,0 0.226716,-0.107354 0.428012,-0.238566 0.711249,-0.463615 1.628507,-0.828192 2.487992,-0.988892 0.595053,-0.111256 1.848251,-0.11163 2.250819,-6.49e-4 0.632783,0.174414 1.292985,0.597819 1.672035,1.072325 0.432329,0.541204 0.63909,0.978525 0.776472,1.64231 0.0773,0.373508 0.08084,0.614546 0.07046,4.801743 l -0.0109,4.408495 h -0.921763 -0.921763 l -0.02436,-4.137216 C 74.47347,41.871823 74.47706,41.9529 74.282816,41.344772 74.165748,40.97827 73.874822,40.500603 73.602147,40.227197 c -0.440426,-0.441616 -0.834624,-0.596382 -1.522384,-0.597716 -0.468003,-9.72e-4 -0.914857,0.09986 -1.495388,0.337203 -0.670995,0.274331 -1.856482,0.976292 -1.952834,1.156332 -0.0318,0.05942 -0.0459,1.495804 -0.0459,4.675969 v 4.590198 h -0.923109 c -0.699044,0 -0.928054,-0.01301 -0.943475,-0.05359 z m 24.489901,0.02582 c -0.01617,-0.01617 -0.0294,-2.330685 -0.0294,-5.143373 v -5.113978 l 0.267955,-0.190866 c 0.659523,-0.469783 1.565899,-0.966262 2.231673,-1.222424 0.388616,-0.149524 1.161718,-0.354738 1.74477,-0.463133 0.309768,-0.05759 0.633135,-0.07585 1.35049,-0.07627 1.021572,-6.48e-4 1.289672,0.0397 1.974422,0.296779 0.922891,0.346479 1.636025,1.044628 1.937605,1.896883 l 0.11801,0.333482 v 4.844617 4.844616 h -0.943202 -0.943199 l -0.02302,-4.415889 c -0.0257,-4.930971 -0.0045,-4.598952 -0.333995,-5.23047 -0.315136,-0.604002 -0.97217,-1.100971 -1.700877,-1.28652 -0.639814,-0.162915 -1.579817,-0.111405 -2.304395,0.126277 -0.385877,0.126579 -1.002614,0.429125 -1.264583,0.620355 l -0.182028,0.132878 -0.0109,5.026685 -0.01089,5.026684 -0.924521,0.01154 c -0.508487,0.0063 -0.93775,-0.0017 -0.953916,-0.01786 z M 104.86355,36.486067 c -0.0329,-0.03964 -0.0526,-0.401104 -0.0604,-1.105811 l -0.0115,-1.046927 -0.39658,-0.01233 c -0.36261,-0.01128 -0.39657,-0.0196 -0.39657,-0.09729 0,-0.08249 0.0276,-0.08462 0.95336,-0.07342 0.86855,0.01052 0.95463,0.01821 0.96778,0.08657 0.0129,0.06697 -0.0271,0.07503 -0.37205,0.07503 -0.26209,0 -0.39763,0.01725 -0.42115,0.05359 -0.0191,0.02947 -0.0443,0.526021 -0.0561,1.103436 -0.0187,0.915209 -0.0302,1.051524 -0.0897,1.062938 -0.0375,0.0072 -0.0902,-0.0134 -0.11712,-0.04579 z m 1.4987,-0.0022 c -0.036,-0.04338 -0.0468,-0.377409 -0.0386,-1.191144 l 0.0114,-1.130862 0.20101,-0.01296 c 0.19478,-0.01256 0.20224,-0.0086 0.24066,0.128619 0.21656,0.773288 0.54681,1.824825 0.58709,1.869356 0.0414,0.04574 0.0583,0.04574 0.0943,0 0.0241,-0.03066 0.19255,-0.480183 0.37427,-0.998943 0.18172,-0.518759 0.3436,-0.955231 0.35973,-0.969937 0.0161,-0.0147 0.11133,-0.03699 0.21155,-0.04951 l 0.1822,-0.02277 v 1.217791 1.217793 h -0.0986 c -0.19117,0 -0.2015,-0.05103 -0.2015,-0.994646 0,-1.201212 -0.002,-1.200713 -0.4624,0.137193 l -0.28788,0.836017 h -0.12862 -0.12861 l -0.30206,-0.921763 c -0.20957,-0.639515 -0.32115,-0.921763 -0.36442,-0.921763 -0.0519,0 -0.0659,0.15319 -0.0838,0.91824 -0.0213,0.911762 -0.0444,1.035587 -0.16578,0.889296 z"
       id="path4006"
       inkscape:connector-curvature="0" />
  </g>
</svg>
